SplineFontDB: 3.0
FontName: TitanOne
FullName: Titan One
FamilyName: Titan One
Weight: Book
Copyright: Copyright (c) 2011 Rodrigo Fuenzalida (hello@rfuenzalida.com), with Reserved Font Name "Titan One"
Version: 1.001
ItalicAngle: 0
UnderlinePosition: -50
UnderlineWidth: 50
Ascent: 800
Descent: 200
sfntRevision: 0x00010042
LayerCount: 2
Layer: 0 1 "Back"  1
Layer: 1 1 "Fore"  0
XUID: [1021 75 919674874 12801982]
FSType: 0
OS2Version: 2
OS2_WeightWidthSlopeOnly: 0
OS2_UseTypoMetrics: 1
CreationTime: 1325880230
ModificationTime: 1325881675
PfmFamily: 17
TTFWeight: 400
TTFWidth: 5
LineGap: 0
VLineGap: 0
Panose: 2 0 0 0 0 0 0 0 0 0
OS2TypoAscent: 170
OS2TypoAOffset: 1
OS2TypoDescent: 25
OS2TypoDOffset: 1
OS2TypoLinegap: 0
OS2WinAscent: 0
OS2WinAOffset: 1
OS2WinDescent: 0
OS2WinDOffset: 1
HheadAscent: 0
HheadAOffset: 1
HheadDescent: 0
HheadDOffset: 1
OS2SubXSize: 700
OS2SubYSize: 650
OS2SubXOff: 0
OS2SubYOff: 140
OS2SupXSize: 700
OS2SupYSize: 650
OS2SupXOff: 0
OS2SupYOff: 477
OS2StrikeYSize: 50
OS2StrikeYPos: 250
OS2Vendor: 'pyrs'
OS2CodePages: 00000001.00000000
OS2UnicodeRanges: 00000023.00000000.00000000.00000000
Lookup: 258 0 0 "'kern' Horizontal Kerning in Latin lookup 0"  {"'kern' Horizontal Kerning in Latin lookup 0 subtable"  } ['kern' ('DFLT' <'dflt' > 'latn' <'dflt' > ) ]
DEI: 91125
TtTable: prep
PUSHW_1
 511
SCANCTRL
PUSHB_1
 4
SCANTYPE
EndTTInstrs
ShortTable: maxp 16
  1
  0
  422
  97
  7
  0
  0
  2
  0
  1
  1
  0
  64
  0
  0
  0
EndShort
LangName: 1033 "" "" "Regular" "RodrigoFuenzalida: Titan One: 2011" "" "Version 1.001" "" "Titan is a trademark of Rodrigo Fuenzalida." "Rodrigo Fuenzalida" "Rodrigo Fuenzalida" "" "www.rfuenzalida.com" "www.rfuenzalida.com" "This Font Software is licensed under the SIL Open Font License, Version 1.1. This license is available with a FAQ at: http://scripts.sil.org/OFL" "http://scripts.sil.org/OFL" 
GaspTable: 1 65535 15 1
Encoding: UnicodeBmp
UnicodeInterp: none
NameList: Adobe Glyph List
DisplaySize: -24
AntiAlias: 1

StartChar: exclam
Encoding: 33 33 4
Width: 332
GlyphClass: 2
Flags: W
LayerCount: 2
Fore
SplineSet
88 717.5 m 128,-1,1
 146 724 146 724 224 724 c 128,-1,2
 302 724 302 724 302 701 c 0,3,4
 302 672 302 672 284 219 c 0,5,6
 283 194 283 194 248 174 c 128,-1,7
 213 154 213 154 149 154 c 0,8,9
 62 154 62 154 58 201 c 1,10,-1
 31 700 l 2,11,0
 30 711 30 711 88 717.5 c 128,-1,1
258.5 -61.5 m 128,-1,13
 226 -81 226 -81 167.5 -81 c 128,-1,14
 109 -81 109 -81 78 -63.5 c 128,-1,15
 47 -46 47 -46 47 9 c 0,16,17
 47 99 47 99 169 99 c 128,-1,18
 291 99 291 99 291 9 c 0,19,12
 291 -42 291 -42 258.5 -61.5 c 128,-1,13
EndSplineSet
EndChar

StartChar: quotedbl
Encoding: 34 34 5
Width: 522
GlyphClass: 2
Flags: W
LayerCount: 2
Fore
SplineSet
49 762.5 m 128,-1,1
 68 780 68 780 127 780 c 128,-1,2
 186 780 186 780 208.5 764 c 128,-1,3
 231 748 231 748 231 690 c 0,4,5
 231 437 231 437 130.5 437 c 128,-1,6
 30 437 30 437 30 690 c 0,7,0
 30 745 30 745 49 762.5 c 128,-1,1
310 762.5 m 128,-1,9
 329 780 329 780 388 780 c 128,-1,10
 447 780 447 780 469.5 764 c 128,-1,11
 492 748 492 748 492 690 c 0,12,13
 492 437 492 437 391.5 437 c 128,-1,14
 291 437 291 437 291 690 c 0,15,8
 291 745 291 745 310 762.5 c 128,-1,9
EndSplineSet
EndChar

StartChar: numbersign
Encoding: 35 35 6
Width: 814
GlyphClass: 2
Flags: W
LayerCount: 2
Fore
SplineSet
105 0 m 0,0,1
 83 0 83 0 73.5 13.5 c 128,-1,2
 64 27 64 27 64 42 c 128,-1,3
 64 57 64 57 83 130 c 1,4,-1
 37 130 l 2,5,6
 26 130 26 130 18 148.5 c 128,-1,7
 10 167 10 167 10 201.5 c 128,-1,8
 10 236 10 236 32 271.5 c 128,-1,9
 54 307 54 307 75 307 c 2,10,-1
 131 307 l 1,11,-1
 157 403 l 1,12,-1
 95 403 l 2,13,14
 84 403 84 403 76 421.5 c 128,-1,15
 68 440 68 440 68 474.5 c 128,-1,16
 68 509 68 509 90 544.5 c 128,-1,17
 112 580 112 580 133 580 c 2,18,-1
 205 580 l 1,19,20
 213 612 213 612 226 657 c 0,21,22
 241 711 241 711 380 711 c 0,23,24
 432 711 432 711 432 676 c 0,25,26
 432 670 432 670 408 580 c 1,27,-1
 513 580 l 1,28,29
 521 612 521 612 534 657 c 0,30,31
 549 711 549 711 688 711 c 0,32,33
 740 711 740 711 740 676 c 0,34,35
 740 670 740 670 716 580 c 1,36,-1
 778 580 l 2,37,38
 804 580 804 580 804 515 c 0,39,40
 804 482 804 482 783 442.5 c 128,-1,41
 762 403 762 403 743 403 c 2,42,-1
 668 403 l 1,43,-1
 642 307 l 1,44,-1
 720 307 l 2,45,46
 746 307 746 307 746 242 c 0,47,48
 746 209 746 209 725 169.5 c 128,-1,49
 704 130 704 130 685 130 c 2,50,-1
 595 130 l 1,51,-1
 572 44 l 2,52,53
 560 0 560 0 413 0 c 0,54,55
 391 0 391 0 381.5 13.5 c 128,-1,56
 372 27 372 27 372 42 c 128,-1,57
 372 57 372 57 391 130 c 1,58,-1
 287 130 l 1,59,-1
 264 44 l 2,60,61
 252 0 252 0 105 0 c 0,0,1
360 403 m 1,62,-1
 334 307 l 1,63,-1
 439 307 l 1,64,-1
 465 403 l 1,65,-1
 360 403 l 1,62,-1
EndSplineSet
EndChar

StartChar: dollar
Encoding: 36 36 7
Width: 664
GlyphClass: 2
Flags: W
LayerCount: 2
Fore
SplineSet
235 716 m 2,0,1
 235 739 235 739 273 759.5 c 128,-1,2
 311 780 311 780 373 780 c 0,3,4
 421 780 421 780 435 760 c 0,5,6
 445 746 445 746 445 734 c 2,7,-1
 445 704 l 1,8,9
 558 692 558 692 602 662 c 0,10,11
 620 650 620 650 620 639 c 0,12,13
 620 587 620 587 595.5 527 c 128,-1,14
 571 467 571 467 548 467 c 0,15,16
 544 467 544 467 522 476 c 0,17,18
 456 505 456 505 412.5 505 c 128,-1,19
 369 505 369 505 353.5 497 c 128,-1,20
 338 489 338 489 338 472.5 c 128,-1,21
 338 456 338 456 360 447 c 128,-1,22
 382 438 382 438 414.5 431.5 c 128,-1,23
 447 425 447 425 485.5 410 c 128,-1,24
 524 395 524 395 557 374 c 128,-1,25
 590 353 590 353 612 311.5 c 128,-1,26
 634 270 634 270 634 227 c 128,-1,27
 634 184 634 184 626 156 c 128,-1,28
 618 128 618 128 598.5 98 c 128,-1,29
 579 68 579 68 539.5 44.5 c 128,-1,30
 500 21 500 21 445 10 c 1,31,-1
 445 -6 l 2,32,33
 445 -29 445 -29 407 -49.5 c 128,-1,34
 369 -70 369 -70 307 -70 c 0,35,36
 259 -70 259 -70 245 -50 c 0,37,38
 235 -36 235 -36 235 -24 c 2,39,-1
 235 6 l 1,40,41
 170 12 170 12 122 25 c 0,42,43
 30 50 30 50 30 79 c 0,44,45
 30 135 30 135 46 195.5 c 128,-1,46
 62 256 62 256 84 256 c 0,47,48
 88 256 88 256 167 229 c 128,-1,49
 246 202 246 202 286 202 c 128,-1,50
 326 202 326 202 338 210.5 c 128,-1,51
 350 219 350 219 350 235 c 128,-1,52
 350 251 350 251 328 262.5 c 128,-1,53
 306 274 306 274 273 281 c 128,-1,54
 240 288 240 288 201.5 303 c 128,-1,55
 163 318 163 318 130 338 c 128,-1,56
 97 358 97 358 75 397 c 128,-1,57
 53 436 53 436 53 488 c 0,58,59
 53 672 53 672 235 703 c 1,60,-1
 235 716 l 2,0,1
EndSplineSet
EndChar

StartChar: percent
Encoding: 37 37 8
Width: 975
GlyphClass: 2
Flags: W
LayerCount: 2
Fore
SplineSet
353 11.5 m 128,-1,1
 332 0 332 0 283 0 c 128,-1,2
 234 0 234 0 234 26 c 0,3,4
 234 28 234 28 236 34 c 1,5,-1
 590 660 l 2,6,7
 599 676 599 676 606.5 684.5 c 128,-1,8
 614 693 614 693 634 701.5 c 128,-1,9
 654 710 654 710 684 710 c 0,10,11
 746 710 746 710 746 683 c 0,12,13
 746 678 746 678 744 674 c 2,14,-1
 386 44 l 2,15,0
 374 23 374 23 353 11.5 c 128,-1,1
224 329 m 0,16,17
 180 329 180 329 147.5 337 c 128,-1,18
 115 345 115 345 87 365 c 0,19,20
 30 406 30 406 30 524 c 0,21,22
 30 639 30 639 90 678 c 0,23,24
 141 711 141 711 224 711 c 0,25,26
 306 711 306 711 359 678 c 1,27,28
 419 639 419 639 419 524 c 0,29,30
 419 405 419 405 362 365 c 0,31,32
 310 329 310 329 224 329 c 0,16,17
224 426 m 0,33,34
 232 426 232 426 237 432 c 0,35,36
 250 446 250 446 250 503 c 128,-1,37
 250 560 250 560 246 581.5 c 128,-1,38
 242 603 242 603 237 608 c 128,-1,39
 232 613 232 613 224 613 c 0,40,41
 198 613 198 613 198 519.5 c 128,-1,42
 198 426 198 426 224 426 c 0,33,34
750 -10 m 0,43,44
 706 -10 706 -10 673.5 -2 c 128,-1,45
 641 6 641 6 613 26 c 0,46,47
 556 67 556 67 556 185 c 0,48,49
 556 300 556 300 616 338 c 1,50,51
 667 372 667 372 750 372 c 0,52,53
 832 372 832 372 885 338 c 0,54,55
 945 300 945 300 945 185 c 0,56,57
 945 66 945 66 888 26 c 0,58,59
 836 -10 836 -10 750 -10 c 0,43,44
750 87 m 0,60,61
 758 87 758 87 763 92 c 0,62,63
 776 107 776 107 776 164 c 128,-1,64
 776 221 776 221 772 242.5 c 128,-1,65
 768 264 768 264 763 269 c 128,-1,66
 758 274 758 274 750 274 c 0,67,68
 724 274 724 274 724 180.5 c 128,-1,69
 724 87 724 87 750 87 c 0,60,61
EndSplineSet
EndChar

StartChar: ampersand
Encoding: 38 38 9
Width: 776
GlyphClass: 2
Flags: W
LayerCount: 2
Fore
SplineSet
447 438 m 2,0,-1
 716 438 l 2,1,2
 761 438 761 438 761 362 c 0,3,4
 761 326 761 326 752.5 296.5 c 128,-1,5
 744 267 744 267 734 267 c 2,6,-1
 684 267 l 1,7,-1
 684 238 l 2,8,9
 684 107 684 107 675 94 c 0,10,11
 604 -9 604 -9 326 -9 c 0,12,13
 188 -9 188 -9 109 43 c 128,-1,14
 30 95 30 95 30 205 c 0,15,16
 30 294 30 294 88 349 c 0,17,18
 101 362 101 362 119 373 c 1,19,20
 116 375 116 375 110.5 378 c 128,-1,21
 105 381 105 381 91 394 c 128,-1,22
 77 407 77 407 66 423 c 0,23,24
 39 465 39 465 39 524 c 0,25,26
 39 711 39 711 327 711 c 0,27,28
 408 711 408 711 466 699.5 c 128,-1,29
 524 688 524 688 548.5 672 c 128,-1,30
 573 656 573 656 573 639 c 0,31,32
 573 611 573 611 554 544 c 128,-1,33
 535 477 535 477 512 477 c 0,34,35
 507 477 507 477 454 493 c 128,-1,36
 401 509 401 509 357.5 509 c 128,-1,37
 314 509 314 509 314 479 c 0,38,39
 314 453 314 453 352 446 c 0,40,41
 391 438 391 438 447 438 c 2,0,-1
423 200 m 1,42,-1
 424 211 l 1,43,-1
 424 266 l 1,44,45
 314 264 314 264 314 223 c 0,46,47
 314 193 314 193 368 193 c 0,48,49
 393 193 393 193 423 200 c 1,42,-1
EndSplineSet
EndChar

StartChar: quotesingle
Encoding: 39 39 10
Width: 261
GlyphClass: 2
Flags: W
LayerCount: 2
Fore
SplineSet
49 762.5 m 128,-1,1
 68 780 68 780 127 780 c 128,-1,2
 186 780 186 780 208.5 764 c 128,-1,3
 231 748 231 748 231 690 c 0,4,5
 231 437 231 437 130.5 437 c 128,-1,6
 30 437 30 437 30 690 c 0,7,0
 30 745 30 745 49 762.5 c 128,-1,1
EndSplineSet
EndChar

StartChar: parenleft
Encoding: 40 40 11
Width: 450
GlyphClass: 2
Flags: W
LayerCount: 2
Fore
SplineSet
388 -149 m 0,0,1
 35 -149 35 -149 35 295 c 0,2,3
 35 511 35 511 126 615.5 c 128,-1,4
 217 720 217 720 378 720 c 0,5,6
 420 720 420 720 420 671 c 0,7,8
 420 631 420 631 412.5 596.5 c 128,-1,9
 405 562 405 562 388 562 c 0,10,11
 346 562 346 562 324 491 c 128,-1,12
 302 420 302 420 302 289.5 c 128,-1,13
 302 159 302 159 325 84.5 c 128,-1,14
 348 10 348 10 381 10 c 0,15,16
 401 10 401 10 409.5 -12 c 128,-1,17
 418 -34 418 -34 418 -74 c 128,-1,18
 418 -114 418 -114 412 -131.5 c 128,-1,19
 406 -149 406 -149 388 -149 c 0,0,1
EndSplineSet
EndChar

StartChar: parenright
Encoding: 41 41 12
Width: 450
GlyphClass: 2
Flags: W
LayerCount: 2
Fore
SplineSet
62 -149 m 0,0,1
 44 -149 44 -149 38 -131.5 c 128,-1,2
 32 -114 32 -114 32 -74 c 0,3,4
 32 10 32 10 69 10 c 0,5,6
 102 10 102 10 125 84.5 c 128,-1,7
 148 159 148 159 148 289.5 c 128,-1,8
 148 420 148 420 126 491 c 128,-1,9
 104 562 104 562 62 562 c 0,10,11
 45 562 45 562 37.5 596.5 c 128,-1,12
 30 631 30 631 30 671 c 0,13,14
 30 720 30 720 72 720 c 0,15,16
 233 720 233 720 324 615.5 c 128,-1,17
 415 511 415 511 415 295 c 0,18,19
 415 -149 415 -149 62 -149 c 0,0,1
EndSplineSet
EndChar

StartChar: asterisk
Encoding: 42 42 13
Width: 558
GlyphClass: 2
Flags: W
LayerCount: 2
Fore
SplineSet
15 549 m 0,0,1
 15 582 15 582 32 618.5 c 128,-1,2
 49 655 49 655 79 655 c 0,3,4
 100 655 100 655 132.5 638.5 c 128,-1,5
 165 622 165 622 208 590 c 1,6,7
 201 686 201 686 201 719.5 c 128,-1,8
 201 753 201 753 215.5 766.5 c 128,-1,9
 230 780 230 780 276.5 780 c 128,-1,10
 323 780 323 780 340 767.5 c 128,-1,11
 357 755 357 755 357 710 c 0,12,13
 357 694 357 694 350 646 c 128,-1,14
 343 598 343 598 340 590 c 1,15,16
 351 597 351 597 358 601.5 c 128,-1,17
 365 606 365 606 375.5 612 c 128,-1,18
 386 618 386 618 396.5 624 c 128,-1,19
 407 630 407 630 419 636 c 128,-1,20
 431 642 431 642 442 646 c 0,21,22
 464 656 464 656 481 656 c 0,23,24
 510 656 510 656 526.5 620 c 128,-1,25
 543 584 543 584 543 550 c 0,26,27
 543 526 543 526 500.5 509 c 128,-1,28
 458 492 458 492 416 486 c 2,29,-1
 374 481 l 1,30,31
 480 394 480 394 480 353 c 0,32,33
 480 329 480 329 443.5 300.5 c 128,-1,34
 407 272 407 272 382 272 c 0,35,36
 343 272 343 272 279 421 c 1,37,38
 258 362 258 362 228 318 c 128,-1,39
 198 274 198 274 174.5 274 c 128,-1,40
 151 274 151 274 115.5 300.5 c 128,-1,41
 80 327 80 327 80 347.5 c 128,-1,42
 80 368 80 368 103.5 400 c 128,-1,43
 127 432 127 432 174 480 c 1,44,45
 174 480 174 480 169.5 480 c 128,-1,46
 165 480 165 480 129.5 486 c 128,-1,47
 94 492 94 492 54.5 509 c 128,-1,48
 15 526 15 526 15 549 c 0,0,1
EndSplineSet
EndChar

StartChar: plus
Encoding: 43 43 14
Width: 553
GlyphClass: 2
Flags: W
LayerCount: 2
Fore
SplineSet
253 31 m 0,0,1
 188 31 188 31 188 57 c 2,2,-1
 188 190 l 1,3,-1
 57 190 l 2,4,5
 46 190 46 190 38 208.5 c 128,-1,6
 30 227 30 227 30 261.5 c 128,-1,7
 30 296 30 296 52 331.5 c 128,-1,8
 74 367 74 367 95 367 c 2,9,-1
 188 367 l 1,10,-1
 188 479 l 2,11,12
 188 498 188 498 221.5 511 c 128,-1,13
 255 524 255 524 291.5 524 c 128,-1,14
 328 524 328 524 346.5 516 c 128,-1,15
 365 508 365 508 365 497 c 2,16,-1
 365 367 l 1,17,-1
 497 367 l 2,18,19
 523 367 523 367 523 302 c 0,20,21
 523 269 523 269 502 229.5 c 128,-1,22
 481 190 481 190 462 190 c 2,23,-1
 365 190 l 1,24,-1
 365 72 l 2,25,26
 365 55 365 55 327.5 43 c 128,-1,27
 290 31 290 31 253 31 c 0,0,1
EndSplineSet
EndChar

StartChar: comma
Encoding: 44 44 15
Width: 293
GlyphClass: 2
Flags: W
LayerCount: 2
Fore
SplineSet
47 48 m 0,0,1
 40 68 40 68 40 105 c 128,-1,2
 40 142 40 142 61 166.5 c 128,-1,3
 82 191 82 191 146 191 c 128,-1,4
 210 191 210 191 231.5 166 c 128,-1,5
 253 141 253 141 253 90 c 0,6,7
 253 -153 253 -153 89 -153 c 0,8,9
 74 -153 74 -153 59.5 -117 c 128,-1,10
 45 -81 45 -81 45 -60 c 128,-1,11
 45 -39 45 -39 52 -39 c 0,12,13
 72 -39 72 -39 85 -29.5 c 128,-1,14
 98 -20 98 -20 101 -10 c 2,15,-1
 104 0 l 1,16,17
 64 0 64 0 47 48 c 0,0,1
EndSplineSet
EndChar

StartChar: hyphen
Encoding: 45 45 16
Width: 553
GlyphClass: 2
Flags: W
LayerCount: 2
Fore
SplineSet
462 190 m 2,0,-1
 57 190 l 2,1,2
 46 190 46 190 38 208.5 c 128,-1,3
 30 227 30 227 30 261.5 c 128,-1,4
 30 296 30 296 52 331.5 c 128,-1,5
 74 367 74 367 95 367 c 2,6,-1
 497 367 l 2,7,8
 523 367 523 367 523 302 c 0,9,10
 523 269 523 269 502 229.5 c 128,-1,11
 481 190 481 190 462 190 c 2,0,-1
EndSplineSet
EndChar

StartChar: period
Encoding: 46 46 17
Width: 293
GlyphClass: 2
Flags: W
LayerCount: 2
Fore
SplineSet
226 13 m 128,-1,1
 199 -9 199 -9 146.5 -9 c 128,-1,2
 94 -9 94 -9 67 13 c 128,-1,3
 40 35 40 35 40 94 c 128,-1,4
 40 153 40 153 67.5 172.5 c 128,-1,5
 95 192 95 192 147 192 c 128,-1,6
 199 192 199 192 226 172.5 c 128,-1,7
 253 153 253 153 253 94 c 128,-1,0
 253 35 253 35 226 13 c 128,-1,1
EndSplineSet
EndChar

StartChar: slash
Encoding: 47 47 18
Width: 418
GlyphClass: 2
Flags: W
LayerCount: 2
Fore
SplineSet
66 0 m 0,0,1
 44 0 44 0 34.5 13.5 c 128,-1,2
 25 27 25 27 25 42 c 128,-1,3
 25 57 25 57 187 657 c 0,4,5
 202 711 202 711 341 711 c 0,6,7
 393 711 393 711 393 676 c 0,8,9
 393 670 393 670 225 44 c 0,10,11
 213 0 213 0 66 0 c 0,0,1
EndSplineSet
EndChar

StartChar: zero
Encoding: 48 48 19
Width: 726
GlyphClass: 2
Flags: W
LayerCount: 2
Fore
SplineSet
363 -9 m 128,-1,1
 280 -9 280 -9 223.5 5.5 c 128,-1,2
 167 20 167 20 121 59 c 0,3,4
 30 136 30 136 30 360 c 0,5,6
 30 576 30 576 125 653 c 0,7,8
 172 691 172 691 228 706 c 128,-1,9
 284 721 284 721 362.5 721 c 128,-1,10
 441 721 441 721 497.5 706 c 128,-1,11
 554 691 554 691 601 653 c 0,12,13
 696 576 696 576 696 360 c 0,14,15
 696 136 696 136 605 59 c 0,16,17
 559 20 559 20 502.5 5.5 c 128,-1,0
 446 -9 446 -9 363 -9 c 128,-1,1
342 161 m 0,18,19
 350 148 350 148 363.5 148 c 128,-1,20
 377 148 377 148 385 161.5 c 128,-1,21
 393 175 393 175 398 221 c 128,-1,22
 403 267 403 267 403 352 c 128,-1,23
 403 437 403 437 398 484.5 c 128,-1,24
 393 532 393 532 385 547.5 c 128,-1,25
 377 563 377 563 363.5 563 c 128,-1,26
 350 563 350 563 342 548 c 0,27,28
 322 514 322 514 322 352 c 0,29,30
 322 191 322 191 342 161 c 0,18,19
EndSplineSet
EndChar

StartChar: one
Encoding: 49 49 20
Width: 453
GlyphClass: 2
Flags: W
LayerCount: 2
Fore
SplineSet
352 6.5 m 128,-1,1
 291 0 291 0 230 0 c 128,-1,2
 169 0 169 0 151.5 5.5 c 128,-1,3
 134 11 134 11 134 24 c 2,4,-1
 134 456 l 1,5,-1
 32 456 l 2,6,7
 15 456 15 456 15 529 c 128,-1,8
 15 602 15 602 32 661 c 0,9,10
 37 680 37 680 138 696 c 128,-1,11
 239 712 239 712 293 712 c 128,-1,12
 347 712 347 712 365 708 c 128,-1,13
 383 704 383 704 392 698.5 c 128,-1,14
 401 693 401 693 406 686 c 0,15,16
 413 675 413 675 413 665 c 2,17,-1
 413 24 l 2,18,0
 413 13 413 13 352 6.5 c 128,-1,1
EndSplineSet
EndChar

StartChar: two
Encoding: 50 50 21
Width: 614
GlyphClass: 2
Flags: W
LayerCount: 2
Fore
SplineSet
99 451 m 0,0,1
 71 451 71 451 50.5 517 c 128,-1,2
 30 583 30 583 30 644 c 0,3,4
 30 658 30 658 61 675.5 c 128,-1,5
 92 693 92 693 155 707 c 128,-1,6
 218 721 218 721 292 721 c 0,7,8
 579 721 579 721 579 520 c 0,9,10
 579 464 579 464 555 415 c 128,-1,11
 531 366 531 366 502 336.5 c 128,-1,12
 473 307 473 307 434 282 c 0,13,14
 389 254 389 254 348 238 c 1,15,-1
 548 238 l 2,16,17
 554 238 554 238 561 232.5 c 128,-1,18
 568 227 568 227 576 200.5 c 128,-1,19
 584 174 584 174 584 134.5 c 128,-1,20
 584 95 584 95 579 68.5 c 128,-1,21
 574 42 574 42 567 30 c 0,22,23
 552 3 552 3 540 1 c 2,24,-1
 535 0 l 1,25,-1
 97 0 l 2,26,27
 34 0 34 0 34 197 c 0,28,29
 34 219 34 219 164 318 c 1,30,31
 213 354 213 354 254 397 c 128,-1,32
 295 440 295 440 295 467 c 0,33,34
 295 497 295 497 250 497 c 128,-1,35
 205 497 205 497 155.5 474 c 128,-1,36
 106 451 106 451 99 451 c 0,0,1
EndSplineSet
EndChar

StartChar: three
Encoding: 51 51 22
Width: 609
GlyphClass: 2
Flags: W
LayerCount: 2
Fore
SplineSet
570 534 m 0,0,1
 570 433 570 433 490 383 c 1,2,3
 501 378 501 378 518.5 359 c 128,-1,4
 536 340 536 340 548 321 c 0,5,6
 579 272 579 272 579 205 c 0,7,8
 579 95 579 95 500 43 c 128,-1,9
 421 -9 421 -9 283 -9 c 0,10,11
 215 -9 215 -9 154.5 2.5 c 128,-1,12
 94 14 94 14 62 28.5 c 128,-1,13
 30 43 30 43 30 55 c 0,14,15
 30 110 30 110 42 152 c 128,-1,16
 54 194 54 194 69 211.5 c 128,-1,17
 84 229 84 229 98 229 c 0,18,19
 102 229 102 229 151 211 c 128,-1,20
 200 193 200 193 247.5 193 c 128,-1,21
 295 193 295 193 295 223 c 0,22,23
 295 264 295 264 194 267 c 0,24,25
 154 268 154 268 150 269 c 0,26,27
 129 276 129 276 129 357 c 128,-1,28
 129 438 129 438 150 446 c 0,29,30
 154 448 154 448 194 448 c 0,31,32
 295 450 295 450 295 489 c 0,33,34
 295 519 295 519 251.5 519 c 128,-1,35
 208 519 208 519 155 498 c 128,-1,36
 102 477 102 477 97 477 c 0,37,38
 74 477 74 477 55 544 c 128,-1,39
 36 611 36 611 36 639 c 0,40,41
 36 665 36 665 94 692 c 0,42,43
 158 721 158 721 282 721 c 0,44,45
 570 721 570 721 570 534 c 0,0,1
EndSplineSet
EndChar

StartChar: four
Encoding: 52 52 23
Width: 618
GlyphClass: 2
Flags: W
LayerCount: 2
Fore
SplineSet
517 6.5 m 128,-1,1
 456 0 456 0 395 0 c 128,-1,2
 334 0 334 0 316.5 5.5 c 128,-1,3
 299 11 299 11 299 24 c 2,4,-1
 299 147 l 1,5,-1
 49 147 l 2,6,7
 15 147 15 147 15 313 c 0,8,9
 15 332 15 332 96.5 476 c 128,-1,10
 178 620 178 620 209 665 c 0,11,12
 221 682 221 682 299 697 c 128,-1,13
 377 712 377 712 451 712 c 0,14,15
 578 712 578 712 578 665 c 2,16,-1
 578 24 l 2,17,0
 578 13 578 13 517 6.5 c 128,-1,1
316 303 m 1,18,-1
 317 521 l 1,19,-1
 247 303 l 1,20,-1
 316 303 l 1,18,-1
EndSplineSet
EndChar

StartChar: five
Encoding: 53 53 24
Width: 611
GlyphClass: 2
Flags: W
LayerCount: 2
Fore
SplineSet
30 67 m 0,0,1
 30 132 30 132 48 184.5 c 128,-1,2
 66 237 66 237 88 237 c 0,3,4
 94 237 94 237 152 212.5 c 128,-1,5
 210 188 210 188 238 188 c 128,-1,6
 266 188 266 188 281.5 197 c 128,-1,7
 297 206 297 206 297 221 c 0,8,9
 297 276 297 276 94 286 c 0,10,11
 59 288 59 288 59 500 c 128,-1,12
 59 712 59 712 92 712 c 2,13,-1
 534 712 l 2,14,15
 560 712 560 712 560 632 c 0,16,17
 560 584 560 584 550.5 526.5 c 128,-1,18
 541 469 541 469 518 469 c 2,19,-1
 238 469 l 1,20,-1
 238 424 l 1,21,22
 431 424 431 424 514 362 c 0,23,24
 581 311 581 311 581 212 c 128,-1,25
 581 113 581 113 507 52 c 128,-1,26
 433 -9 433 -9 270 -9 c 0,27,28
 164 -9 164 -9 97 15 c 128,-1,29
 30 39 30 39 30 67 c 0,0,1
EndSplineSet
EndChar

StartChar: six
Encoding: 54 54 25
Width: 662
GlyphClass: 2
Flags: W
LayerCount: 2
Fore
SplineSet
357 458 m 128,-1,1
 396 471 396 471 445.5 471 c 128,-1,2
 495 471 495 471 529.5 456.5 c 128,-1,3
 564 442 564 442 583.5 420 c 128,-1,4
 603 398 603 398 614 365 c 0,5,6
 632 311 632 311 632 255 c 128,-1,7
 632 199 632 199 627.5 170.5 c 128,-1,8
 623 142 623 142 605.5 107 c 128,-1,9
 588 72 588 72 558.5 48 c 128,-1,10
 529 24 529 24 474.5 7.5 c 128,-1,11
 420 -9 420 -9 347 -9 c 0,12,13
 190 -9 190 -9 110 77.5 c 128,-1,14
 30 164 30 164 30 357.5 c 128,-1,15
 30 551 30 551 105 636.5 c 128,-1,16
 180 722 180 722 333 722 c 0,17,18
 438 722 438 722 515.5 706.5 c 128,-1,19
 593 691 593 691 593 670 c 0,20,21
 593 644 593 644 573.5 579 c 128,-1,22
 554 514 554 514 538 514 c 0,23,24
 533 514 533 514 508 519 c 0,25,26
 440 533 440 533 384 533 c 128,-1,27
 328 533 328 533 312 505.5 c 128,-1,28
 296 478 296 478 296 425 c 1,29,30
 300 430 300 430 309 437.5 c 128,-1,0
 318 445 318 445 357 458 c 128,-1,1
331 347 m 0,31,32
 302 347 302 347 302 239.5 c 128,-1,33
 302 132 302 132 331 132 c 0,34,35
 362 132 362 132 362 239.5 c 128,-1,36
 362 347 362 347 331 347 c 0,31,32
EndSplineSet
EndChar

StartChar: seven
Encoding: 55 55 26
Width: 539
GlyphClass: 2
Flags: W
LayerCount: 2
Fore
SplineSet
327.5 6.5 m 128,-1,1
 264 0 264 0 202 0 c 128,-1,2
 140 0 140 0 123 5.5 c 128,-1,3
 106 11 106 11 106 24 c 0,4,5
 106 45 106 45 241 470 c 1,6,-1
 36 470 l 2,7,8
 22 470 22 470 14 518 c 0,9,10
 10 541 10 541 10 579 c 128,-1,11
 10 617 10 617 20.5 664.5 c 128,-1,12
 31 712 31 712 54 712 c 2,13,-1
 456 712 l 2,14,15
 505 712 505 712 518 690 c 0,16,17
 529 673 529 673 529 645.5 c 128,-1,18
 529 618 529 618 506 513 c 128,-1,19
 483 408 483 408 446.5 255 c 128,-1,20
 410 102 410 102 394 24 c 0,21,0
 391 13 391 13 327.5 6.5 c 128,-1,1
EndSplineSet
EndChar

StartChar: eight
Encoding: 56 56 27
Width: 659
GlyphClass: 2
Flags: W
LayerCount: 2
Fore
SplineSet
629 224 m 0,0,1
 629 -9 629 -9 329.5 -9 c 128,-1,2
 30 -9 30 -9 30 224 c 0,3,4
 30 329 30 329 78 382 c 1,5,6
 65 397 65 397 54 434.5 c 128,-1,7
 43 472 43 472 43 509 c 0,8,9
 43 624 43 624 116 672.5 c 128,-1,10
 189 721 189 721 329 721 c 128,-1,11
 469 721 469 721 542.5 672.5 c 128,-1,12
 616 624 616 624 616 509 c 0,13,14
 616 472 616 472 605 434.5 c 128,-1,15
 594 397 594 397 581 382 c 1,16,17
 629 329 629 329 629 224 c 0,0,1
305 151.5 m 128,-1,19
 313 136 313 136 329.5 136 c 128,-1,20
 346 136 346 136 353.5 151.5 c 128,-1,21
 361 167 361 167 361 217 c 128,-1,22
 361 267 361 267 353.5 283.5 c 128,-1,23
 346 300 346 300 329.5 300 c 128,-1,24
 313 300 313 300 305 283.5 c 128,-1,25
 297 267 297 267 297 217 c 128,-1,18
 297 167 297 167 305 151.5 c 128,-1,19
330 456 m 0,26,27
 361 456 361 456 361 515.5 c 128,-1,28
 361 575 361 575 330 575 c 0,29,30
 297 575 297 575 297 515.5 c 128,-1,31
 297 456 297 456 330 456 c 0,26,27
EndSplineSet
EndChar

StartChar: nine
Encoding: 57 57 28
Width: 662
GlyphClass: 2
Flags: W
LayerCount: 2
Fore
SplineSet
205 252 m 0,0,1
 119 252 119 252 74.5 314.5 c 128,-1,2
 30 377 30 377 30 479 c 0,3,4
 30 565 30 565 86 636 c 0,5,6
 116 675 116 675 175 698.5 c 128,-1,7
 234 722 234 722 315 722 c 0,8,9
 474 722 474 722 553 640 c 128,-1,10
 632 558 632 558 632 359 c 128,-1,11
 632 160 632 160 558 75.5 c 128,-1,12
 484 -9 484 -9 329 -9 c 0,13,14
 221 -9 221 -9 145 4.5 c 128,-1,15
 69 18 69 18 69 39 c 0,16,17
 69 64 69 64 88.5 129 c 128,-1,18
 108 194 108 194 124 194 c 0,19,20
 129 194 129 194 154 190 c 0,21,22
 227 180 227 180 280.5 180 c 128,-1,23
 334 180 334 180 350 208.5 c 128,-1,24
 366 237 366 237 366 284 c 1,25,26
 352 273 352 273 304.5 262.5 c 128,-1,27
 257 252 257 252 205 252 c 0,0,1
331 376 m 0,28,29
 360 376 360 376 360 478.5 c 128,-1,30
 360 581 360 581 331 581 c 0,31,32
 300 581 300 581 300 478.5 c 128,-1,33
 300 376 300 376 331 376 c 0,28,29
EndSplineSet
EndChar

StartChar: colon
Encoding: 58 58 29
Width: 293
GlyphClass: 2
Flags: W
LayerCount: 2
Fore
SplineSet
226 337.5 m 128,-1,1
 199 316 199 316 146.5 316 c 128,-1,2
 94 316 94 316 67 337.5 c 128,-1,3
 40 359 40 359 40 418.5 c 128,-1,4
 40 478 40 478 67.5 497.5 c 128,-1,5
 95 517 95 517 147 517 c 128,-1,6
 199 517 199 517 226 497.5 c 128,-1,7
 253 478 253 478 253 418.5 c 128,-1,0
 253 359 253 359 226 337.5 c 128,-1,1
226 13 m 128,-1,9
 199 -9 199 -9 146.5 -9 c 128,-1,10
 94 -9 94 -9 67 13 c 128,-1,11
 40 35 40 35 40 94 c 128,-1,12
 40 153 40 153 67.5 172.5 c 128,-1,13
 95 192 95 192 147 192 c 128,-1,14
 199 192 199 192 226 172.5 c 128,-1,15
 253 153 253 153 253 94 c 128,-1,8
 253 35 253 35 226 13 c 128,-1,9
EndSplineSet
EndChar

StartChar: semicolon
Encoding: 59 59 30
Width: 293
GlyphClass: 2
Flags: W
LayerCount: 2
Fore
SplineSet
226 337.5 m 128,-1,1
 199 316 199 316 146.5 316 c 128,-1,2
 94 316 94 316 67 337.5 c 128,-1,3
 40 359 40 359 40 418.5 c 128,-1,4
 40 478 40 478 67.5 497.5 c 128,-1,5
 95 517 95 517 147 517 c 128,-1,6
 199 517 199 517 226 497.5 c 128,-1,7
 253 478 253 478 253 418.5 c 128,-1,0
 253 359 253 359 226 337.5 c 128,-1,1
61 166.5 m 128,-1,9
 82 191 82 191 146 191 c 128,-1,10
 210 191 210 191 231.5 166 c 128,-1,11
 253 141 253 141 253 90 c 0,12,13
 253 -153 253 -153 89 -153 c 0,14,15
 74 -153 74 -153 59.5 -117 c 128,-1,16
 45 -81 45 -81 45 -60 c 128,-1,17
 45 -39 45 -39 52 -39 c 0,18,19
 78 -39 78 -39 94 -21 c 0,20,21
 104 -10 104 -10 104 0 c 1,22,23
 82 2 82 2 62 20 c 0,24,25
 53 29 53 29 46.5 48.5 c 128,-1,26
 40 68 40 68 40 105 c 128,-1,8
 40 142 40 142 61 166.5 c 128,-1,9
EndSplineSet
EndChar

StartChar: less
Encoding: 60 60 31
Width: 362
GlyphClass: 2
Flags: W
LayerCount: 2
Fore
SplineSet
215 288 m 1,0,1
 332 48 332 48 332 24 c 128,-1,2
 332 0 332 0 280 0 c 0,3,4
 197 0 197 0 168.5 9 c 128,-1,5
 140 18 140 18 126 39.5 c 128,-1,6
 112 61 112 61 63.5 163.5 c 128,-1,7
 15 266 15 266 15 284 c 128,-1,8
 15 302 15 302 39.5 354 c 128,-1,9
 64 406 64 406 94.5 464.5 c 128,-1,10
 125 523 125 523 129 532.5 c 128,-1,11
 133 542 133 542 144.5 552.5 c 128,-1,12
 156 563 156 563 190 571.5 c 128,-1,13
 224 580 224 580 278 580 c 128,-1,14
 332 580 332 580 332 545 c 0,15,16
 332 524 332 524 215 288 c 1,0,1
EndSplineSet
EndChar

StartChar: equal
Encoding: 61 61 32
Width: 553
GlyphClass: 2
Flags: W
LayerCount: 2
Fore
SplineSet
462 317 m 2,0,-1
 57 317 l 2,1,2
 46 317 46 317 38 335.5 c 128,-1,3
 30 354 30 354 30 388.5 c 128,-1,4
 30 423 30 423 52 458.5 c 128,-1,5
 74 494 74 494 95 494 c 2,6,-1
 497 494 l 2,7,8
 523 494 523 494 523 429 c 0,9,10
 523 396 523 396 502 356.5 c 128,-1,11
 481 317 481 317 462 317 c 2,0,-1
462 74 m 2,12,-1
 57 74 l 2,13,14
 46 74 46 74 38 92.5 c 128,-1,15
 30 111 30 111 30 145.5 c 128,-1,16
 30 180 30 180 52 215.5 c 128,-1,17
 74 251 74 251 95 251 c 2,18,-1
 497 251 l 2,19,20
 523 251 523 251 523 186 c 0,21,22
 523 153 523 153 502 113.5 c 128,-1,23
 481 74 481 74 462 74 c 2,12,-1
EndSplineSet
EndChar

StartChar: greater
Encoding: 62 62 33
Width: 362
GlyphClass: 2
Flags: W
LayerCount: 2
Fore
SplineSet
30 545 m 0,0,1
 30 580 30 580 152 580 c 0,2,3
 212 580 212 580 236 526 c 0,4,5
 237 523 237 523 268 464 c 0,6,7
 347 312 347 312 347 289 c 128,-1,8
 347 266 347 266 298.5 163.5 c 128,-1,9
 250 61 250 61 236.5 40 c 128,-1,10
 223 19 223 19 205 9.5 c 128,-1,11
 187 0 187 0 142.5 0 c 128,-1,12
 98 0 98 0 70 3.5 c 128,-1,13
 42 7 42 7 36 12 c 128,-1,14
 30 17 30 17 30 26 c 128,-1,15
 30 35 30 35 59 101 c 128,-1,16
 88 167 88 167 147 288 c 1,17,18
 30 523 30 523 30 545 c 0,0,1
EndSplineSet
EndChar

StartChar: question
Encoding: 63 63 34
Width: 599
GlyphClass: 2
Flags: W
LayerCount: 2
Fore
SplineSet
89 441 m 0,0,1
 61 441 61 441 40.5 507.5 c 128,-1,2
 20 574 20 574 20 635 c 0,3,4
 20 649 20 649 51 666.5 c 128,-1,5
 82 684 82 684 145 697.5 c 128,-1,6
 208 711 208 711 282 711 c 0,7,8
 569 711 569 711 569 511 c 0,9,10
 569 454 569 454 545.5 412.5 c 128,-1,11
 522 371 522 371 489 352 c 0,12,13
 422 315 422 315 366 314 c 1,14,-1
 343 313 l 1,15,16
 343 302 343 302 348 278 c 128,-1,17
 353 254 353 254 353 236 c 0,18,19
 353 220 353 220 298.5 211.5 c 128,-1,20
 244 203 244 203 204 203 c 0,21,22
 143 203 143 203 128.5 233 c 128,-1,23
 114 263 114 263 114 360 c 0,24,25
 114 383 114 383 200 394 c 0,26,27
 232 399 232 399 258.5 415 c 128,-1,28
 285 431 285 431 285 459 c 128,-1,29
 285 487 285 487 240 487 c 128,-1,30
 195 487 195 487 145.5 464 c 128,-1,31
 96 441 96 441 89 441 c 0,0,1
246 169 m 0,32,33
 314 169 314 169 350 151.5 c 128,-1,34
 386 134 386 134 386 79 c 0,35,36
 386 -11 386 -11 246 -11 c 128,-1,37
 106 -11 106 -11 106 79 c 128,-1,38
 106 169 106 169 246 169 c 0,32,33
EndSplineSet
EndChar

StartChar: at
Encoding: 64 64 35
Width: 786
GlyphClass: 2
Flags: W
LayerCount: 2
Fore
SplineSet
431 235 m 1,0,-1
 427 235 l 1,1,2
 412 182 412 182 347 182 c 0,3,4
 214 182 214 182 214 286 c 0,5,6
 214 319 214 319 232.5 342 c 128,-1,7
 251 365 251 365 280 376 c 1,8,9
 330 393 330 393 385 393 c 2,10,-1
 404 393 l 1,11,12
 404 407 404 407 395.5 419 c 128,-1,13
 387 431 387 431 366.5 431 c 128,-1,14
 346 431 346 431 314.5 417 c 128,-1,15
 283 403 283 403 281 403 c 0,16,17
 271 403 271 403 253 434.5 c 128,-1,18
 235 466 235 466 235 489 c 0,19,20
 235 509 235 509 304 522 c 0,21,22
 343 530 343 530 393.5 530 c 128,-1,23
 444 530 444 530 477 518.5 c 128,-1,24
 510 507 510 507 526 492 c 128,-1,25
 542 477 542 477 551 452.5 c 128,-1,26
 560 428 560 428 561 413.5 c 128,-1,27
 562 399 562 399 562 377 c 2,28,-1
 562 267 l 1,29,-1
 594 267 l 2,30,31
 623 267 623 267 632.5 291.5 c 128,-1,32
 642 316 642 316 642 370 c 128,-1,33
 642 424 642 424 632.5 465 c 128,-1,34
 623 506 623 506 598 542 c 0,35,36
 549 613 549 613 395 613 c 0,37,38
 240 613 240 613 191 544 c 0,39,40
 166 508 166 508 157.5 467 c 128,-1,41
 149 426 149 426 149 369.5 c 128,-1,42
 149 313 149 313 152 282 c 128,-1,43
 155 251 155 251 168.5 212 c 128,-1,44
 182 173 182 173 207 151 c 128,-1,45
 232 129 232 129 280 113.5 c 128,-1,46
 328 98 328 98 396 98 c 0,47,48
 407 98 407 98 417 73.5 c 128,-1,49
 427 49 427 49 427 27 c 0,50,51
 427 -10 427 -10 396 -10 c 0,52,53
 255 -10 255 -10 182 32 c 0,54,55
 114 70 114 70 80 142 c 0,56,57
 40 226 40 226 40 359 c 0,58,59
 40 454 40 454 61.5 522.5 c 128,-1,60
 83 591 83 591 115 628.5 c 128,-1,61
 147 666 147 666 197.5 687.5 c 128,-1,62
 248 709 248 709 292.5 714.5 c 128,-1,63
 337 720 337 720 397 720 c 0,64,65
 574 720 574 720 660 636.5 c 128,-1,66
 746 553 746 553 746 404 c 0,67,68
 746 242 746 242 662 204 c 0,69,70
 634 191 634 191 612.5 188.5 c 128,-1,71
 591 186 591 186 559 186 c 0,72,73
 431 186 431 186 431 235 c 1,0,-1
405 279 m 2,74,-1
 405 347 l 1,75,76
 390 347 390 347 380.5 334 c 128,-1,77
 371 321 371 321 371 305 c 0,78,79
 371 267 371 267 388 267 c 128,-1,80
 405 267 405 267 405 279 c 2,74,-1
EndSplineSet
EndChar

StartChar: A
Encoding: 65 65 36
Width: 738
GlyphClass: 2
Flags: W
LayerCount: 2
Fore
SplineSet
285.5 11 m 128,-1,1
 257 0 257 0 183 0 c 128,-1,2
 109 0 109 0 59.5 13.5 c 128,-1,3
 10 27 10 27 10 48 c 0,4,5
 10 72 10 72 99 354.5 c 128,-1,6
 188 637 188 637 201 680 c 1,7,8
 206 693 206 693 281.5 701.5 c 128,-1,9
 357 710 357 710 443.5 710 c 128,-1,10
 530 710 530 710 539 680 c 0,11,12
 728 52 728 52 728 42 c 128,-1,13
 728 32 728 32 716 22 c 0,14,15
 688 0 688 0 605 0 c 0,16,17
 428 0 428 0 424 42 c 2,18,-1
 417 107 l 1,19,-1
 321 107 l 1,20,-1
 316 51 l 2,21,0
 314 22 314 22 285.5 11 c 128,-1,1
396 297 m 1,22,-1
 381 477 l 1,23,-1
 359 477 l 1,24,-1
 342 297 l 1,25,-1
 396 297 l 1,22,-1
EndSplineSet
EndChar

StartChar: B
Encoding: 66 66 37
Width: 705
GlyphClass: 2
Flags: W
LayerCount: 2
Fore
SplineSet
343 0 m 2,0,-1
 124 0 l 2,1,2
 74 0 74 0 57 7 c 128,-1,3
 40 14 40 14 40 29 c 2,4,-1
 40 672 l 2,5,6
 40 720 40 720 329 720 c 0,7,8
 495 720 495 720 558 688 c 0,9,10
 622 655 622 655 640 604 c 0,11,12
 650 574 650 574 650 534 c 0,13,14
 650 456 650 456 623.5 417 c 128,-1,15
 597 378 597 378 566 373 c 1,16,17
 613 363 613 363 644 327 c 128,-1,18
 675 291 675 291 675 205 c 0,19,20
 675 105 675 105 614 57 c 0,21,22
 561 15 561 15 452 4 c 0,23,24
 406 0 406 0 343 0 c 2,0,-1
344 436 m 2,25,26
 395 436 395 436 395 504 c 0,27,28
 395 538 395 538 381.5 554.5 c 128,-1,29
 368 571 368 571 351 571 c 2,30,-1
 319 571 l 1,31,-1
 319 436 l 1,32,-1
 344 436 l 2,25,26
319 149 m 1,33,-1
 344 149 l 2,34,35
 395 149 395 149 395 217 c 0,36,37
 395 251 395 251 381.5 267.5 c 128,-1,38
 368 284 368 284 351 284 c 2,39,-1
 319 284 l 1,40,-1
 319 149 l 1,33,-1
EndSplineSet
EndChar

StartChar: C
Encoding: 67 67 38
Width: 656
GlyphClass: 2
Flags: W
LayerCount: 2
Fore
SplineSet
459.5 -5.5 m 128,-1,1
 418 -9 418 -9 378.5 -9 c 128,-1,2
 339 -9 339 -9 317.5 -7 c 128,-1,3
 296 -5 296 -5 261 3 c 128,-1,4
 226 11 226 11 197 25 c 128,-1,5
 168 39 168 39 135.5 66 c 128,-1,6
 103 93 103 93 81 130 c 0,7,8
 30 216 30 216 30 352 c 0,9,10
 30 443 30 443 58.5 513 c 128,-1,11
 87 583 87 583 127.5 621 c 128,-1,12
 168 659 168 659 220 682 c 0,13,14
 304 720 304 720 389 720 c 0,15,16
 511 720 511 720 564 700 c 0,17,18
 588 691 588 691 607 672 c 128,-1,19
 626 653 626 653 626 617 c 128,-1,20
 626 581 626 581 608.5 526 c 128,-1,21
 591 471 591 471 558 471 c 0,22,23
 548 471 548 471 484 487 c 128,-1,24
 420 503 420 503 397 503 c 0,25,26
 362 503 362 503 337.5 464 c 128,-1,27
 313 425 313 425 313 353 c 128,-1,28
 313 281 313 281 334.5 241 c 128,-1,29
 356 201 356 201 391 201 c 0,30,31
 416 201 416 201 481.5 221.5 c 128,-1,32
 547 242 547 242 558 242 c 0,33,34
 589 242 589 242 606.5 185 c 128,-1,35
 624 128 624 128 624 93 c 128,-1,36
 624 58 624 58 602.5 37.5 c 128,-1,37
 581 17 581 17 541 7.5 c 128,-1,0
 501 -2 501 -2 459.5 -5.5 c 128,-1,1
EndSplineSet
EndChar

StartChar: D
Encoding: 68 68 39
Width: 731
GlyphClass: 2
Flags: W
LayerCount: 2
Fore
SplineSet
359 0 m 2,0,-1
 123 0 l 2,1,2
 74 0 74 0 57 7 c 128,-1,3
 40 14 40 14 40 30 c 2,4,-1
 40 661 l 2,5,6
 40 687 40 687 62 698.5 c 128,-1,7
 84 710 84 710 138 710 c 2,8,-1
 363 710 l 2,9,10
 555 710 555 710 628 634.5 c 128,-1,11
 701 559 701 559 701 360 c 128,-1,12
 701 161 701 161 625 80.5 c 128,-1,13
 549 0 549 0 359 0 c 2,0,-1
351 561 m 0,14,15
 327 561 327 561 319 557 c 1,16,-1
 319 153 l 1,17,-1
 357 149 l 1,18,19
 387 149 387 149 402.5 197 c 128,-1,20
 418 245 418 245 418 363 c 128,-1,21
 418 481 418 481 402 521 c 128,-1,22
 386 561 386 561 351 561 c 0,14,15
EndSplineSet
EndChar

StartChar: E
Encoding: 69 69 40
Width: 610
GlyphClass: 2
Flags: W
LayerCount: 2
Fore
SplineSet
547 0 m 2,0,-1
 123 0 l 2,1,2
 74 0 74 0 57 7 c 128,-1,3
 40 14 40 14 40 29 c 2,4,-1
 40 662 l 2,5,6
 40 688 40 688 63.5 699 c 128,-1,7
 87 710 87 710 148 710 c 2,8,-1
 550 710 l 2,9,10
 571 710 571 710 571 640.5 c 128,-1,11
 571 571 571 571 562 534.5 c 128,-1,12
 553 498 553 498 538 498 c 0,13,14
 473 498 473 498 319 511 c 1,15,-1
 319 444 l 1,16,17
 467 450 467 450 512 450 c 0,18,19
 539 450 539 450 539 387 c 128,-1,20
 539 324 539 324 528.5 291.5 c 128,-1,21
 518 259 518 259 500 259 c 2,22,-1
 319 263 l 1,23,-1
 319 199 l 1,24,25
 493 212 493 212 559 212 c 0,26,27
 580 212 580 212 580 142 c 128,-1,28
 580 72 580 72 571 36 c 128,-1,29
 562 0 562 0 547 0 c 2,0,-1
EndSplineSet
EndChar

StartChar: F
Encoding: 70 70 41
Width: 586
GlyphClass: 2
Flags: W
LayerCount: 2
Fore
SplineSet
254.5 7 m 128,-1,1
 190 0 190 0 132 0 c 128,-1,2
 74 0 74 0 57 7 c 128,-1,3
 40 14 40 14 40 29 c 2,4,-1
 40 663 l 2,5,6
 40 689 40 689 66 700 c 128,-1,7
 92 711 92 711 164 711 c 2,8,-1
 535 711 l 2,9,10
 556 711 556 711 556 635.5 c 128,-1,11
 556 560 556 560 546.5 520.5 c 128,-1,12
 537 481 537 481 522 481 c 2,13,-1
 319 491 l 1,14,-1
 319 423 l 1,15,16
 452 429 452 429 497 429 c 0,17,18
 512 429 512 429 517.5 413 c 128,-1,19
 523 397 523 397 523 351.5 c 128,-1,20
 523 306 523 306 513 264.5 c 128,-1,21
 503 223 503 223 485 223 c 2,22,-1
 319 229 l 1,23,-1
 319 29 l 2,24,0
 319 14 319 14 254.5 7 c 128,-1,1
EndSplineSet
EndChar

StartChar: G
Encoding: 71 71 42
Width: 674
GlyphClass: 2
Flags: W
LayerCount: 2
Fore
SplineSet
257 -8 m 0,0,1
 223 -8 223 -8 194 -1 c 128,-1,2
 165 6 165 6 133.5 28.5 c 128,-1,3
 102 51 102 51 80 88 c 0,4,5
 30 172 30 172 30 341 c 0,6,7
 30 434 30 434 55 505 c 128,-1,8
 80 576 80 576 118 615.5 c 128,-1,9
 156 655 156 655 209 680 c 128,-1,10
 262 705 262 705 308 712.5 c 128,-1,11
 354 720 354 720 406 720 c 0,12,13
 526 720 526 720 575 699.5 c 128,-1,14
 624 679 624 679 624 621 c 0,15,16
 624 575 624 575 607 521.5 c 128,-1,17
 590 468 590 468 557 468 c 0,18,19
 549 468 549 468 489 483.5 c 128,-1,20
 429 499 429 499 399 499 c 0,21,22
 313 499 313 499 313 354 c 0,23,24
 313 281 313 281 333 245.5 c 128,-1,25
 353 210 353 210 383 206 c 1,26,-1
 383 296 l 2,27,28
 383 321 383 321 434 342 c 128,-1,29
 485 363 485 363 532 363 c 128,-1,30
 579 363 579 363 600.5 357 c 128,-1,31
 622 351 622 351 630 340 c 0,32,33
 644 322 644 322 644 308 c 2,34,-1
 644 31 l 2,35,36
 644 18 644 18 591.5 10 c 128,-1,37
 539 2 539 2 482.5 2 c 128,-1,38
 426 2 426 2 411 7.5 c 128,-1,39
 396 13 396 13 394 38 c 2,40,-1
 387 97 l 1,41,-1
 379 97 l 1,42,43
 372 54 372 54 343.5 23 c 128,-1,44
 315 -8 315 -8 257 -8 c 0,0,1
EndSplineSet
EndChar

StartChar: H
Encoding: 72 72 43
Width: 727
GlyphClass: 2
Flags: W
LayerCount: 2
Fore
SplineSet
258.5 8 m 128,-1,1
 198 0 198 0 136.5 0 c 128,-1,2
 75 0 75 0 57.5 7 c 128,-1,3
 40 14 40 14 40 29 c 2,4,-1
 40 644 l 2,5,6
 40 669 40 669 98 689.5 c 128,-1,7
 156 710 156 710 224 710 c 0,8,9
 319 710 319 710 319 665 c 2,10,-1
 319 445 l 1,11,-1
 408 445 l 1,12,-1
 408 644 l 2,13,14
 408 669 408 669 466.5 689.5 c 128,-1,15
 525 710 525 710 593 710 c 0,16,17
 687 710 687 710 687 665 c 2,18,-1
 687 29 l 2,19,20
 687 16 687 16 626 8 c 128,-1,21
 565 0 565 0 504 0 c 128,-1,22
 443 0 443 0 425.5 7 c 128,-1,23
 408 14 408 14 408 29 c 2,24,-1
 408 258 l 1,25,-1
 319 258 l 1,26,-1
 319 29 l 2,27,0
 319 16 319 16 258.5 8 c 128,-1,1
EndSplineSet
EndChar

StartChar: I
Encoding: 73 73 44
Width: 359
GlyphClass: 2
Flags: W
LayerCount: 2
Fore
SplineSet
258 6.5 m 128,-1,1
 197 0 197 0 135.5 0 c 128,-1,2
 74 0 74 0 57 5.5 c 128,-1,3
 40 11 40 11 40 24 c 2,4,-1
 40 646 l 2,5,6
 40 668 40 668 98 689.5 c 128,-1,7
 156 711 156 711 228 711 c 0,8,9
 292 711 292 711 312 684 c 0,10,11
 319 674 319 674 319 664 c 2,12,-1
 319 24 l 2,13,0
 319 13 319 13 258 6.5 c 128,-1,1
EndSplineSet
EndChar

StartChar: J
Encoding: 74 74 45
Width: 410
GlyphClass: 2
Flags: W
LayerCount: 2
Fore
SplineSet
281.5 -121.5 m 128,-1,1
 244 -135 244 -135 196.5 -135 c 128,-1,2
 149 -135 149 -135 127 -133.5 c 128,-1,3
 105 -132 105 -132 80.5 -125.5 c 128,-1,4
 56 -119 56 -119 42 -108 c 0,5,6
 10 -81 10 -81 10 -24 c 0,7,8
 10 58 10 58 52 58 c 0,9,10
 65 58 65 58 72 62 c 0,11,12
 91 71 91 71 91 124 c 2,13,-1
 91 645 l 2,14,15
 91 667 91 667 148.5 688.5 c 128,-1,16
 206 710 206 710 271 710 c 0,17,18
 370 710 370 710 370 663 c 2,19,-1
 370 110 l 2,20,21
 370 41 370 41 364 0 c 128,-1,22
 358 -41 358 -41 338.5 -74.5 c 128,-1,0
 319 -108 319 -108 281.5 -121.5 c 128,-1,1
EndSplineSet
EndChar

StartChar: K
Encoding: 75 75 46
Width: 709
GlyphClass: 2
Flags: W
LayerCount: 2
Fore
SplineSet
257.5 10 m 128,-1,1
 196 2 196 2 135 2 c 128,-1,2
 74 2 74 2 57 9 c 128,-1,3
 40 16 40 16 40 31 c 2,4,-1
 40 644 l 2,5,6
 40 670 40 670 96.5 690 c 128,-1,7
 153 710 153 710 227 710 c 0,8,9
 288 710 288 710 306 686 c 0,10,11
 319 669 319 669 319 655 c 2,12,-1
 319 490 l 1,13,-1
 327 490 l 1,14,15
 327 495 327 495 357 573 c 0,16,17
 414 720 414 720 440 720 c 0,18,19
 489 720 489 720 578 691 c 0,20,21
 621 677 621 677 652 650.5 c 128,-1,22
 683 624 683 624 683 592 c 0,23,24
 683 572 683 572 642.5 514.5 c 128,-1,25
 602 457 602 457 520 361 c 1,26,27
 539 341 539 341 568 310 c 128,-1,28
 597 279 597 279 645.5 217.5 c 128,-1,29
 694 156 694 156 694 130 c 128,-1,30
 694 104 694 104 647 69.5 c 128,-1,31
 600 35 600 35 547 13.5 c 128,-1,32
 494 -8 494 -8 468 -8 c 0,33,34
 451 -8 451 -8 421.5 43.5 c 128,-1,35
 392 95 392 95 350 198 c 1,36,-1
 319 161 l 1,37,-1
 319 31 l 2,38,0
 319 18 319 18 257.5 10 c 128,-1,1
EndSplineSet
EndChar

StartChar: L
Encoding: 76 76 47
Width: 544
GlyphClass: 2
Flags: W
LayerCount: 2
Fore
SplineSet
124 0 m 2,0,1
 74 0 74 0 57 5.5 c 128,-1,2
 40 11 40 11 40 24 c 2,3,-1
 40 646 l 2,4,5
 40 668 40 668 98 689.5 c 128,-1,6
 156 711 156 711 228 711 c 0,7,8
 292 711 292 711 312 684 c 0,9,10
 319 674 319 674 319 664 c 2,11,-1
 319 221 l 1,12,13
 441 229 441 229 503 229 c 0,14,15
 524 229 524 229 524 162.5 c 128,-1,16
 524 96 524 96 515 48 c 128,-1,17
 506 0 506 0 491 0 c 2,18,-1
 124 0 l 2,0,1
EndSplineSet
EndChar

StartChar: M
Encoding: 77 77 48
Width: 880
GlyphClass: 2
Flags: W
LayerCount: 2
Fore
SplineSet
194 0 m 0,0,1
 169 0 169 0 121.5 0 c 128,-1,2
 74 0 74 0 57 7 c 128,-1,3
 40 14 40 14 40 29 c 2,4,-1
 40 660 l 2,5,6
 40 683 40 683 101.5 696.5 c 128,-1,7
 163 710 163 710 233 710 c 128,-1,8
 303 710 303 710 333 692 c 128,-1,9
 363 674 363 674 368 654 c 2,10,-1
 436 390 l 1,11,-1
 445 390 l 1,12,-1
 509 642 l 2,13,14
 516 669 516 669 574.5 689.5 c 128,-1,15
 633 710 633 710 703 710 c 128,-1,16
 773 710 773 710 806.5 699 c 128,-1,17
 840 688 840 688 840 671 c 2,18,-1
 840 29 l 2,19,20
 840 16 840 16 783 8 c 128,-1,21
 726 0 726 0 644 0 c 128,-1,22
 562 0 562 0 562 29 c 0,23,24
 562 108 562 108 579 310 c 1,25,-1
 570 310 l 1,26,-1
 518 49 l 2,27,28
 515 34 515 34 493.5 27 c 128,-1,29
 472 20 472 20 429 20 c 128,-1,30
 386 20 386 20 376.5 26 c 128,-1,31
 367 32 367 32 364 49 c 2,32,-1
 310 310 l 1,33,-1
 301 310 l 1,34,35
 319 104 319 104 319 29 c 0,36,37
 319 3 319 3 194 0 c 0,0,1
EndSplineSet
EndChar

StartChar: N
Encoding: 78 78 49
Width: 734
GlyphClass: 2
Flags: W
LayerCount: 2
Fore
SplineSet
257.5 8 m 128,-1,1
 196 0 196 0 135 0 c 128,-1,2
 74 0 74 0 57 7 c 128,-1,3
 40 14 40 14 40 29 c 2,4,-1
 40 643 l 2,5,6
 40 668 40 668 97.5 689 c 128,-1,7
 155 710 155 710 228 710 c 0,8,9
 254 710 254 710 267 708 c 0,10,11
 301 703 301 703 315 665 c 2,12,-1
 411 407 l 1,13,-1
 415 407 l 1,14,-1
 415 643 l 2,15,16
 415 668 415 668 472 689 c 128,-1,17
 529 710 529 710 602 710 c 0,18,19
 665 710 665 710 682 686 c 0,20,21
 694 669 694 669 694 655 c 2,22,-1
 694 29 l 2,23,24
 694 16 694 16 632.5 8 c 128,-1,25
 571 0 571 0 497.5 0 c 128,-1,26
 424 0 424 0 417 19 c 2,27,-1
 324 265 l 1,28,-1
 319 265 l 1,29,-1
 319 29 l 2,30,0
 319 16 319 16 257.5 8 c 128,-1,1
EndSplineSet
EndChar

StartChar: O
Encoding: 79 79 50
Width: 756
GlyphClass: 2
Flags: W
LayerCount: 2
Fore
SplineSet
378 -9 m 0,0,1
 295 -9 295 -9 235.5 6.5 c 128,-1,2
 176 22 176 22 126 62 c 0,3,4
 25 141 25 141 25 365 c 0,5,6
 25 459 25 459 52.5 529 c 128,-1,7
 80 599 80 599 129 640 c 0,8,9
 225 720 225 720 378 720 c 0,10,11
 457 720 457 720 515.5 706 c 128,-1,12
 574 692 574 692 626 655 c 0,13,14
 731 579 731 579 731 365 c 0,15,16
 731 173 731 173 636 82 c 128,-1,17
 541 -9 541 -9 378 -9 c 0,0,1
378 148 m 128,-1,19
 399 148 399 148 411 162.5 c 128,-1,20
 423 177 423 177 431 224.5 c 128,-1,21
 439 272 439 272 439 357 c 128,-1,22
 439 442 439 442 431 488 c 128,-1,23
 423 534 423 534 411 548 c 128,-1,24
 399 562 399 562 378 562 c 128,-1,25
 357 562 357 562 345 548 c 128,-1,26
 333 534 333 534 325 488 c 128,-1,27
 317 442 317 442 317 357 c 128,-1,28
 317 272 317 272 325 224.5 c 128,-1,29
 333 177 333 177 345 162.5 c 128,-1,18
 357 148 357 148 378 148 c 128,-1,19
EndSplineSet
EndChar

StartChar: P
Encoding: 80 80 51
Width: 707
GlyphClass: 2
Flags: W
LayerCount: 2
Fore
SplineSet
318 29 m 2,0,1
 318 16 318 16 257 8 c 128,-1,2
 196 0 196 0 135 0 c 128,-1,3
 74 0 74 0 57 7 c 128,-1,4
 40 14 40 14 40 29 c 2,5,-1
 40 672 l 2,6,7
 40 720 40 720 328 720 c 0,8,9
 502 720 502 720 558 696 c 0,10,11
 626 668 626 668 650 620 c 0,12,13
 682 558 682 558 682 461 c 0,14,15
 682 328 682 328 636 268 c 0,16,17
 603 224 603 224 570 211 c 128,-1,18
 537 198 537 198 515.5 192.5 c 128,-1,19
 494 187 494 187 462 184 c 0,20,21
 418 180 418 180 342 180 c 1,22,-1
 318 181 l 1,23,-1
 318 29 l 2,0,1
319 347 m 1,24,-1
 343 347 l 2,25,26
 362 347 362 347 373 352.5 c 128,-1,27
 384 358 384 358 392.5 382.5 c 128,-1,28
 401 407 401 407 401 451.5 c 128,-1,29
 401 496 401 496 391.5 519.5 c 128,-1,30
 382 543 382 543 372.5 547.5 c 128,-1,31
 363 552 363 552 350 552 c 2,32,-1
 319 552 l 1,33,-1
 319 347 l 1,24,-1
EndSplineSet
EndChar

StartChar: Q
Encoding: 81 81 52
Width: 746
GlyphClass: 2
Flags: W
LayerCount: 2
Fore
SplineSet
20 373 m 0,0,1
 20 465 20 465 47.5 533 c 128,-1,2
 75 601 75 601 124 641 c 0,3,4
 221 720 221 720 373 720 c 0,5,6
 436 720 436 720 484.5 712 c 128,-1,7
 533 704 533 704 580.5 681.5 c 128,-1,8
 628 659 628 659 658 622 c 0,9,10
 726 539 726 539 726 386 c 128,-1,11
 726 233 726 233 681 144.5 c 128,-1,12
 636 56 636 56 555 24 c 1,13,14
 600 -50 600 -50 600 -62 c 0,15,16
 600 -84 600 -84 578 -99.5 c 128,-1,17
 556 -115 556 -115 522 -122 c 0,18,19
 459 -135 459 -135 416 -135 c 128,-1,20
 373 -135 373 -135 356.5 -126.5 c 128,-1,21
 340 -118 340 -118 329 -92 c 1,22,-1
 286 0 l 1,23,24
 164 0 164 0 92 90.5 c 128,-1,25
 20 181 20 181 20 373 c 0,0,1
373 148 m 128,-1,27
 404 148 404 148 419 195.5 c 128,-1,28
 434 243 434 243 434 345.5 c 128,-1,29
 434 448 434 448 426 492.5 c 128,-1,30
 418 537 418 537 406 549.5 c 128,-1,31
 394 562 394 562 373 562 c 128,-1,32
 352 562 352 562 340 550 c 0,33,34
 312 520 312 520 312 381.5 c 128,-1,35
 312 243 312 243 327 195.5 c 128,-1,26
 342 148 342 148 373 148 c 128,-1,27
EndSplineSet
EndChar

StartChar: R
Encoding: 82 82 53
Width: 716
GlyphClass: 2
Flags: W
LayerCount: 2
Fore
SplineSet
320 29 m 2,0,1
 320 16 320 16 259 8 c 128,-1,2
 198 0 198 0 136.5 0 c 128,-1,3
 75 0 75 0 57.5 7 c 128,-1,4
 40 14 40 14 40 29 c 2,5,-1
 40 672 l 2,6,7
 40 698 40 698 105.5 709 c 128,-1,8
 171 720 171 720 271 720 c 128,-1,9
 371 720 371 720 400.5 719.5 c 128,-1,10
 430 719 430 719 470 716 c 128,-1,11
 510 713 510 713 533.5 706 c 128,-1,12
 557 699 557 699 585.5 688 c 128,-1,13
 614 677 614 677 630 659.5 c 128,-1,14
 646 642 646 642 661 618 c 0,15,16
 688 575 688 575 688 495.5 c 128,-1,17
 688 416 688 416 661.5 361.5 c 128,-1,18
 635 307 635 307 591 279 c 1,19,20
 706 98 706 98 706 49 c 128,-1,21
 706 0 706 0 509 0 c 0,22,23
 452 0 452 0 430 5 c 128,-1,24
 408 10 408 10 402 27 c 2,25,-1
 337 233 l 1,26,-1
 320 234 l 1,27,-1
 320 29 l 2,0,1
320 388 m 1,28,-1
 346 388 l 2,29,30
 404 388 404 388 404 478 c 0,31,32
 404 524 404 524 388.5 543 c 128,-1,33
 373 562 373 562 353 562 c 2,34,-1
 320 562 l 1,35,-1
 320 388 l 1,28,-1
EndSplineSet
EndChar

StartChar: S
Encoding: 83 83 54
Width: 654
GlyphClass: 2
Flags: W
LayerCount: 2
Fore
SplineSet
465.5 5.5 m 128,-1,1
 412 -9 412 -9 327.5 -9 c 128,-1,2
 243 -9 243 -9 167 5 c 128,-1,3
 91 19 91 19 58 36 c 128,-1,4
 25 53 25 53 25 69 c 0,5,6
 25 125 25 125 41 185.5 c 128,-1,7
 57 246 57 246 79 246 c 0,8,9
 83 246 83 246 162 219 c 128,-1,10
 241 192 241 192 281 192 c 128,-1,11
 321 192 321 192 333 200.5 c 128,-1,12
 345 209 345 209 345 225 c 128,-1,13
 345 241 345 241 323 253.5 c 128,-1,14
 301 266 301 266 268 275.5 c 128,-1,15
 235 285 235 285 196.5 303 c 128,-1,16
 158 321 158 321 125 343 c 128,-1,17
 92 365 92 365 70 405.5 c 128,-1,18
 48 446 48 446 48 498 c 0,19,20
 48 720 48 720 313 720 c 0,21,22
 412 720 412 720 484 707.5 c 128,-1,23
 556 695 556 695 585.5 679.5 c 128,-1,24
 615 664 615 664 615 649 c 0,25,26
 615 597 615 597 590.5 537 c 128,-1,27
 566 477 566 477 543 477 c 0,28,29
 539 477 539 477 517 486 c 0,30,31
 451 515 451 515 407.5 515 c 128,-1,32
 364 515 364 515 348.5 507 c 128,-1,33
 333 499 333 499 333 482.5 c 128,-1,34
 333 466 333 466 355 455.5 c 128,-1,35
 377 445 377 445 409.5 436.5 c 128,-1,36
 442 428 442 428 480.5 410.5 c 128,-1,37
 519 393 519 393 552 369.5 c 128,-1,38
 585 346 585 346 607 303 c 128,-1,39
 629 260 629 260 629 203 c 0,40,41
 629 143 629 143 598 94 c 0,42,43
 579 64 579 64 549 42 c 128,-1,0
 519 20 519 20 465.5 5.5 c 128,-1,1
EndSplineSet
EndChar

StartChar: T
Encoding: 84 84 55
Width: 651
GlyphClass: 2
Flags: W
LayerCount: 2
Fore
SplineSet
403.5 6.5 m 128,-1,1
 342 0 342 0 280.5 0 c 128,-1,2
 219 0 219 0 202.5 5.5 c 128,-1,3
 186 11 186 11 186 24 c 2,4,-1
 186 454 l 1,5,-1
 47 454 l 2,6,7
 36 454 36 454 28 482 c 128,-1,8
 20 510 20 510 20 565.5 c 128,-1,9
 20 621 20 621 32 665.5 c 128,-1,10
 44 710 44 710 64 710 c 2,11,-1
 605 710 l 2,12,13
 620 710 620 710 625.5 682 c 128,-1,14
 631 654 631 654 631 601 c 128,-1,15
 631 548 631 548 620 501 c 128,-1,16
 609 454 609 454 590 454 c 2,17,-1
 465 454 l 1,18,-1
 465 24 l 2,19,0
 465 13 465 13 403.5 6.5 c 128,-1,1
EndSplineSet
EndChar

StartChar: U
Encoding: 85 85 56
Width: 726
GlyphClass: 2
Flags: W
LayerCount: 2
Fore
SplineSet
603.5 63.5 m 128,-1,1
 521 -8 521 -8 364.5 -8 c 128,-1,2
 208 -8 208 -8 124 63.5 c 128,-1,3
 40 135 40 135 40 279 c 2,4,-1
 40 646 l 2,5,6
 40 671 40 671 96.5 691 c 128,-1,7
 153 711 153 711 228 711 c 0,8,9
 288 711 288 711 306 688 c 0,10,11
 319 670 319 670 319 657 c 2,12,-1
 319 359 l 2,13,14
 319 246 319 246 327.5 209.5 c 128,-1,15
 336 173 336 173 364 173 c 128,-1,16
 392 173 392 173 399.5 208.5 c 128,-1,17
 407 244 407 244 407 360 c 2,18,-1
 407 646 l 2,19,20
 407 671 407 671 463.5 691 c 128,-1,21
 520 711 520 711 594 711 c 0,22,23
 657 711 657 711 674 688 c 1,24,25
 686 670 686 670 686 657 c 2,26,-1
 686 279 l 2,27,0
 686 135 686 135 603.5 63.5 c 128,-1,1
EndSplineSet
EndChar

StartChar: V
Encoding: 86 86 57
Width: 727
GlyphClass: 2
Flags: W
LayerCount: 2
Fore
SplineSet
10 639 m 0,0,1
 10 651 10 651 36 667.5 c 128,-1,2
 62 684 62 684 109.5 697 c 128,-1,3
 157 710 157 710 213 710 c 128,-1,4
 269 710 269 710 295 694 c 128,-1,5
 321 678 321 678 323 659 c 2,6,-1
 358 295 l 1,7,-1
 372 295 l 1,8,-1
 403 650 l 2,9,10
 406 678 406 678 471 694 c 128,-1,11
 536 710 536 710 592 710 c 128,-1,12
 648 710 648 710 675 700.5 c 128,-1,13
 702 691 702 691 709.5 681 c 128,-1,14
 717 671 717 671 717 662.5 c 128,-1,15
 717 654 717 654 702.5 615.5 c 128,-1,16
 688 577 688 577 672 533 c 0,17,18
 619 393 619 393 493 31 c 0,19,20
 482 0 482 0 321 0 c 0,21,22
 271 0 271 0 255 7 c 128,-1,23
 239 14 239 14 233 31 c 0,24,25
 174 201 174 201 92 417 c 128,-1,26
 10 633 10 633 10 639 c 0,0,1
EndSplineSet
EndChar

StartChar: W
Encoding: 87 87 58
Width: 1016
GlyphClass: 2
Flags: W
LayerCount: 2
Fore
SplineSet
315 0 m 0,0,1
 267 0 267 0 252 7 c 128,-1,2
 237 14 237 14 231 31 c 2,3,-1
 10 641 l 1,4,5
 10 660 10 660 81.5 685 c 128,-1,6
 153 710 153 710 226 710 c 0,7,8
 320 710 320 710 326 651 c 2,9,-1
 360 334 l 1,10,-1
 374 334 l 1,11,-1
 402 651 l 2,12,13
 407 710 407 710 537 710 c 0,14,15
 587 710 587 710 604 696.5 c 128,-1,16
 621 683 621 683 623 661 c 2,17,-1
 656 334 l 1,18,-1
 670 334 l 1,19,-1
 696 651 l 2,20,21
 699 680 699 680 764.5 695 c 128,-1,22
 830 710 830 710 894.5 710 c 128,-1,23
 959 710 959 710 982.5 691 c 128,-1,24
 1006 672 1006 672 1006 651 c 1,25,-1
 792 31 l 2,26,27
 781 0 781 0 644 0 c 0,28,29
 603 0 603 0 589 7 c 128,-1,30
 575 14 575 14 570 31 c 2,31,-1
 518 205 l 1,32,-1
 506 205 l 1,33,-1
 453 31 l 2,34,35
 444 0 444 0 315 0 c 0,0,1
EndSplineSet
EndChar

StartChar: X
Encoding: 88 88 59
Width: 721
GlyphClass: 2
Flags: W
LayerCount: 2
Fore
SplineSet
209 0 m 0,0,1
 136 0 136 0 73 12.5 c 128,-1,2
 10 25 10 25 10 49 c 0,3,4
 10 63 10 63 51.5 140.5 c 128,-1,5
 93 218 93 218 177 360 c 1,6,7
 27 642 27 642 27 656 c 0,8,9
 27 678 27 678 90.5 694 c 128,-1,10
 154 710 154 710 206.5 710 c 128,-1,11
 259 710 259 710 292.5 694 c 128,-1,12
 326 678 326 678 329 662 c 2,13,-1
 368 485 l 1,14,-1
 373 485 l 1,15,-1
 401 660 l 2,16,17
 402 667 402 667 425 679 c 128,-1,18
 448 691 448 691 486.5 700.5 c 128,-1,19
 525 710 525 710 575.5 710 c 128,-1,20
 626 710 626 710 660 698 c 128,-1,21
 694 686 694 686 694 653 c 0,22,23
 694 636 694 636 658 554 c 128,-1,24
 622 472 622 472 549 326 c 1,25,26
 711 63 711 63 711 49 c 0,27,28
 711 0 711 0 592 0 c 0,29,30
 415 0 415 0 402 48 c 2,31,-1
 363 187 l 1,32,-1
 357 187 l 1,33,-1
 325 48 l 2,34,35
 314 0 314 0 209 0 c 0,0,1
EndSplineSet
EndChar

StartChar: Y
Encoding: 89 89 60
Width: 698
GlyphClass: 2
Flags: W
LayerCount: 2
Fore
SplineSet
426 8 m 128,-1,1
 365 0 365 0 304.5 0 c 128,-1,2
 244 0 244 0 226 6.5 c 128,-1,3
 208 13 208 13 208 29 c 2,4,-1
 208 203 l 1,5,6
 10 608 10 608 10 643 c 0,7,8
 10 664 10 664 77 687 c 128,-1,9
 144 710 144 710 218 710 c 0,10,11
 313 710 313 710 319 654 c 2,12,-1
 346 385 l 1,13,-1
 357 385 l 1,14,-1
 376 647 l 2,15,16
 378 675 378 675 447 692.5 c 128,-1,17
 516 710 516 710 578 710 c 128,-1,18
 640 710 640 710 664 692 c 128,-1,19
 688 674 688 674 688 654 c 0,20,21
 688 635 688 635 487 203 c 1,22,-1
 487 29 l 2,23,0
 487 16 487 16 426 8 c 128,-1,1
EndSplineSet
EndChar

StartChar: Z
Encoding: 90 90 61
Width: 627
GlyphClass: 2
Flags: W
LayerCount: 2
Fore
SplineSet
582 507 m 0,0,1
 582 489 582 489 529 424 c 128,-1,2
 476 359 476 359 370 248 c 1,3,-1
 581 248 l 2,4,5
 592 248 592 248 599.5 218.5 c 128,-1,6
 607 189 607 189 607 135.5 c 128,-1,7
 607 82 607 82 594.5 41 c 128,-1,8
 582 0 582 0 561 0 c 2,9,-1
 74 0 l 2,10,11
 45 0 45 0 32.5 58 c 128,-1,12
 20 116 20 116 20 184 c 0,13,14
 20 199 20 199 76 266 c 128,-1,15
 132 333 132 333 245 453 c 1,16,-1
 51 453 l 2,17,18
 24 453 24 453 24 540 c 0,19,20
 24 601 24 601 37 655.5 c 128,-1,21
 50 710 50 710 70 710 c 2,22,-1
 531 710 l 2,23,24
 582 710 582 710 582 507 c 0,0,1
EndSplineSet
EndChar

StartChar: bracketleft
Encoding: 91 91 62
Width: 470
GlyphClass: 2
Flags: W
LayerCount: 2
Fore
SplineSet
134 -143 m 2,0,1
 84 -143 84 -143 67 -137.5 c 128,-1,2
 50 -132 50 -132 50 -119 c 2,3,-1
 50 686 l 2,4,5
 50 699 50 699 67 704.5 c 128,-1,6
 84 710 84 710 134 710 c 2,7,-1
 387 710 l 2,8,9
 402 710 402 710 411 682 c 128,-1,10
 420 654 420 654 420 618 c 0,11,12
 420 551 420 551 399 551 c 0,13,14
 344 551 344 551 294 559 c 1,15,-1
 294 8 l 1,16,17
 337 16 337 16 399 16 c 0,18,19
 420 16 420 16 420 -51 c 0,20,21
 420 -87 420 -87 411 -115 c 128,-1,22
 402 -143 402 -143 387 -143 c 2,23,-1
 134 -143 l 2,0,1
EndSplineSet
EndChar

StartChar: backslash
Encoding: 92 92 63
Width: 368
GlyphClass: 2
Flags: W
LayerCount: 2
Fore
SplineSet
0 676 m 0,0,1
 0 711 0 711 132 711 c 0,2,3
 160 711 160 711 180 695 c 128,-1,4
 200 679 200 679 206 657 c 0,5,6
 368 57 368 57 368 44 c 0,7,8
 368 0 368 0 247 0 c 0,9,10
 219 0 219 0 196 12.5 c 128,-1,11
 173 25 173 25 168 44 c 0,12,13
 0 670 0 670 0 676 c 0,0,1
EndSplineSet
EndChar

StartChar: bracketright
Encoding: 93 93 64
Width: 470
GlyphClass: 2
Flags: W
LayerCount: 2
Fore
SplineSet
336 -143 m 2,0,-1
 83 -143 l 2,1,2
 68 -143 68 -143 59 -115 c 128,-1,3
 50 -87 50 -87 50 -51 c 0,4,5
 50 16 50 16 71 16 c 0,6,7
 126 16 126 16 176 8 c 1,8,-1
 176 559 l 1,9,10
 133 551 133 551 71 551 c 0,11,12
 50 551 50 551 50 618 c 0,13,14
 50 654 50 654 59 682 c 128,-1,15
 68 710 68 710 83 710 c 2,16,-1
 336 710 l 2,17,18
 386 710 386 710 403 704.5 c 128,-1,19
 420 699 420 699 420 686 c 2,20,-1
 420 -119 l 2,21,22
 420 -132 420 -132 403 -137.5 c 128,-1,23
 386 -143 386 -143 336 -143 c 2,0,-1
EndSplineSet
EndChar

StartChar: asciicircum
Encoding: 94 94 65
Width: 440
GlyphClass: 2
Flags: W
LayerCount: 2
Fore
SplineSet
113.5 745.5 m 128,-1,1
 187 780 187 780 222.5 780 c 128,-1,2
 258 780 258 780 329 746 c 128,-1,3
 400 712 400 712 400 700 c 0,4,5
 400 665 400 665 389 637.5 c 128,-1,6
 378 610 378 610 360 610 c 0,7,8
 346 610 346 610 220 649 c 1,9,10
 93 610 93 610 80 610 c 0,11,12
 62 610 62 610 51 637.5 c 128,-1,13
 40 665 40 665 40 700 c 0,14,0
 40 711 40 711 113.5 745.5 c 128,-1,1
EndSplineSet
EndChar

StartChar: underscore
Encoding: 95 95 66
Width: 593
GlyphClass: 2
Flags: W
LayerCount: 2
Fore
SplineSet
537 -145 m 2,0,-1
 42 -145 l 2,1,2
 15 -145 15 -145 15 -94 c 0,3,4
 15 -58 15 -58 29.5 -34 c 128,-1,5
 44 -10 44 -10 65 -10 c 2,6,-1
 552 -10 l 2,7,8
 560 -10 560 -10 565 -13 c 0,9,10
 578 -21 578 -21 578 -59 c 128,-1,11
 578 -97 578 -97 566.5 -121 c 128,-1,12
 555 -145 555 -145 537 -145 c 2,0,-1
EndSplineSet
EndChar

StartChar: grave
Encoding: 96 96 67
Width: 380
GlyphClass: 2
Flags: W
LayerCount: 2
Fore
SplineSet
120 780 m 0,0,1
 181 780 181 780 255.5 750.5 c 128,-1,2
 330 721 330 721 330 689.5 c 128,-1,3
 330 658 330 658 314.5 634 c 128,-1,4
 299 610 299 610 280 610 c 0,5,6
 223 610 223 610 136.5 621.5 c 128,-1,7
 50 633 50 633 50 648 c 0,8,9
 50 704 50 704 73.5 742 c 128,-1,10
 97 780 97 780 120 780 c 0,0,1
EndSplineSet
EndChar

StartChar: a
Encoding: 97 97 68
Width: 664
GlyphClass: 2
Flags: W
LayerCount: 2
Fore
SplineSet
225 -9 m 0,0,1
 134 -9 134 -9 82 34 c 0,2,3
 61 52 61 52 45.5 87 c 128,-1,4
 30 122 30 122 30 169 c 128,-1,5
 30 216 30 216 52.5 251 c 128,-1,6
 75 286 75 286 107 305 c 128,-1,7
 139 324 139 324 182 336 c 0,8,9
 247 353 247 353 325 353 c 2,10,-1
 358 353 l 1,11,12
 358 394 358 394 330 411 c 0,13,14
 318 418 318 418 293.5 418 c 128,-1,15
 269 418 269 418 234.5 405 c 128,-1,16
 200 392 200 392 177 378.5 c 128,-1,17
 154 365 154 365 146 365 c 0,18,19
 128 365 128 365 97 412.5 c 128,-1,20
 66 460 66 460 66 499 c 0,21,22
 66 512 66 512 103 533 c 128,-1,23
 140 554 140 554 207.5 571.5 c 128,-1,24
 275 589 275 589 339 589 c 128,-1,25
 403 589 403 589 449.5 578.5 c 128,-1,26
 496 568 496 568 525.5 553 c 128,-1,27
 555 538 555 538 575.5 513 c 128,-1,28
 596 488 596 488 606.5 468 c 128,-1,29
 617 448 617 448 622 416 c 1,30,31
 629 379 629 379 629 325 c 2,32,-1
 629 24 l 2,33,34
 629 13 629 13 575.5 6.5 c 128,-1,35
 522 0 522 0 469.5 0 c 128,-1,36
 417 0 417 0 401.5 3 c 128,-1,37
 386 6 386 6 383 10 c 128,-1,38
 380 14 380 14 378 24 c 2,39,-1
 370 81 l 1,40,-1
 362 81 l 1,41,42
 337 -9 337 -9 225 -9 c 0,0,1
359 157 m 2,43,-1
 359 274 l 1,44,45
 333 274 333 274 317 252 c 128,-1,46
 301 230 301 230 301 202 c 0,47,48
 301 136 301 136 331 136 c 0,49,50
 344 136 344 136 351.5 142.5 c 128,-1,51
 359 149 359 149 359 157 c 2,43,-1
EndSplineSet
EndChar

StartChar: b
Encoding: 98 98 69
Width: 668
GlyphClass: 2
Flags: W
LayerCount: 2
Fore
SplineSet
90 10 m 0,0,1
 35 24 35 24 35 52 c 2,2,-1
 35 686 l 2,3,4
 35 708 35 708 94 729 c 128,-1,5
 153 750 153 750 218 750 c 0,6,7
 306 750 306 750 306 704 c 2,8,-1
 306 591 l 1,9,-1
 295 522 l 1,10,-1
 303 522 l 1,11,12
 309 531 309 531 325.5 544 c 128,-1,13
 342 557 342 557 360 566 c 0,14,15
 404 589 404 589 457 589 c 128,-1,16
 510 589 510 589 540.5 575.5 c 128,-1,17
 571 562 571 562 589.5 540.5 c 128,-1,18
 608 519 608 519 619 486 c 0,19,20
 638 429 638 429 638 344 c 0,21,22
 638 203 638 203 606 128 c 128,-1,23
 574 53 574 53 502 22 c 128,-1,24
 430 -9 430 -9 299 -9 c 128,-1,25
 168 -9 168 -9 90 10 c 0,0,1
305 138 m 1,26,-1
 336 138 l 2,27,28
 368 138 368 138 368 291.5 c 128,-1,29
 368 445 368 445 335 445 c 2,30,-1
 305 445 l 1,31,-1
 305 138 l 1,26,-1
EndSplineSet
EndChar

StartChar: c
Encoding: 99 99 70
Width: 550
GlyphClass: 2
Flags: W
LayerCount: 2
Fore
SplineSet
164 17 m 0,0,1
 140 28 140 28 112.5 50 c 128,-1,2
 85 72 85 72 67 102 c 0,3,4
 25 174 25 174 25 290 c 0,5,6
 25 362 25 362 48 418.5 c 128,-1,7
 71 475 71 475 104 506 c 128,-1,8
 137 537 137 537 180 557 c 0,9,10
 249 589 249 589 318 589 c 0,11,12
 434 589 434 589 479.5 571 c 128,-1,13
 525 553 525 553 525 510 c 128,-1,14
 525 467 525 467 509.5 418.5 c 128,-1,15
 494 370 494 370 469 370 c 0,16,17
 461 370 461 370 420.5 387 c 128,-1,18
 380 404 380 404 350.5 404 c 128,-1,19
 321 404 321 404 305.5 380.5 c 128,-1,20
 290 357 290 357 290 289.5 c 128,-1,21
 290 222 290 222 304 197.5 c 128,-1,22
 318 173 318 173 347.5 173 c 128,-1,23
 377 173 377 173 421 193 c 128,-1,24
 465 213 465 213 470 213 c 0,25,26
 489 213 489 213 506.5 168 c 128,-1,27
 524 123 524 123 524 88 c 0,28,29
 524 34 524 34 468 12.5 c 128,-1,30
 412 -9 412 -9 316.5 -9 c 128,-1,31
 221 -9 221 -9 164 17 c 0,0,1
EndSplineSet
EndChar

StartChar: d
Encoding: 100 100 71
Width: 664
GlyphClass: 2
Flags: W
LayerCount: 2
Fore
SplineSet
223 -9 m 0,0,1
 186 -9 186 -9 154 2 c 128,-1,2
 122 13 122 13 101.5 29 c 128,-1,3
 81 45 81 45 66 72 c 128,-1,4
 51 99 51 99 43 123.5 c 128,-1,5
 35 148 35 148 31 184 c 0,6,7
 25 237 25 237 25 305 c 0,8,9
 25 444 25 444 76 516.5 c 128,-1,10
 127 589 127 589 216 589 c 0,11,12
 307 589 307 589 348 546 c 0,13,14
 357 536 357 536 362 522 c 1,15,-1
 370 522 l 1,16,-1
 358 591 l 1,17,-1
 358 716 l 2,18,19
 358 738 358 738 414 759 c 128,-1,20
 470 780 470 780 535 780 c 0,21,22
 603 780 603 780 622 754 c 0,23,24
 629 744 629 744 629 734 c 2,25,-1
 629 24 l 2,26,27
 629 13 629 13 573.5 6.5 c 128,-1,28
 518 0 518 0 466.5 0 c 128,-1,29
 415 0 415 0 400.5 3.5 c 128,-1,30
 386 7 386 7 382.5 11 c 128,-1,31
 379 15 379 15 378 24 c 2,32,-1
 370 81 l 1,33,-1
 362 81 l 1,34,35
 353 46 353 46 326 22 c 0,36,37
 292 -9 292 -9 223 -9 c 0,0,1
335 137 m 0,38,39
 351 137 351 137 359 157 c 1,40,-1
 359 424 l 2,41,42
 359 434 359 434 348.5 439.5 c 128,-1,43
 338 445 338 445 330 445 c 0,44,45
 296 445 296 445 296 289 c 0,46,47
 296 206 296 206 305.5 171.5 c 128,-1,48
 315 137 315 137 335 137 c 0,38,39
EndSplineSet
EndChar

StartChar: e
Encoding: 101 101 72
Width: 640
GlyphClass: 2
Flags: W
LayerCount: 2
Fore
SplineSet
298 226 m 1,0,1
 298 161 298 161 360 161 c 0,2,3
 396 161 396 161 454 185.5 c 128,-1,4
 512 210 512 210 515 210 c 0,5,6
 534 210 534 210 565 153 c 128,-1,7
 596 96 596 96 596 69 c 0,8,9
 596 30 596 30 516 10 c 128,-1,10
 436 -10 436 -10 359.5 -10 c 128,-1,11
 283 -10 283 -10 231.5 2 c 128,-1,12
 180 14 180 14 147.5 32.5 c 128,-1,13
 115 51 115 51 90.5 78 c 128,-1,14
 66 105 66 105 54 129.5 c 128,-1,15
 42 154 42 154 35 184 c 0,16,17
 25 228 25 228 25 275 c 0,18,19
 25 457 25 457 120 526 c 0,20,21
 167 561 167 561 225 575 c 128,-1,22
 283 589 283 589 362 589 c 0,23,24
 615 589 615 589 615 413 c 0,25,26
 615 226 615 226 331 226 c 2,27,-1
 298 226 l 1,0,1
296 372 m 2,28,-1
 296 306 l 1,29,30
 325 306 325 306 343.5 329 c 128,-1,31
 362 352 362 352 362 385 c 0,32,33
 362 445 362 445 331 445 c 0,34,35
 296 445 296 445 296 372 c 2,28,-1
EndSplineSet
EndChar

StartChar: f
Encoding: 102 102 73
Width: 559
GlyphClass: 2
Flags: W
LayerCount: 2
Fore
SplineSet
358 330 m 1,0,-1
 358 24 l 2,1,2
 358 13 358 13 303 6.5 c 128,-1,3
 248 0 248 0 168 0 c 128,-1,4
 88 0 88 0 88 24 c 2,5,-1
 88 330 l 1,6,-1
 37 330 l 2,7,8
 10 330 10 330 10 421 c 0,9,10
 10 457 10 457 22.5 488.5 c 128,-1,11
 35 520 35 520 55 520 c 2,12,-1
 88 520 l 1,13,14
 88 587 88 587 107.5 637 c 128,-1,15
 127 687 127 687 154.5 713.5 c 128,-1,16
 182 740 182 740 221 756 c 0,17,18
 279 780 279 780 353 780 c 0,19,20
 539 780 539 780 539 719 c 0,21,22
 539 653 539 653 526 611 c 128,-1,23
 513 569 513 569 491 569 c 0,24,25
 482 569 482 569 457.5 575.5 c 128,-1,26
 433 582 433 582 411 582 c 0,27,28
 353 582 353 582 353 542 c 0,29,30
 353 532 353 532 358 520 c 1,31,-1
 491 520 l 2,32,33
 518 520 518 520 518 432 c 0,34,35
 518 393 518 393 506.5 361.5 c 128,-1,36
 495 330 495 330 476 330 c 2,37,-1
 358 330 l 1,0,-1
EndSplineSet
EndChar

StartChar: g
Encoding: 103 103 74
Width: 659
GlyphClass: 2
Flags: W
LayerCount: 2
Fore
SplineSet
369 66 m 2,0,-1
 369 124 l 1,1,-1
 361 124 l 1,2,3
 357 119 357 119 347 111.5 c 128,-1,4
 337 104 337 104 297.5 91 c 128,-1,5
 258 78 258 78 208.5 78 c 128,-1,6
 159 78 159 78 125 93 c 128,-1,7
 91 108 91 108 72 130.5 c 128,-1,8
 53 153 53 153 42 191 c 0,9,10
 25 250 25 250 25 351 c 0,11,12
 25 467 25 467 74 529 c 0,13,14
 93 554 93 554 130.5 571.5 c 128,-1,15
 168 589 168 589 211 589 c 128,-1,16
 254 589 254 589 282 579.5 c 128,-1,17
 310 570 310 570 324 557 c 0,18,19
 352 529 352 529 356 508 c 1,20,-1
 357 499 l 1,21,-1
 365 499 l 1,22,-1
 374 538 l 2,23,24
 384 580 384 580 532 580 c 0,25,26
 598 580 598 580 612 560 c 0,27,28
 620 548 620 548 622 537.5 c 128,-1,29
 624 527 624 527 624 506 c 2,30,-1
 624 87 l 2,31,32
 624 -31 624 -31 547 -93 c 128,-1,33
 470 -155 470 -155 321 -155 c 0,34,35
 163 -155 163 -155 106 -124 c 0,36,37
 81 -110 81 -110 81 -95 c 0,38,39
 81 -71 81 -71 100.5 -14 c 128,-1,40
 120 43 120 43 137 43 c 0,41,42
 141 43 141 43 165 36 c 0,43,44
 241 16 241 16 288.5 16 c 128,-1,45
 336 16 336 16 352.5 28 c 128,-1,46
 369 40 369 40 369 66 c 2,0,-1
329 192 m 0,47,48
 340 192 340 192 347 200 c 128,-1,49
 354 208 354 208 354 218 c 2,50,-1
 354 424 l 1,51,52
 350 445 350 445 332 445 c 0,53,54
 294 445 294 445 294 320 c 0,55,56
 294 262 294 262 303.5 227 c 128,-1,57
 313 192 313 192 329 192 c 0,47,48
EndSplineSet
EndChar

StartChar: h
Encoding: 104 104 75
Width: 665
GlyphClass: 2
Flags: W
LayerCount: 2
Fore
SplineSet
360 24 m 2,0,-1
 360 302 l 2,1,2
 360 377 360 377 354 411 c 128,-1,3
 348 445 348 445 325 445 c 0,4,5
 305 445 305 445 305 418 c 2,6,-1
 305 24 l 2,7,8
 305 13 305 13 247 6.5 c 128,-1,9
 189 0 189 0 128 0 c 128,-1,10
 67 0 67 0 51 5.5 c 128,-1,11
 35 11 35 11 35 24 c 2,12,-1
 35 717 l 2,13,14
 35 738 35 738 93 759 c 128,-1,15
 151 780 151 780 215 780 c 0,16,17
 282 780 282 780 300 755 c 0,18,19
 306 747 306 747 306 738 c 2,20,-1
 306 591 l 1,21,-1
 295 522 l 1,22,-1
 302 522 l 1,23,24
 316 543 316 543 346 559 c 0,25,26
 402 589 402 589 468 589 c 0,27,28
 563 589 563 589 596.5 528.5 c 128,-1,29
 630 468 630 468 630 332 c 2,30,-1
 630 24 l 2,31,32
 630 13 630 13 571.5 6.5 c 128,-1,33
 513 0 513 0 452.5 0 c 128,-1,34
 392 0 392 0 376 5.5 c 128,-1,35
 360 11 360 11 360 24 c 2,0,-1
EndSplineSet
EndChar

StartChar: i
Encoding: 105 105 76
Width: 350
GlyphClass: 2
Flags: W
LayerCount: 2
Fore
SplineSet
310 517 m 2,0,-1
 310 24 l 2,1,2
 310 13 310 13 252.5 6.5 c 128,-1,3
 195 0 195 0 134.5 0 c 128,-1,4
 74 0 74 0 56.5 5.5 c 128,-1,5
 39 11 39 11 39 24 c 2,6,-1
 39 499 l 2,7,8
 39 521 39 521 95.5 542.5 c 128,-1,9
 152 564 152 564 219 564 c 0,10,11
 310 564 310 564 310 517 c 2,0,-1
174 780 m 0,12,13
 240 780 240 780 277.5 760.5 c 128,-1,14
 315 741 315 741 315 690 c 0,15,16
 315 600 315 600 175 600 c 128,-1,17
 35 600 35 600 35 690 c 128,-1,18
 35 780 35 780 174 780 c 0,12,13
EndSplineSet
EndChar

StartChar: j
Encoding: 106 106 77
Width: 400
GlyphClass: 2
Flags: W
LayerCount: 2
Fore
SplineSet
304.5 -94 m 128,-1,1
 249 -155 249 -155 152 -155 c 128,-1,2
 55 -155 55 -155 27.5 -136.5 c 128,-1,3
 0 -118 0 -118 0 -53.5 c 128,-1,4
 0 11 0 11 25 14 c 0,5,6
 60 19 60 19 74.5 32 c 128,-1,7
 89 45 89 45 89 80 c 2,8,-1
 89 499 l 2,9,10
 89 521 89 521 145.5 542.5 c 128,-1,11
 202 564 202 564 268 564 c 0,12,13
 360 564 360 564 360 517 c 2,14,-1
 360 90 l 2,15,0
 360 -33 360 -33 304.5 -94 c 128,-1,1
225 600 m 128,-1,17
 85 600 85 600 85 691 c 0,18,19
 85 742 85 742 122.5 761 c 128,-1,20
 160 780 160 780 227 780 c 128,-1,21
 294 780 294 780 329.5 762.5 c 128,-1,22
 365 745 365 745 365 693 c 0,23,16
 365 600 365 600 225 600 c 128,-1,17
EndSplineSet
EndChar

StartChar: k
Encoding: 107 107 78
Width: 636
GlyphClass: 2
Flags: W
LayerCount: 2
Fore
SplineSet
249 6.5 m 128,-1,1
 193 0 193 0 132 0 c 128,-1,2
 71 0 71 0 53 5.5 c 128,-1,3
 35 11 35 11 35 24 c 2,4,-1
 35 716 l 2,5,6
 35 738 35 738 91.5 759 c 128,-1,7
 148 780 148 780 213 780 c 0,8,9
 305 780 305 780 305 734 c 2,10,-1
 305 360 l 1,11,-1
 318 360 l 1,12,13
 366 589 366 589 389 589 c 0,14,15
 447 589 447 589 529 562 c 128,-1,16
 611 535 611 535 611 502 c 0,17,18
 611 478 611 478 571 410 c 128,-1,19
 531 342 531 342 488 299 c 1,20,21
 631 128 631 128 631 96 c 0,22,23
 631 66 631 66 540 23 c 128,-1,24
 449 -20 449 -20 412 -20 c 0,25,26
 394 -20 394 -20 374 23.5 c 128,-1,27
 354 67 354 67 331 154 c 1,28,-1
 305 123 l 1,29,-1
 305 24 l 2,30,0
 305 13 305 13 249 6.5 c 128,-1,1
EndSplineSet
EndChar

StartChar: l
Encoding: 108 108 79
Width: 340
GlyphClass: 2
Flags: W
LayerCount: 2
Fore
SplineSet
305 734 m 2,0,-1
 305 24 l 2,1,2
 305 13 305 13 248 6.5 c 128,-1,3
 191 0 191 0 130.5 0 c 128,-1,4
 70 0 70 0 52.5 5.5 c 128,-1,5
 35 11 35 11 35 24 c 2,6,-1
 35 716 l 2,7,8
 35 738 35 738 91.5 759 c 128,-1,9
 148 780 148 780 213 780 c 0,10,11
 305 780 305 780 305 734 c 2,0,-1
EndSplineSet
EndChar

StartChar: m
Encoding: 109 109 80
Width: 981
GlyphClass: 2
Flags: W
LayerCount: 2
Fore
SplineSet
946 330 m 2,0,-1
 946 24 l 2,1,2
 946 13 946 13 889.5 6.5 c 128,-1,3
 833 0 833 0 772.5 0 c 128,-1,4
 712 0 712 0 694 5.5 c 128,-1,5
 676 11 676 11 676 24 c 2,6,-1
 676 301 l 2,7,8
 676 444 676 444 647 444 c 0,9,10
 640 444 640 444 633 438 c 128,-1,11
 626 432 626 432 626 417 c 2,12,-1
 626 24 l 2,13,14
 626 13 626 13 569.5 6.5 c 128,-1,15
 513 0 513 0 452 0 c 128,-1,16
 391 0 391 0 373.5 5.5 c 128,-1,17
 356 11 356 11 356 24 c 2,18,-1
 356 301 l 2,19,20
 356 412 356 412 342 434 c 0,21,22
 335 444 335 444 324 444 c 0,23,24
 305 444 305 444 305 417 c 2,25,-1
 305 24 l 2,26,27
 305 13 305 13 248 6.5 c 128,-1,28
 191 0 191 0 130.5 0 c 128,-1,29
 70 0 70 0 52.5 5.5 c 128,-1,30
 35 11 35 11 35 24 c 2,31,-1
 35 517 l 2,32,33
 35 538 35 538 92.5 559 c 128,-1,34
 150 580 150 580 214 580 c 128,-1,35
 278 580 278 580 286 543 c 2,36,-1
 295 499 l 1,37,-1
 302 499 l 1,38,39
 331 556 331 556 398 580 c 0,40,41
 426 589 426 589 470 589 c 0,42,43
 558 589 558 589 598 499 c 1,44,45
 611 529 611 529 663 559 c 128,-1,46
 715 589 715 589 778 589 c 0,47,48
 877 589 877 589 911.5 527.5 c 128,-1,49
 946 466 946 466 946 330 c 2,0,-1
EndSplineSet
EndChar

StartChar: n
Encoding: 110 110 81
Width: 673
GlyphClass: 2
Flags: W
LayerCount: 2
Fore
SplineSet
638 332 m 2,0,-1
 638 24 l 2,1,2
 638 13 638 13 581 6.5 c 128,-1,3
 524 0 524 0 463.5 0 c 128,-1,4
 403 0 403 0 385.5 5.5 c 128,-1,5
 368 11 368 11 368 24 c 2,6,-1
 368 342 l 2,7,8
 368 387 368 387 364.5 401 c 128,-1,9
 361 415 361 415 358 426 c 0,10,11
 351 445 351 445 333 445 c 0,12,13
 305 445 305 445 305 418 c 2,14,-1
 305 24 l 2,15,16
 305 13 305 13 248.5 6.5 c 128,-1,17
 192 0 192 0 131.5 0 c 128,-1,18
 71 0 71 0 53 5.5 c 128,-1,19
 35 11 35 11 35 24 c 2,20,-1
 35 517 l 2,21,22
 35 538 35 538 92.5 559 c 128,-1,23
 150 580 150 580 214 580 c 128,-1,24
 278 580 278 580 286 543 c 2,25,-1
 295 499 l 1,26,-1
 302 499 l 1,27,28
 331 557 331 557 402 580 c 0,29,30
 431 589 431 589 466 589 c 0,31,32
 567 589 567 589 602.5 528.5 c 128,-1,33
 638 468 638 468 638 332 c 2,0,-1
EndSplineSet
EndChar

StartChar: o
Encoding: 111 111 82
Width: 685
GlyphClass: 2
Flags: W
LayerCount: 2
Fore
SplineSet
343 -9 m 0,0,1
 268 -9 268 -9 214 4 c 128,-1,2
 160 17 160 17 116 50 c 0,3,4
 25 116 25 116 25 296 c 0,5,6
 25 456 25 456 118 525 c 0,7,8
 205 589 205 589 343 589 c 0,9,10
 402 589 402 589 444 583.5 c 128,-1,11
 486 578 486 578 529.5 560 c 128,-1,12
 573 542 573 542 599.5 511 c 128,-1,13
 626 480 626 480 643 425.5 c 128,-1,14
 660 371 660 371 660 296 c 0,15,16
 660 144 660 144 574 67.5 c 128,-1,17
 488 -9 488 -9 343 -9 c 0,0,1
322.5 143 m 128,-1,19
 330 136 330 136 342.5 136 c 128,-1,20
 355 136 355 136 362.5 143 c 128,-1,21
 370 150 370 150 376.5 186 c 128,-1,22
 383 222 383 222 383 276.5 c 128,-1,23
 383 331 383 331 380.5 360.5 c 128,-1,24
 378 390 378 390 374.5 406 c 128,-1,25
 371 422 371 422 365 431 c 0,26,27
 356 444 356 444 343.5 444 c 128,-1,28
 331 444 331 444 323 436.5 c 128,-1,29
 315 429 315 429 308 392.5 c 128,-1,30
 301 356 301 356 301 289 c 128,-1,31
 301 222 301 222 308 186 c 128,-1,18
 315 150 315 150 322.5 143 c 128,-1,19
EndSplineSet
EndChar

StartChar: p
Encoding: 112 112 83
Width: 663
GlyphClass: 2
Flags: W
LayerCount: 2
Fore
SplineSet
35 -121 m 2,0,-1
 35 515 l 2,1,2
 35 536 35 536 91 558 c 128,-1,3
 147 580 147 580 212 580 c 0,4,5
 242 580 242 580 259 573 c 128,-1,6
 276 566 276 566 280 559 c 256,7,8
 284 552 284 552 295 499 c 1,9,-1
 303 499 l 1,10,11
 305 508 305 508 321 527 c 128,-1,12
 337 546 337 546 353.5 558 c 128,-1,13
 370 570 370 570 401 579.5 c 128,-1,14
 432 589 432 589 473.5 589 c 128,-1,15
 515 589 515 589 549 570.5 c 128,-1,16
 583 552 583 552 599.5 527.5 c 128,-1,17
 616 503 616 503 625.5 465.5 c 128,-1,18
 635 428 635 428 636.5 405.5 c 128,-1,19
 638 383 638 383 638 340.5 c 128,-1,20
 638 298 638 298 635 256.5 c 128,-1,21
 632 215 632 215 624 172 c 128,-1,22
 616 129 616 129 601 98 c 128,-1,23
 586 67 586 67 563 42 c 0,24,25
 517 -8 517 -8 428 -8 c 0,26,27
 396 -8 396 -8 371.5 1.5 c 128,-1,28
 347 11 347 11 335 24 c 0,29,30
 310 51 310 51 306 72 c 1,31,-1
 305 82 l 1,32,-1
 297 82 l 1,33,-1
 311 -8 l 1,34,-1
 311 -121 l 2,35,36
 311 -132 311 -132 253.5 -138.5 c 128,-1,37
 196 -145 196 -145 135.5 -145 c 128,-1,38
 75 -145 75 -145 55 -139.5 c 128,-1,39
 35 -134 35 -134 35 -121 c 2,0,-1
358 412 m 128,-1,41
 349 446 349 446 331 446 c 128,-1,42
 313 446 313 446 305 426 c 1,43,-1
 305 164 l 2,44,45
 305 138 305 138 332 138 c 0,46,47
 367 138 367 138 367 293 c 0,48,40
 367 378 367 378 358 412 c 128,-1,41
EndSplineSet
EndChar

StartChar: q
Encoding: 113 113 84
Width: 663
GlyphClass: 2
Flags: W
LayerCount: 2
Fore
SplineSet
287.5 -0.5 m 128,-1,1
 261 -8 261 -8 218 -8 c 128,-1,2
 175 -8 175 -8 137 8.5 c 128,-1,3
 99 25 99 25 78 50 c 128,-1,4
 57 75 57 75 44 114 c 0,5,6
 25 174 25 174 25 265 c 0,7,8
 25 438 25 438 104.5 513.5 c 128,-1,9
 184 589 184 589 362 589 c 0,10,11
 461 589 461 589 504 582 c 128,-1,12
 547 575 547 575 573 569 c 0,13,14
 628 556 628 556 628 527 c 2,15,-1
 628 -121 l 2,16,17
 628 -132 628 -132 572.5 -138.5 c 128,-1,18
 517 -145 517 -145 437 -145 c 128,-1,19
 357 -145 357 -145 357 -121 c 2,20,-1
 357 -8 l 1,21,-1
 369 61 l 1,22,-1
 361 61 l 1,23,24
 361 53 361 53 351 39 c 128,-1,25
 341 25 341 25 327.5 16 c 128,-1,0
 314 7 314 7 287.5 -0.5 c 128,-1,1
328 444 m 0,26,27
 296 444 296 444 296 291 c 128,-1,28
 296 138 296 138 330 138 c 0,29,30
 338 138 338 138 348 143 c 128,-1,31
 358 148 358 148 358 157 c 2,32,-1
 358 440 l 1,33,34
 351 444 351 444 328 444 c 0,26,27
EndSplineSet
EndChar

StartChar: r
Encoding: 114 114 85
Width: 586
GlyphClass: 2
Flags: W
LayerCount: 2
Fore
SplineSet
305 316 m 2,0,-1
 305 24 l 2,1,2
 305 13 305 13 248.5 6.5 c 128,-1,3
 192 0 192 0 131.5 0 c 128,-1,4
 71 0 71 0 53 5.5 c 128,-1,5
 35 11 35 11 35 24 c 2,6,-1
 35 517 l 2,7,8
 35 536 35 536 90.5 558 c 128,-1,9
 146 580 146 580 211.5 580 c 128,-1,10
 277 580 277 580 285 544 c 2,11,-1
 295 498 l 1,12,-1
 302 498 l 1,13,14
 316 536 316 536 369 562.5 c 128,-1,15
 422 589 422 589 475 589 c 128,-1,16
 528 589 528 589 549.5 572 c 128,-1,17
 571 555 571 555 571 528.5 c 128,-1,18
 571 502 571 502 567 461 c 128,-1,19
 563 420 563 420 547.5 372 c 128,-1,20
 532 324 532 324 507 324 c 0,21,22
 497 324 497 324 444 339 c 128,-1,23
 391 354 391 354 356.5 354 c 128,-1,24
 322 354 322 354 313.5 344 c 128,-1,25
 305 334 305 334 305 316 c 2,0,-1
EndSplineSet
EndChar

StartChar: s
Encoding: 115 115 86
Width: 611
GlyphClass: 2
Flags: W
LayerCount: 2
Fore
SplineSet
307 -9 m 0,0,1
 141 -9 141 -9 64 23 c 0,2,3
 25 40 25 40 25 56 c 0,4,5
 25 97 25 97 49 152 c 128,-1,6
 73 207 73 207 91 207 c 0,7,8
 101 207 101 207 158.5 185 c 128,-1,9
 216 163 216 163 255.5 163 c 128,-1,10
 295 163 295 163 307.5 168 c 128,-1,11
 320 173 320 173 320 187.5 c 128,-1,12
 320 202 320 202 300 210.5 c 128,-1,13
 280 219 280 219 250 222 c 128,-1,14
 220 225 220 225 185.5 234 c 128,-1,15
 151 243 151 243 121 257 c 128,-1,16
 91 271 91 271 71 303.5 c 128,-1,17
 51 336 51 336 51 373.5 c 128,-1,18
 51 411 51 411 53 429.5 c 128,-1,19
 55 448 55 448 69.5 481.5 c 128,-1,20
 84 515 84 515 110.5 536 c 128,-1,21
 137 557 137 557 192.5 574 c 128,-1,22
 248 591 248 591 317 591 c 128,-1,23
 386 591 386 591 432.5 586.5 c 128,-1,24
 479 582 479 582 505.5 575 c 128,-1,25
 532 568 532 568 549 559 c 0,26,27
 578 544 578 544 578 526 c 0,28,29
 578 487 578 487 550 436 c 128,-1,30
 522 385 522 385 505.5 385 c 128,-1,31
 489 385 489 385 434 402.5 c 128,-1,32
 379 420 379 420 353 420 c 0,33,34
 311 420 311 420 311 396 c 0,35,36
 311 381 311 381 339.5 373.5 c 128,-1,37
 368 366 368 366 408 358 c 128,-1,38
 448 350 448 350 488.5 335.5 c 128,-1,39
 529 321 529 321 557.5 283 c 128,-1,40
 586 245 586 245 586 187 c 0,41,42
 586 -9 586 -9 307 -9 c 0,0,1
EndSplineSet
EndChar

StartChar: t
Encoding: 116 116 87
Width: 482
GlyphClass: 2
Flags: W
LayerCount: 2
Fore
SplineSet
346 -8 m 128,-1,1
 282 -8 282 -8 240 0.5 c 128,-1,2
 198 9 198 9 160 34 c 0,3,4
 87 83 87 83 87 238 c 2,5,-1
 87 394 l 1,6,-1
 37 394 l 2,7,8
 26 394 26 394 18 417 c 128,-1,9
 10 440 10 440 10 480 c 128,-1,10
 10 520 10 520 22.5 550.5 c 128,-1,11
 35 581 35 581 55 581 c 2,12,-1
 87 581 l 1,13,-1
 87 702 l 2,14,15
 87 733 87 733 147.5 752 c 128,-1,16
 208 771 208 771 266 771 c 0,17,18
 357 771 357 771 357 726 c 2,19,-1
 357 581 l 1,20,-1
 431 581 l 2,21,22
 457 581 457 581 457 506 c 0,23,24
 457 457 457 457 445.5 425.5 c 128,-1,25
 434 394 434 394 416 394 c 2,26,-1
 357 394 l 1,27,-1
 357 211 l 2,28,29
 357 184 357 184 380 172.5 c 128,-1,30
 403 161 403 161 420.5 161 c 128,-1,31
 438 161 438 161 442 144 c 128,-1,32
 446 127 446 127 446 93 c 0,33,34
 446 26 446 26 428 9 c 128,-1,0
 410 -8 410 -8 346 -8 c 128,-1,1
EndSplineSet
EndChar

StartChar: u
Encoding: 117 117 88
Width: 678
GlyphClass: 2
Flags: W
LayerCount: 2
Fore
SplineSet
236 -9 m 0,0,1
 124 -9 124 -9 79.5 49 c 128,-1,2
 35 107 35 107 35 251 c 2,3,-1
 35 523 l 2,4,5
 35 543 35 543 94 561.5 c 128,-1,6
 153 580 153 580 218 580 c 0,7,8
 305 580 305 580 305 535 c 2,9,-1
 305 281 l 2,10,11
 305 205 305 205 311 170.5 c 128,-1,12
 317 136 317 136 341 136 c 0,13,14
 373 136 373 136 373 163 c 2,15,-1
 373 523 l 2,16,17
 373 544 373 544 435 562 c 128,-1,18
 497 580 497 580 570 580 c 128,-1,19
 643 580 643 580 643 541 c 2,20,-1
 643 26 l 2,21,22
 643 12 643 12 580 6 c 128,-1,23
 517 0 517 0 456 0 c 128,-1,24
 395 0 395 0 394 16 c 1,25,-1
 384 81 l 1,26,-1
 376 81 l 1,27,28
 367 45 367 45 340 22 c 0,29,30
 326 10 326 10 298.5 0.5 c 128,-1,31
 271 -9 271 -9 236 -9 c 0,0,1
EndSplineSet
EndChar

StartChar: v
Encoding: 118 118 89
Width: 679
GlyphClass: 2
Flags: W
LayerCount: 2
Fore
SplineSet
5 509 m 0,0,1
 5 519 5 519 34 535.5 c 128,-1,2
 63 552 63 552 113 566 c 128,-1,3
 163 580 163 580 211 580 c 0,4,5
 308 580 308 580 311 533 c 2,6,-1
 336 215 l 1,7,-1
 349 215 l 1,8,-1
 371 517 l 2,9,10
 373 542 373 542 440 561 c 128,-1,11
 507 580 507 580 558 580 c 128,-1,12
 609 580 609 580 634.5 571 c 128,-1,13
 660 562 660 562 667 552.5 c 128,-1,14
 674 543 674 543 674 536 c 128,-1,15
 674 529 674 529 631.5 433 c 128,-1,16
 589 337 589 337 462 24 c 0,17,18
 452 0 452 0 299 0 c 0,19,20
 251 0 251 0 236 5.5 c 128,-1,21
 221 11 221 11 216 24 c 0,22,23
 147 198 147 198 76 351.5 c 128,-1,24
 5 505 5 505 5 509 c 0,0,1
EndSplineSet
EndChar

StartChar: w
Encoding: 119 119 90
Width: 983
GlyphClass: 2
Flags: W
LayerCount: 2
Fore
SplineSet
794 24 m 0,0,1
 781 0 781 0 658.5 0 c 128,-1,2
 536 0 536 0 531 24 c 2,3,-1
 497 206 l 1,4,-1
 483 206 l 1,5,-1
 451 24 l 1,6,7
 448 0 448 0 276 0 c 0,8,9
 228 0 228 0 212.5 5.5 c 128,-1,10
 197 11 197 11 191 24 c 0,11,12
 5 481 5 481 5 505 c 128,-1,13
 5 529 5 529 77.5 554.5 c 128,-1,14
 150 580 150 580 217 580 c 0,15,16
 303 580 303 580 306 534 c 1,17,-1
 340 260 l 1,18,-1
 352 260 l 1,19,-1
 364 481 l 2,20,21
 365 506 365 506 415 525 c 128,-1,22
 465 544 465 544 516 544 c 128,-1,23
 567 544 567 544 592.5 531.5 c 128,-1,24
 618 519 618 519 619 501 c 2,25,-1
 630 260 l 1,26,-1
 641 260 l 1,27,-1
 674 517 l 2,28,29
 677 541 677 541 741.5 560.5 c 128,-1,30
 806 580 806 580 855 580 c 128,-1,31
 904 580 904 580 932 566 c 0,32,33
 978 544 978 544 978 514 c 0,34,35
 978 511 978 511 887.5 270 c 128,-1,36
 797 29 797 29 794 24 c 0,0,1
EndSplineSet
EndChar

StartChar: x
Encoding: 120 120 91
Width: 679
GlyphClass: 2
Flags: W
LayerCount: 2
Fore
SplineSet
306 38 m 2,0,1
 298 0 298 0 217 0 c 128,-1,2
 136 0 136 0 70.5 9.5 c 128,-1,3
 5 19 5 19 5 39 c 0,4,5
 5 51 5 51 47 114 c 128,-1,6
 89 177 89 177 174 291 c 1,7,8
 14 509 14 509 14 519 c 0,9,10
 14 538 14 538 84 559 c 128,-1,11
 154 580 154 580 202 580 c 128,-1,12
 250 580 250 580 276.5 568.5 c 128,-1,13
 303 557 303 557 306 543 c 2,14,-1
 350 390 l 1,15,-1
 359 390 l 1,16,-1
 375 534 l 2,17,18
 376 540 376 540 398.5 550.5 c 128,-1,19
 421 561 421 561 459 570.5 c 128,-1,20
 497 580 497 580 532 580 c 0,21,22
 664 580 664 580 664 535 c 0,23,24
 664 521 664 521 625 456.5 c 128,-1,25
 586 392 586 392 508 277 c 1,26,27
 674 52 674 52 674 39 c 0,28,29
 674 0 674 0 561 0 c 0,30,31
 386 0 386 0 378 38 c 1,32,-1
 339 169 l 1,33,-1
 332 169 l 1,34,-1
 306 38 l 2,0,1
EndSplineSet
EndChar

StartChar: y
Encoding: 121 121 92
Width: 661
GlyphClass: 2
Flags: W
LayerCount: 2
Fore
SplineSet
372 65 m 2,0,-1
 372 124 l 1,1,-1
 364 124 l 1,2,3
 359 119 359 119 349 111 c 128,-1,4
 339 103 339 103 302 90 c 128,-1,5
 265 77 265 77 219.5 77 c 128,-1,6
 174 77 174 77 139.5 91.5 c 128,-1,7
 105 106 105 106 85 130.5 c 128,-1,8
 65 155 65 155 54 196 c 0,9,10
 35 261 35 261 35 380 c 2,11,-1
 35 518 l 2,12,13
 35 539 35 539 94 559.5 c 128,-1,14
 153 580 153 580 218 580 c 0,15,16
 305 580 305 580 305 535 c 2,17,-1
 305 409 l 2,18,19
 305 209 305 209 337 209 c 0,20,21
 356 209 356 209 356 236 c 2,22,-1
 356 518 l 2,23,24
 356 539 356 539 419 559.5 c 128,-1,25
 482 580 482 580 554 580 c 128,-1,26
 626 580 626 580 626 541 c 2,27,-1
 626 68 l 2,28,29
 626 -155 626 -155 324 -155 c 0,30,31
 165 -155 165 -155 108 -124 c 0,32,33
 83 -110 83 -110 83 -95 c 0,34,35
 83 -71 83 -71 103 -14.5 c 128,-1,36
 123 42 123 42 140 42 c 0,37,38
 144 42 144 42 168 36 c 0,39,40
 242 16 242 16 291.5 16 c 128,-1,41
 341 16 341 16 356.5 27 c 128,-1,42
 372 38 372 38 372 65 c 2,0,-1
EndSplineSet
EndChar

StartChar: z
Encoding: 122 122 93
Width: 576
GlyphClass: 2
Flags: W
LayerCount: 2
Fore
SplineSet
531 428 m 0,0,1
 531 414 531 414 489.5 353.5 c 128,-1,2
 448 293 448 293 365 187 c 1,3,-1
 526 187 l 2,4,5
 551 187 551 187 551 117 c 0,6,7
 551 71 551 71 538 35.5 c 128,-1,8
 525 0 525 0 506 0 c 2,9,-1
 75 0 l 2,10,11
 48 0 48 0 36.5 47.5 c 128,-1,12
 25 95 25 95 25 150 c 0,13,14
 25 162 25 162 71.5 222.5 c 128,-1,15
 118 283 118 283 211 393 c 1,16,-1
 58 393 l 2,17,18
 33 393 33 393 33 463 c 0,19,20
 33 509 33 509 45.5 544.5 c 128,-1,21
 58 580 58 580 78 580 c 2,22,-1
 483 580 l 2,23,24
 531 580 531 580 531 428 c 0,0,1
EndSplineSet
EndChar

StartChar: braceleft
Encoding: 123 123 94
Width: 466
GlyphClass: 2
Flags: W
LayerCount: 2
Fore
SplineSet
412 711.5 m 128,-1,1
 421 704 421 704 421 662.5 c 128,-1,2
 421 621 421 621 405.5 590.5 c 128,-1,3
 390 560 390 560 364 560 c 0,4,5
 325 560 325 560 312.5 526 c 128,-1,6
 300 492 300 492 300 436.5 c 128,-1,7
 300 381 300 381 293.5 358.5 c 128,-1,8
 287 336 287 336 278 322 c 0,9,10
 259 296 259 296 235 283 c 1,11,12
 299 240 299 240 299 144 c 0,13,14
 299 70 299 70 312.5 40.5 c 128,-1,15
 326 11 326 11 362 11 c 0,16,17
 421 11 421 11 421 -103 c 0,18,19
 421 -125 421 -125 409.5 -138 c 128,-1,20
 398 -151 398 -151 369.5 -151 c 128,-1,21
 341 -151 341 -151 317 -148.5 c 128,-1,22
 293 -146 293 -146 255.5 -139.5 c 128,-1,23
 218 -133 218 -133 188 -116.5 c 128,-1,24
 158 -100 158 -100 130 -75 c 0,25,26
 69 -22 69 -22 69 87 c 0,27,28
 69 199 69 199 48 216 c 0,29,30
 40 223 40 223 31 226 c 0,31,32
 10 231 10 231 10 286 c 0,33,34
 10 340 10 340 26 342 c 0,35,36
 57 347 57 347 64 400 c 0,37,38
 69 431 69 431 69 483 c 128,-1,39
 69 535 69 535 85 576.5 c 128,-1,40
 101 618 101 618 129.5 643 c 128,-1,41
 158 668 158 668 188 684.5 c 128,-1,42
 218 701 218 701 256 708 c 0,43,44
 322 719 322 719 362.5 719 c 128,-1,0
 403 719 403 719 412 711.5 c 128,-1,1
EndSplineSet
EndChar

StartChar: bar
Encoding: 124 124 95
Width: 280
GlyphClass: 2
Flags: W
LayerCount: 2
Fore
SplineSet
235 669 m 2,0,-1
 235 -101 l 2,1,2
 235 -145 235 -145 99 -145 c 0,3,4
 45 -145 45 -145 45 -101 c 2,5,-1
 45 651 l 2,6,7
 45 710 45 710 173 710 c 0,8,9
 235 710 235 710 235 669 c 2,0,-1
EndSplineSet
EndChar

StartChar: braceright
Encoding: 125 125 96
Width: 466
GlyphClass: 2
Flags: W
LayerCount: 2
Fore
SplineSet
60.5 590.5 m 128,-1,1
 45 621 45 621 45 662.5 c 128,-1,2
 45 704 45 704 54 711.5 c 128,-1,3
 63 719 63 719 94 719 c 128,-1,4
 125 719 125 719 149 716.5 c 128,-1,5
 173 714 173 714 210.5 707.5 c 128,-1,6
 248 701 248 701 278 684.5 c 128,-1,7
 308 668 308 668 336 643 c 0,8,9
 397 590 397 590 397 481 c 0,10,11
 397 371 397 371 420 352 c 0,12,13
 426 347 426 347 432.5 345.5 c 128,-1,14
 439 344 439 344 444 340 c 0,15,16
 456 330 456 330 456 291.5 c 128,-1,17
 456 253 456 253 450 240.5 c 128,-1,18
 444 228 444 228 435.5 225.5 c 128,-1,19
 427 223 427 223 418 216 c 0,20,21
 397 200 397 200 397 87 c 0,22,23
 397 -22 397 -22 336.5 -75 c 128,-1,24
 276 -128 276 -128 210 -140 c 0,25,26
 144 -151 144 -151 106 -151 c 128,-1,27
 68 -151 68 -151 56.5 -138 c 128,-1,28
 45 -125 45 -125 45 -103 c 0,29,30
 45 11 45 11 104 11 c 0,31,32
 140 11 140 11 153.5 40.5 c 128,-1,33
 167 70 167 70 167 122 c 128,-1,34
 167 174 167 174 174 199.5 c 128,-1,35
 181 225 181 225 190 240 c 1,36,37
 210 269 210 269 231 283 c 1,38,39
 224 285 224 285 210.5 297.5 c 128,-1,40
 197 310 197 310 188 322 c 1,41,42
 166 356 166 356 166 408 c 0,43,44
 166 492 166 492 153.5 526 c 128,-1,45
 141 560 141 560 102 560 c 0,46,0
 76 560 76 560 60.5 590.5 c 128,-1,1
EndSplineSet
EndChar

StartChar: asciitilde
Encoding: 126 126 97
Width: 561
GlyphClass: 2
Flags: W
LayerCount: 2
Fore
SplineSet
469.5 642 m 128,-1,1
 418 610 418 610 379.5 610 c 128,-1,2
 341 610 341 610 287.5 627.5 c 128,-1,3
 234 645 234 645 218.5 645 c 128,-1,4
 203 645 203 645 159 627.5 c 128,-1,5
 115 610 115 610 97 610 c 128,-1,6
 79 610 79 610 59.5 645.5 c 128,-1,7
 40 681 40 681 40 700 c 0,8,9
 40 717 40 717 94.5 748.5 c 128,-1,10
 149 780 149 780 185 780 c 128,-1,11
 221 780 221 780 273.5 763 c 128,-1,12
 326 746 326 746 349 746 c 0,13,14
 356 746 356 746 398.5 763 c 128,-1,15
 441 780 441 780 460.5 780 c 128,-1,16
 480 780 480 780 500.5 743 c 128,-1,17
 521 706 521 706 521 689 c 0,18,0
 521 674 521 674 469.5 642 c 128,-1,1
EndSplineSet
EndChar

StartChar: exclamdown
Encoding: 161 161 98
Width: 332
GlyphClass: 2
Flags: W
LayerCount: 2
Fore
SplineSet
244 -138.5 m 128,-1,1
 186 -145 186 -145 108 -145 c 128,-1,2
 30 -145 30 -145 30 -122 c 0,3,4
 46 272 46 272 48.5 293.5 c 128,-1,5
 51 315 51 315 85.5 335 c 128,-1,6
 120 355 120 355 183 355 c 0,7,8
 270 355 270 355 274 308 c 1,9,-1
 301 -121 l 2,10,0
 302 -132 302 -132 244 -138.5 c 128,-1,1
74.5 569.5 m 128,-1,12
 107 589 107 589 165.5 589 c 128,-1,13
 224 589 224 589 255 571.5 c 128,-1,14
 286 554 286 554 286 499 c 0,15,16
 286 409 286 409 164 409 c 128,-1,17
 42 409 42 409 42 499 c 0,18,11
 42 550 42 550 74.5 569.5 c 128,-1,12
EndSplineSet
EndChar

StartChar: cent
Encoding: 162 162 99
Width: 545
GlyphClass: 2
Flags: W
LayerCount: 2
Fore
SplineSet
400 -53 m 2,0,1
 400 -97 400 -97 264 -97 c 0,2,3
 210 -97 210 -97 210 -53 c 2,4,-1
 210 1 l 1,5,6
 25 46 25 46 25 289 c 128,-1,7
 25 532 25 532 210 578 c 1,8,-1
 210 618 l 2,9,10
 210 677 210 677 338 677 c 0,11,12
 400 677 400 677 400 636 c 2,13,-1
 400 586 l 1,14,15
 468 581 468 581 496.5 562.5 c 128,-1,16
 525 544 525 544 525 505.5 c 128,-1,17
 525 467 525 467 509.5 418.5 c 128,-1,18
 494 370 494 370 469 370 c 0,19,20
 461 370 461 370 420.5 387 c 128,-1,21
 380 404 380 404 350.5 404 c 128,-1,22
 321 404 321 404 305.5 380.5 c 128,-1,23
 290 357 290 357 290 289.5 c 128,-1,24
 290 222 290 222 304 197.5 c 128,-1,25
 318 173 318 173 347.5 173 c 128,-1,26
 377 173 377 173 421 193 c 128,-1,27
 465 213 465 213 470 213 c 0,28,29
 489 213 489 213 506.5 168 c 128,-1,30
 524 123 524 123 524 88 c 0,31,32
 524 11 524 11 400 -4 c 1,33,-1
 400 -53 l 2,0,1
EndSplineSet
EndChar

StartChar: sterling
Encoding: 163 163 100
Width: 594
GlyphClass: 2
Flags: W
LayerCount: 2
Fore
SplineSet
97 257 m 0,0,1
 97 279 97 279 90 300 c 1,2,-1
 37 300 l 2,3,4
 24 300 24 300 17 326.5 c 128,-1,5
 10 353 10 353 10 387.5 c 128,-1,6
 10 422 10 422 18.5 448.5 c 128,-1,7
 27 475 27 475 36.5 482.5 c 128,-1,8
 46 490 46 490 56 490 c 2,9,-1
 88 490 l 1,10,11
 88 569 88 569 112 627.5 c 128,-1,12
 136 686 136 686 178 718 c 0,13,14
 258 780 258 780 361.5 780 c 128,-1,15
 465 780 465 780 502 762.5 c 128,-1,16
 539 745 539 745 539 713 c 0,17,18
 539 658 539 658 526 613 c 128,-1,19
 513 568 513 568 493 568 c 0,20,21
 481 568 481 568 458 575 c 128,-1,22
 435 582 435 582 413 582 c 128,-1,23
 391 582 391 582 377 559 c 128,-1,24
 363 536 363 536 361 513 c 2,25,-1
 359 490 l 1,26,-1
 492 490 l 2,27,28
 502 490 502 490 510 472.5 c 128,-1,29
 518 455 518 455 518 428 c 0,30,31
 518 300 518 300 473 300 c 2,32,-1
 356 300 l 1,33,34
 356 236 356 236 316 215 c 1,35,-1
 316 209 l 1,36,37
 506 219 506 219 539 219 c 0,38,39
 564 219 564 219 564 134 c 0,40,41
 564 60 564 60 555 38 c 0,42,43
 540 3 540 3 532 1 c 2,44,-1
 529 0 l 1,45,-1
 64 0 l 2,46,47
 15 0 15 0 15 92 c 0,48,49
 15 204 15 204 50 204 c 0,50,51
 97 204 97 204 97 257 c 0,0,1
EndSplineSet
EndChar

StartChar: currency
Encoding: 164 164 101
Width: 721
GlyphClass: 2
Flags: W
LayerCount: 2
Fore
SplineSet
500 14 m 1,0,1
 436 -9 436 -9 357.5 -9 c 128,-1,2
 279 -9 279 -9 215 14 c 1,3,-1
 171 -30 l 2,4,5
 159 -41 159 -41 141.5 -41 c 128,-1,6
 124 -41 124 -41 98 -15 c 0,7,8
 36 48 36 48 36 86 c 0,9,10
 36 104 36 104 49 117 c 2,11,-1
 71 139 l 1,12,13
 39 205 39 205 39 295.5 c 128,-1,14
 39 386 39 386 69 446 c 1,15,-1
 49 466 l 2,16,17
 36 479 36 479 36 497 c 0,18,19
 36 536 36 536 98 598 c 0,20,21
 124 624 124 624 149 624 c 0,22,23
 162 624 162 624 171 613 c 1,24,-1
 215 568 l 1,25,26
 280 589 280 589 360 589 c 128,-1,27
 440 589 440 589 501 569 c 1,28,-1
 543 611 l 2,29,30
 557 625 557 625 574 625 c 128,-1,31
 591 625 591 625 612 604 c 0,32,33
 685 531 685 531 685 496 c 0,34,35
 685 485 685 485 677 477 c 2,36,-1
 645 445 l 1,37,38
 674 382 674 382 674 295 c 128,-1,39
 674 208 674 208 642 141 c 1,40,-1
 677 106 l 2,41,42
 685 98 685 98 685 87 c 0,43,44
 685 52 685 52 612 -21 c 0,45,46
 591 -42 591 -42 574 -42 c 128,-1,47
 557 -42 557 -42 543 -28 c 2,48,-1
 500 14 l 1,0,1
357 136 m 0,49,50
 417 136 417 136 417 290 c 128,-1,51
 417 444 417 444 357 444 c 0,52,53
 295 444 295 444 295 290 c 128,-1,54
 295 136 295 136 357 136 c 0,49,50
EndSplineSet
EndChar

StartChar: yen
Encoding: 165 165 102
Width: 698
GlyphClass: 2
Flags: W
LayerCount: 2
Fore
SplineSet
547 78 m 2,0,-1
 487 78 l 1,1,-1
 487 29 l 2,2,3
 487 16 487 16 426 8 c 128,-1,4
 365 0 365 0 304.5 0 c 128,-1,5
 244 0 244 0 226 6.5 c 128,-1,6
 208 13 208 13 208 29 c 2,7,-1
 208 78 l 1,8,-1
 112 78 l 2,9,10
 97 78 97 78 97 119 c 0,11,12
 97 139 97 139 109.5 159 c 128,-1,13
 122 179 122 179 134 179 c 2,14,-1
 208 179 l 1,15,-1
 208 218 l 1,16,-1
 132 218 l 2,17,18
 117 218 117 218 117 258 c 0,19,20
 117 279 117 279 129.5 299.5 c 128,-1,21
 142 320 142 320 154 320 c 2,22,-1
 185 320 l 1,23,24
 10 612 10 612 10 643 c 0,25,26
 10 664 10 664 77 687 c 128,-1,27
 144 710 144 710 218 710 c 0,28,29
 313 710 313 710 319 654 c 2,30,-1
 346 385 l 1,31,-1
 357 385 l 1,32,-1
 376 647 l 2,33,34
 378 675 378 675 447 692.5 c 128,-1,35
 516 710 516 710 578 710 c 128,-1,36
 640 710 640 710 664 692 c 128,-1,37
 688 674 688 674 688 654.5 c 128,-1,38
 688 635 688 635 508 320 c 1,39,-1
 587 320 l 2,40,41
 602 320 602 320 602 283 c 0,42,43
 602 264 602 264 590 241 c 128,-1,44
 578 218 578 218 567 218 c 2,45,-1
 487 218 l 1,46,-1
 487 179 l 1,47,-1
 567 179 l 2,48,49
 582 179 582 179 582 142 c 0,50,51
 582 123 582 123 569.5 100.5 c 128,-1,52
 557 78 557 78 547 78 c 2,0,-1
EndSplineSet
EndChar

StartChar: brokenbar
Encoding: 166 166 103
Width: 280
GlyphClass: 2
Flags: W
LayerCount: 2
Fore
SplineSet
235 669 m 2,0,-1
 235 367 l 2,1,2
 235 323 235 323 99 323 c 0,3,4
 45 323 45 323 45 367 c 2,5,-1
 45 651 l 2,6,7
 45 710 45 710 173 710 c 0,8,9
 235 710 235 710 235 669 c 2,0,-1
235 202 m 2,10,-1
 235 -100 l 2,11,12
 235 -144 235 -144 99 -144 c 0,13,14
 45 -144 45 -144 45 -100 c 2,15,-1
 45 184 l 2,16,17
 45 243 45 243 173 243 c 0,18,19
 235 243 235 243 235 202 c 2,10,-1
EndSplineSet
EndChar

StartChar: section
Encoding: 167 167 104
Width: 579
GlyphClass: 2
Flags: W
LayerCount: 2
Fore
SplineSet
291 -106 m 0,0,1
 136 -106 136 -106 58 -70 c 0,2,3
 20 -53 20 -53 20 -36 c 0,4,5
 20 5 20 5 43 59.5 c 128,-1,6
 66 114 66 114 83 114 c 0,7,8
 93 114 93 114 148.5 89.5 c 128,-1,9
 204 65 204 65 242 65 c 128,-1,10
 280 65 280 65 291.5 70 c 128,-1,11
 303 75 303 75 303 89.5 c 128,-1,12
 303 104 303 104 284 112.5 c 128,-1,13
 265 121 265 121 236 124 c 128,-1,14
 207 127 207 127 174 136 c 128,-1,15
 141 145 141 145 112 159 c 128,-1,16
 83 173 83 173 64 205.5 c 128,-1,17
 45 238 45 238 45 286 c 0,18,19
 45 397 45 397 115 446 c 1,20,21
 45 483 45 483 45 575 c 0,22,23
 45 644 45 644 66 682 c 1,24,25
 76 698 76 698 95.5 718 c 128,-1,26
 115 738 115 738 142 751 c 0,27,28
 204 781 204 781 309 781 c 0,29,30
 465 781 465 781 524 749 c 0,31,32
 551 734 551 734 551 716 c 0,33,34
 551 677 551 677 524.5 626.5 c 128,-1,35
 498 576 498 576 482 576 c 128,-1,36
 466 576 466 576 420 593.5 c 128,-1,37
 374 611 374 611 351 611 c 0,38,39
 295 611 295 611 295 587 c 256,40,41
 295 563 295 563 364 554 c 1,42,43
 428 547 428 547 490 513 c 0,44,45
 520 497 520 497 539.5 462 c 128,-1,46
 559 427 559 427 559 378 c 0,47,48
 559 276 559 276 484 227 c 1,49,50
 559 182 559 182 559 89 c 0,51,52
 559 -106 559 -106 291 -106 c 0,0,1
308 352 m 0,53,54
 244 352 244 352 244 320 c 1,55,56
 258 302 258 302 298 302 c 0,57,58
 362 302 362 302 362 334 c 1,59,60
 348 352 348 352 308 352 c 0,53,54
EndSplineSet
EndChar

StartChar: dieresis
Encoding: 168 168 105
Width: 570
GlyphClass: 2
Flags: W
LayerCount: 2
Fore
SplineSet
146 600 m 128,-1,1
 94 600 94 600 67 619.5 c 128,-1,2
 40 639 40 639 40 691.5 c 128,-1,3
 40 744 40 744 67.5 762 c 128,-1,4
 95 780 95 780 146.5 780 c 128,-1,5
 198 780 198 780 225.5 762 c 128,-1,6
 253 744 253 744 253 691.5 c 128,-1,7
 253 639 253 639 225.5 619.5 c 128,-1,0
 198 600 198 600 146 600 c 128,-1,1
423 600 m 128,-1,9
 371 600 371 600 344 619.5 c 128,-1,10
 317 639 317 639 317 691.5 c 128,-1,11
 317 744 317 744 344.5 762 c 128,-1,12
 372 780 372 780 423.5 780 c 128,-1,13
 475 780 475 780 502.5 762 c 128,-1,14
 530 744 530 744 530 691.5 c 128,-1,15
 530 639 530 639 502.5 619.5 c 128,-1,8
 475 600 475 600 423 600 c 128,-1,9
EndSplineSet
EndChar

StartChar: copyright
Encoding: 169 169 106
Width: 685
GlyphClass: 2
Flags: W
LayerCount: 2
Fore
SplineSet
471 4 m 128,-1,1
 417 -9 417 -9 342.5 -9 c 128,-1,2
 268 -9 268 -9 214 4 c 128,-1,3
 160 17 160 17 116 50 c 0,4,5
 25 116 25 116 25 296 c 0,6,7
 25 440 25 440 86 511 c 0,8,9
 112 542 112 542 155.5 560 c 128,-1,10
 199 578 199 578 241.5 583.5 c 128,-1,11
 284 589 284 589 343 589 c 128,-1,12
 402 589 402 589 444 583.5 c 128,-1,13
 486 578 486 578 529.5 560 c 128,-1,14
 573 542 573 542 599.5 511 c 128,-1,15
 626 480 626 480 643 425.5 c 128,-1,16
 660 371 660 371 660 288 c 128,-1,17
 660 205 660 205 637 143.5 c 128,-1,18
 614 82 614 82 569.5 49.5 c 128,-1,0
 525 17 525 17 471 4 c 128,-1,1
169 119 m 128,-1,20
 229 71 229 71 342.5 71 c 128,-1,21
 456 71 456 71 515.5 119 c 128,-1,22
 575 167 575 167 575 295 c 0,23,24
 575 432 575 432 506 473 c 0,25,26
 471 494 471 494 434 501.5 c 128,-1,27
 397 509 397 509 348.5 509 c 128,-1,28
 300 509 300 509 268.5 505 c 128,-1,29
 237 501 237 501 205 488 c 128,-1,30
 173 475 173 475 154 452 c 0,31,32
 109 400 109 400 109 295 c 0,33,19
 109 167 109 167 169 119 c 128,-1,20
340 148 m 0,34,35
 303 148 303 148 262 168 c 1,36,37
 238 181 238 181 222.5 213 c 128,-1,38
 207 245 207 245 207 293 c 0,39,40
 207 441 207 441 351 441 c 0,41,42
 446 441 446 441 446 404 c 0,43,44
 446 386 446 386 439 363.5 c 128,-1,45
 432 341 432 341 419 341 c 0,46,47
 415 341 415 341 389 347.5 c 128,-1,48
 363 354 363 354 351.5 354 c 128,-1,49
 340 354 340 354 330.5 338.5 c 128,-1,50
 321 323 321 323 321 293 c 0,51,52
 321 233 321 233 352 233 c 0,53,54
 362 233 362 233 388 241 c 128,-1,55
 414 249 414 249 419 249 c 0,56,57
 431 249 431 249 438 226.5 c 128,-1,58
 445 204 445 204 445 187 c 0,59,60
 445 148 445 148 340 148 c 0,34,35
EndSplineSet
EndChar

StartChar: ordfeminine
Encoding: 170 170 107
Width: 332
GlyphClass: 2
Flags: W
LayerCount: 2
Fore
SplineSet
91 464 m 128,-1,1
 44 464 44 464 29.5 470 c 128,-1,2
 15 476 15 476 15 479.5 c 128,-1,3
 15 483 15 483 24 514 c 0,4,5
 51 613 51 613 84 700 c 0,6,7
 85 704 85 704 129 707 c 128,-1,8
 173 710 173 710 209 710 c 128,-1,9
 245 710 245 710 250 700 c 1,10,11
 284 608 284 608 300.5 546 c 128,-1,12
 317 484 317 484 317 481 c 0,13,14
 317 464 317 464 255.5 464 c 128,-1,15
 194 464 194 464 193 479 c 2,16,-1
 190 502 l 1,17,-1
 143 502 l 1,18,-1
 141 482 l 1,19,0
 138 464 138 464 91 464 c 128,-1,1
181 568 m 1,20,-1
 175 629 l 1,21,-1
 158 629 l 1,22,-1
 151 568 l 1,23,-1
 181 568 l 1,20,-1
EndSplineSet
EndChar

StartChar: guillemotleft
Encoding: 171 171 108
Width: 716
GlyphClass: 2
Flags: W
LayerCount: 2
Fore
SplineSet
255 288 m 1,0,1
 372 48 372 48 372 24 c 128,-1,2
 372 0 372 0 318 0 c 128,-1,3
 264 0 264 0 231.5 5.5 c 128,-1,4
 199 11 199 11 188.5 18 c 128,-1,5
 178 25 178 25 161.5 45 c 128,-1,6
 145 65 145 65 80 165.5 c 128,-1,7
 15 266 15 266 15 288 c 256,8,9
 15 310 15 310 84 409 c 0,10,11
 109 445 109 445 136.5 484 c 128,-1,12
 164 523 164 523 170.5 533 c 128,-1,13
 177 543 177 543 186.5 552 c 128,-1,14
 196 561 196 561 230.5 570.5 c 128,-1,15
 265 580 265 580 318.5 580 c 128,-1,16
 372 580 372 580 372 545 c 0,17,18
 372 524 372 524 255 288 c 1,0,1
569 288 m 1,19,20
 686 48 686 48 686 24 c 128,-1,21
 686 0 686 0 632 0 c 128,-1,22
 578 0 578 0 545.5 5.5 c 128,-1,23
 513 11 513 11 502.5 18 c 128,-1,24
 492 25 492 25 475.5 45 c 128,-1,25
 459 65 459 65 394 165.5 c 128,-1,26
 329 266 329 266 329 288 c 256,27,28
 329 310 329 310 398 409 c 0,29,30
 423 445 423 445 450.5 484 c 128,-1,31
 478 523 478 523 484.5 533 c 128,-1,32
 491 543 491 543 500.5 552 c 128,-1,33
 510 561 510 561 544.5 570.5 c 128,-1,34
 579 580 579 580 632.5 580 c 128,-1,35
 686 580 686 580 686 545 c 0,36,37
 686 524 686 524 569 288 c 1,19,20
EndSplineSet
EndChar

StartChar: logicalnot
Encoding: 172 172 109
Width: 553
GlyphClass: 2
Flags: W
LayerCount: 2
Fore
SplineSet
525 308 m 2,0,-1
 525 103 l 2,1,2
 525 92 525 92 485 86 c 128,-1,3
 445 80 445 80 397.5 80 c 128,-1,4
 350 80 350 80 350 95 c 2,5,-1
 350 190 l 1,6,-1
 63 190 l 2,7,8
 30 190 30 190 30 253 c 0,9,10
 30 296 30 296 51 331.5 c 128,-1,11
 72 367 72 367 95 367 c 2,12,-1
 498 367 l 2,13,14
 525 367 525 367 525 308 c 2,0,-1
EndSplineSet
EndChar

StartChar: registered
Encoding: 174 174 111
Width: 685
GlyphClass: 2
Flags: W
LayerCount: 2
Fore
SplineSet
471 4 m 128,-1,1
 417 -9 417 -9 342.5 -9 c 128,-1,2
 268 -9 268 -9 214 4 c 128,-1,3
 160 17 160 17 116 50 c 0,4,5
 25 116 25 116 25 296 c 0,6,7
 25 440 25 440 86 511 c 0,8,9
 112 542 112 542 155.5 560 c 128,-1,10
 199 578 199 578 241.5 583.5 c 128,-1,11
 284 589 284 589 343 589 c 128,-1,12
 402 589 402 589 444 583.5 c 128,-1,13
 486 578 486 578 529.5 560 c 128,-1,14
 573 542 573 542 599.5 511 c 128,-1,15
 626 480 626 480 643 425.5 c 128,-1,16
 660 371 660 371 660 288 c 128,-1,17
 660 205 660 205 637 143.5 c 128,-1,18
 614 82 614 82 569.5 49.5 c 128,-1,0
 525 17 525 17 471 4 c 128,-1,1
169 119 m 128,-1,20
 229 71 229 71 342.5 71 c 128,-1,21
 456 71 456 71 515.5 119 c 128,-1,22
 575 167 575 167 575 295 c 0,23,24
 575 432 575 432 506 473 c 0,25,26
 471 494 471 494 434 501.5 c 128,-1,27
 397 509 397 509 348.5 509 c 128,-1,28
 300 509 300 509 268.5 505 c 128,-1,29
 237 501 237 501 205 488 c 128,-1,30
 173 475 173 475 154 452 c 0,31,32
 109 400 109 400 109 295 c 0,33,19
 109 167 109 167 169 119 c 128,-1,20
329 162 m 2,34,35
 329 151 329 151 278.5 151 c 128,-1,36
 228 151 228 151 228 162 c 2,37,-1
 228 417 l 2,38,39
 228 424 228 424 234 428 c 0,40,41
 247 436 247 436 325.5 436 c 128,-1,42
 404 436 404 436 437 417.5 c 128,-1,43
 470 399 470 399 470 337.5 c 128,-1,44
 470 276 470 276 425 251 c 1,45,46
 478 190 478 190 478 170.5 c 128,-1,47
 478 151 478 151 407 151 c 0,48,49
 382 151 382 151 375.5 153 c 128,-1,50
 369 155 369 155 367 162 c 2,51,-1
 336 235 l 1,52,-1
 329 236 l 1,53,-1
 329 162 l 2,34,35
329 306 m 1,54,-1
 341 306 l 2,55,56
 354 306 354 306 361 312 c 128,-1,57
 368 318 368 318 368 338 c 0,58,59
 368 369 368 369 344 369 c 2,60,-1
 329 369 l 1,61,-1
 329 306 l 1,54,-1
EndSplineSet
EndChar

StartChar: macron
Encoding: 175 175 112
Width: 553
GlyphClass: 2
Flags: W
LayerCount: 2
Fore
SplineSet
462 610 m 2,0,-1
 57 610 l 2,1,2
 46 610 46 610 38 628.5 c 128,-1,3
 30 647 30 647 30 678 c 128,-1,4
 30 709 30 709 52.5 739.5 c 128,-1,5
 75 770 75 770 95 770 c 2,6,-1
 497 770 l 2,7,8
 523 770 523 770 523 705 c 0,9,10
 523 673 523 673 502 641.5 c 128,-1,11
 481 610 481 610 462 610 c 2,0,-1
EndSplineSet
EndChar

StartChar: degree
Encoding: 176 176 113
Width: 375
GlyphClass: 2
Flags: W
LayerCount: 2
Fore
SplineSet
293 491.5 m 128,-1,1
 256 464 256 464 187.5 464 c 128,-1,2
 119 464 119 464 82 491.5 c 128,-1,3
 45 519 45 519 45 590.5 c 128,-1,4
 45 662 45 662 82 686 c 128,-1,5
 119 710 119 710 187 710 c 128,-1,6
 255 710 255 710 292.5 686 c 128,-1,7
 330 662 330 662 330 590.5 c 128,-1,0
 330 519 330 519 293 491.5 c 128,-1,1
149 587 m 0,8,9
 149 553 149 553 187.5 553 c 128,-1,10
 226 553 226 553 226 587 c 0,11,12
 226 607 226 607 216 613.5 c 128,-1,13
 206 620 206 620 190.5 620 c 128,-1,14
 175 620 175 620 168 618 c 0,15,16
 149 613 149 613 149 587 c 0,8,9
EndSplineSet
EndChar

StartChar: plusminus
Encoding: 177 177 114
Width: 553
GlyphClass: 2
Flags: W
LayerCount: 2
Fore
SplineSet
253 217 m 0,0,1
 188 217 188 217 188 243 c 2,2,-1
 188 376 l 1,3,-1
 57 376 l 2,4,5
 46 376 46 376 38 394.5 c 128,-1,6
 30 413 30 413 30 447.5 c 128,-1,7
 30 482 30 482 52 517.5 c 128,-1,8
 74 553 74 553 95 553 c 2,9,-1
 188 553 l 1,10,-1
 188 665 l 2,11,12
 188 684 188 684 221.5 697 c 128,-1,13
 255 710 255 710 291.5 710 c 128,-1,14
 328 710 328 710 346.5 702 c 128,-1,15
 365 694 365 694 365 683 c 2,16,-1
 365 553 l 1,17,-1
 497 553 l 2,18,19
 523 553 523 553 523 488 c 0,20,21
 523 455 523 455 502 415.5 c 128,-1,22
 481 376 481 376 462 376 c 2,23,-1
 365 376 l 1,24,-1
 365 258 l 2,25,26
 365 241 365 241 327.5 229 c 128,-1,27
 290 217 290 217 253 217 c 0,0,1
462 0 m 2,28,-1
 57 0 l 2,29,30
 46 0 46 0 38 18.5 c 128,-1,31
 30 37 30 37 30 71.5 c 128,-1,32
 30 106 30 106 52 141.5 c 128,-1,33
 74 177 74 177 95 177 c 2,34,-1
 497 177 l 2,35,36
 523 177 523 177 523 112 c 0,37,38
 523 79 523 79 502 39.5 c 128,-1,39
 481 0 481 0 462 0 c 2,28,-1
EndSplineSet
EndChar

StartChar: twosuperior
Encoding: 178 178 115
Width: 362
GlyphClass: 2
Flags: W
LayerCount: 2
Fore
SplineSet
62 596 m 0,0,1
 47 596 47 596 36 635 c 128,-1,2
 25 674 25 674 25 708 c 0,3,4
 25 715 25 715 42 724 c 1,5,6
 82 748 82 748 159.5 748 c 128,-1,7
 237 748 237 748 285.5 722 c 128,-1,8
 334 696 334 696 334 640 c 0,9,10
 334 611 334 611 319.5 585.5 c 128,-1,11
 305 560 305 560 287 545.5 c 128,-1,12
 269 531 269 531 245 518 c 0,13,14
 214 502 214 502 193 497 c 1,15,-1
 317 497 l 2,16,17
 337 497 337 497 337 440 c 0,18,19
 337 411 337 411 330.5 393.5 c 128,-1,20
 324 376 324 376 318 374 c 2,21,-1
 311 371 l 1,22,-1
 60 371 l 2,23,24
 27 371 27 371 27 475 c 0,25,26
 27 484 27 484 61.5 507.5 c 128,-1,27
 96 531 96 531 131 558.5 c 128,-1,28
 166 586 166 586 166 604 c 0,29,30
 166 620 166 620 142 620 c 128,-1,31
 118 620 118 620 92 608 c 128,-1,32
 66 596 66 596 62 596 c 0,0,1
EndSplineSet
EndChar

StartChar: threesuperior
Encoding: 179 179 116
Width: 364
GlyphClass: 2
Flags: W
LayerCount: 2
Fore
SplineSet
25 400 m 0,0,1
 25 459 25 459 46 490 c 0,2,3
 54 501 54 501 59 501 c 128,-1,4
 64 501 64 501 90 491.5 c 128,-1,5
 116 482 116 482 141 482 c 128,-1,6
 166 482 166 482 166 498 c 0,7,8
 166 520 166 520 118 522 c 0,9,10
 99 522 99 522 98 522 c 0,11,12
 86 527 86 527 86 557.5 c 128,-1,13
 86 588 86 588 98 593 c 0,14,15
 100 594 100 594 118 594 c 0,16,17
 166 596 166 596 166 616 c 0,18,19
 166 632 166 632 142.5 632 c 128,-1,20
 119 632 119 632 91.5 620.5 c 128,-1,21
 64 609 64 609 61 609 c 0,22,23
 48 609 48 609 38.5 648.5 c 128,-1,24
 29 688 29 688 29 701 c 128,-1,25
 29 714 29 714 42 724 c 0,26,27
 76 748 76 748 161.5 748 c 128,-1,28
 247 748 247 748 288 718.5 c 128,-1,29
 329 689 329 689 329 648 c 0,30,31
 329 623 329 623 318 604 c 0,32,33
 305 579 305 579 287 568 c 1,34,35
 305 561 305 561 319.5 534.5 c 128,-1,36
 334 508 334 508 334 480 c 0,37,38
 334 422 334 422 284.5 394 c 128,-1,39
 235 366 235 366 159 366 c 0,40,41
 88 366 88 366 42 386 c 0,42,43
 25 394 25 394 25 400 c 0,0,1
EndSplineSet
EndChar

StartChar: acute
Encoding: 180 180 117
Width: 380
GlyphClass: 2
Flags: W
LayerCount: 2
Fore
SplineSet
260 780 m 0,0,1
 283 780 283 780 306.5 742 c 128,-1,2
 330 704 330 704 330 648 c 0,3,4
 330 633 330 633 243.5 621.5 c 128,-1,5
 157 610 157 610 100 610 c 0,6,7
 81 610 81 610 65.5 634 c 128,-1,8
 50 658 50 658 50 689.5 c 128,-1,9
 50 721 50 721 124.5 750.5 c 128,-1,10
 199 780 199 780 260 780 c 0,0,1
EndSplineSet
EndChar

StartChar: mu
Encoding: 181 181 118
AltUni2: 0003bc.ffffffff.0
Width: 688
GlyphClass: 2
Flags: W
LayerCount: 2
Fore
SplineSet
247 31 m 1,0,-1
 243 31 l 1,1,2
 310 -106 310 -106 310 -125 c 0,3,4
 310 -155 310 -155 138 -155 c 0,5,6
 58 -155 58 -155 46 -144 c 1,7,8
 40 -140 40 -140 40 -132 c 2,9,-1
 40 523 l 2,10,11
 40 545 40 545 103.5 562.5 c 128,-1,12
 167 580 167 580 224 580 c 0,13,14
 310 580 310 580 310 532 c 2,15,-1
 310 265 l 2,16,17
 310 196 310 196 317 166 c 128,-1,18
 324 136 324 136 349 136 c 0,19,20
 378 136 378 136 378 170 c 2,21,-1
 378 522 l 2,22,23
 378 546 378 546 443.5 563 c 128,-1,24
 509 580 509 580 570 580 c 0,25,26
 648 580 648 580 648 541 c 2,27,-1
 648 25 l 2,28,29
 648 13 648 13 589.5 6.5 c 128,-1,30
 531 0 531 0 466 0 c 128,-1,31
 401 0 401 0 399 17 c 2,32,-1
 389 81 l 1,33,-1
 381 81 l 1,34,35
 380 78 380 78 379 72.5 c 128,-1,36
 378 67 378 67 372 53 c 128,-1,37
 366 39 366 39 358 28 c 0,38,39
 336 0 336 0 303 0 c 128,-1,40
 270 0 270 0 247 31 c 1,0,-1
EndSplineSet
EndChar

StartChar: paragraph
Encoding: 182 182 119
Width: 703
GlyphClass: 2
Flags: W
LayerCount: 2
Fore
SplineSet
222 197 m 2,0,1
 117 197 117 197 68.5 265 c 128,-1,2
 20 333 20 333 20 440 c 0,3,4
 20 576 20 576 78 642 c 0,5,6
 130 700 130 700 248 714 c 0,7,8
 298 720 298 720 369 720 c 0,9,10
 658 720 658 720 658 668 c 2,11,-1
 658 -121 l 2,12,13
 658 -145 658 -145 535 -145 c 0,14,15
 487 -145 487 -145 487 -121 c 2,16,-1
 487 537 l 1,17,-1
 443 537 l 1,18,-1
 443 -121 l 2,19,20
 443 -145 443 -145 320 -145 c 0,21,22
 272 -145 272 -145 272 -121 c 2,23,-1
 272 197 l 1,24,-1
 222 197 l 2,0,1
EndSplineSet
EndChar

StartChar: periodcentered
Encoding: 183 183 120
Width: 293
GlyphClass: 2
Flags: W
LayerCount: 2
Fore
SplineSet
226 223 m 128,-1,1
 199 201 199 201 146.5 201 c 128,-1,2
 94 201 94 201 67 223 c 128,-1,3
 40 245 40 245 40 304 c 128,-1,4
 40 363 40 363 67.5 382.5 c 128,-1,5
 95 402 95 402 147 402 c 128,-1,6
 199 402 199 402 226 382.5 c 128,-1,7
 253 363 253 363 253 304 c 128,-1,0
 253 245 253 245 226 223 c 128,-1,1
EndSplineSet
EndChar

StartChar: cedilla
Encoding: 184 184 121
Width: 268
GlyphClass: 2
Flags: W
LayerCount: 2
Fore
SplineSet
85 -74 m 1,0,-1
 56 -75 l 2,1,2
 40 -75 40 -75 40 -44 c 2,3,-1
 40 3 l 2,4,5
 40 11 40 11 64 18 c 128,-1,6
 88 25 88 25 114.5 25 c 128,-1,7
 141 25 141 25 141 10 c 2,8,-1
 141 -15 l 1,9,10
 228 -18 228 -18 228 -84 c 0,11,12
 228 -115 228 -115 198 -134.5 c 128,-1,13
 168 -154 168 -154 134.5 -159.5 c 128,-1,14
 101 -165 101 -165 63 -165 c 0,15,16
 55 -165 55 -165 50 -149.5 c 128,-1,17
 45 -134 45 -134 45 -117 c 128,-1,18
 45 -100 45 -100 53 -100 c 0,19,20
 127 -100 127 -100 127 -84 c 0,21,22
 127 -74 127 -74 85 -74 c 1,0,-1
EndSplineSet
EndChar

StartChar: onesuperior
Encoding: 185 185 122
Width: 275
GlyphClass: 2
Flags: W
LayerCount: 2
Fore
SplineSet
123 367 m 0,0,1
 78 367 78 367 78 380 c 2,2,-1
 78 604 l 1,3,-1
 24 604 l 2,4,5
 15 604 15 604 15 644.5 c 128,-1,6
 15 685 15 685 24 712 c 1,7,8
 26 722 26 722 84 730.5 c 128,-1,9
 142 739 142 739 188.5 739 c 128,-1,10
 235 739 235 739 235 714 c 2,11,-1
 235 380 l 2,12,13
 235 367 235 367 123 367 c 0,0,1
EndSplineSet
EndChar

StartChar: ordmasculine
Encoding: 186 186 123
Width: 375
GlyphClass: 2
Flags: W
LayerCount: 2
Fore
SplineSet
293 491.5 m 128,-1,1
 256 464 256 464 187.5 464 c 128,-1,2
 119 464 119 464 82 491.5 c 128,-1,3
 45 519 45 519 45 590.5 c 128,-1,4
 45 662 45 662 82 686 c 128,-1,5
 119 710 119 710 187 710 c 128,-1,6
 255 710 255 710 292.5 686 c 128,-1,7
 330 662 330 662 330 590.5 c 128,-1,0
 330 519 330 519 293 491.5 c 128,-1,1
189 556 m 0,8,9
 209 556 209 556 209 587.5 c 128,-1,10
 209 619 209 619 187.5 619 c 128,-1,11
 166 619 166 619 166 589 c 0,12,13
 166 574 166 574 172.5 565 c 128,-1,14
 179 556 179 556 189 556 c 0,8,9
EndSplineSet
EndChar

StartChar: guillemotright
Encoding: 187 187 124
Width: 694
GlyphClass: 2
Flags: W
LayerCount: 2
Fore
SplineSet
30 545 m 0,0,1
 30 580 30 580 152 580 c 0,2,3
 192 580 192 580 216 551 c 0,4,5
 219 548 219 548 227 537.5 c 128,-1,6
 235 527 235 527 247 512 c 128,-1,7
 259 497 259 497 318 402.5 c 128,-1,8
 377 308 377 308 377 287 c 128,-1,9
 377 266 377 266 316.5 165.5 c 128,-1,10
 256 65 256 65 238 42 c 128,-1,11
 220 19 220 19 203 9.5 c 128,-1,12
 186 0 186 0 142 0 c 128,-1,13
 98 0 98 0 70 3.5 c 128,-1,14
 42 7 42 7 36 12 c 128,-1,15
 30 17 30 17 30 26 c 128,-1,16
 30 35 30 35 59 101 c 128,-1,17
 88 167 88 167 147 288 c 1,18,19
 30 523 30 523 30 545 c 0,0,1
332 545 m 0,20,21
 332 580 332 580 454 580 c 0,22,23
 494 580 494 580 518 551 c 0,24,25
 521 548 521 548 529 537.5 c 128,-1,26
 537 527 537 527 549 512 c 128,-1,27
 561 497 561 497 620 402.5 c 128,-1,28
 679 308 679 308 679 287 c 128,-1,29
 679 266 679 266 618.5 165.5 c 128,-1,30
 558 65 558 65 540 42 c 128,-1,31
 522 19 522 19 505 9.5 c 128,-1,32
 488 0 488 0 444 0 c 128,-1,33
 400 0 400 0 372 3.5 c 128,-1,34
 344 7 344 7 338 12 c 128,-1,35
 332 17 332 17 332 26 c 128,-1,36
 332 35 332 35 361 101 c 128,-1,37
 390 167 390 167 449 288 c 1,38,39
 332 523 332 523 332 545 c 0,20,21
EndSplineSet
EndChar

StartChar: onequarter
Encoding: 188 188 125
Width: 771
GlyphClass: 2
Flags: W
LayerCount: 2
Fore
SplineSet
245 11.5 m 128,-1,1
 224 0 224 0 175 0 c 128,-1,2
 126 0 126 0 126 26 c 0,3,4
 126 28 126 28 128 34 c 1,5,-1
 482 660 l 2,6,7
 491 676 491 676 498.5 684.5 c 128,-1,8
 506 693 506 693 526 701.5 c 128,-1,9
 546 710 546 710 576 710 c 0,10,11
 638 710 638 710 638 683 c 0,12,13
 638 678 638 678 636 674 c 2,14,-1
 278 44 l 2,15,0
 266 23 266 23 245 11.5 c 128,-1,1
138 327 m 0,16,17
 93 327 93 327 93 340 c 2,18,-1
 93 564 l 1,19,-1
 39 564 l 2,20,21
 30 564 30 564 30 604.5 c 128,-1,22
 30 645 30 645 39 672 c 1,23,24
 41 682 41 682 99 690.5 c 128,-1,25
 157 699 157 699 203.5 699 c 128,-1,26
 250 699 250 699 250 674 c 2,27,-1
 250 340 l 2,28,29
 250 327 250 327 138 327 c 0,16,17
628 0 m 0,30,31
 584 0 584 0 584 13 c 2,32,-1
 584 73 l 1,33,-1
 446 73 l 2,34,35
 428 73 428 73 428 161 c 0,36,37
 428 171 428 171 473 246.5 c 128,-1,38
 518 322 518 322 536 347 c 0,39,40
 543 356 543 356 588 364 c 128,-1,41
 633 372 633 372 673 372 c 0,42,43
 741 372 741 372 741 347 c 2,44,-1
 741 13 l 2,45,46
 741 0 741 0 628 0 c 0,30,31
593 156 m 1,47,-1
 593 271 l 1,48,-1
 556 156 l 1,49,-1
 593 156 l 1,47,-1
EndSplineSet
EndChar

StartChar: onehalf
Encoding: 189 189 126
Width: 828
GlyphClass: 2
Flags: W
LayerCount: 2
Fore
SplineSet
235 11.5 m 128,-1,1
 214 0 214 0 165 0 c 128,-1,2
 116 0 116 0 116 26 c 0,3,4
 116 28 116 28 118 34 c 1,5,-1
 472 660 l 2,6,7
 481 676 481 676 488.5 684.5 c 128,-1,8
 496 693 496 693 516 701.5 c 128,-1,9
 536 710 536 710 566 710 c 0,10,11
 628 710 628 710 628 683 c 0,12,13
 628 678 628 678 626 674 c 2,14,-1
 268 44 l 2,15,0
 256 23 256 23 235 11.5 c 128,-1,1
138 327 m 0,16,17
 93 327 93 327 93 340 c 2,18,-1
 93 564 l 1,19,-1
 39 564 l 2,20,21
 30 564 30 564 30 604.5 c 128,-1,22
 30 645 30 645 39 672 c 1,23,24
 41 682 41 682 99 690.5 c 128,-1,25
 157 699 157 699 203.5 699 c 128,-1,26
 250 699 250 699 250 674 c 2,27,-1
 250 340 l 2,28,29
 250 327 250 327 138 327 c 0,16,17
523 225 m 0,30,31
 508 225 508 225 497 264 c 128,-1,32
 486 303 486 303 486 337 c 0,33,34
 486 344 486 344 502 354 c 0,35,36
 543 377 543 377 620.5 377 c 128,-1,37
 698 377 698 377 746.5 351 c 128,-1,38
 795 325 795 325 795 269 c 0,39,40
 795 240 795 240 780.5 214.5 c 128,-1,41
 766 189 766 189 748 174.5 c 128,-1,42
 730 160 730 160 706 148 c 1,43,44
 675 131 675 131 654 126 c 1,45,-1
 778 126 l 2,46,47
 798 126 798 126 798 69 c 0,48,49
 798 40 798 40 791.5 22.5 c 128,-1,50
 785 5 785 5 778 2 c 2,51,-1
 772 0 l 1,52,-1
 521 0 l 2,53,54
 488 0 488 0 488 104 c 0,55,56
 488 113 488 113 523 136.5 c 128,-1,57
 558 160 558 160 592.5 187.5 c 128,-1,58
 627 215 627 215 627 233 c 0,59,60
 627 249 627 249 602.5 249 c 128,-1,61
 578 249 578 249 552 237 c 128,-1,62
 526 225 526 225 523 225 c 0,30,31
EndSplineSet
EndChar

StartChar: threequarters
Encoding: 190 190 127
Width: 799
GlyphClass: 2
Flags: W
LayerCount: 2
Fore
SplineSet
291 11.5 m 128,-1,1
 270 0 270 0 221 0 c 128,-1,2
 172 0 172 0 172 26 c 0,3,4
 172 28 172 28 174 34 c 1,5,-1
 528 660 l 2,6,7
 537 676 537 676 544.5 684.5 c 128,-1,8
 552 693 552 693 572 701.5 c 128,-1,9
 592 710 592 710 622 710 c 0,10,11
 684 710 684 710 684 683 c 0,12,13
 684 678 684 678 682 674 c 2,14,-1
 324 44 l 2,15,0
 312 23 312 23 291 11.5 c 128,-1,1
30 363 m 0,16,17
 30 422 30 422 51 452 c 0,18,19
 59 464 59 464 64 464 c 128,-1,20
 69 464 69 464 95 454.5 c 128,-1,21
 121 445 121 445 146 445 c 128,-1,22
 171 445 171 445 171 461 c 0,23,24
 171 483 171 483 124 484 c 0,25,26
 104 485 104 485 103 485 c 0,27,28
 91 490 91 490 91 521 c 128,-1,29
 91 552 91 552 103 556 c 0,30,31
 105 557 105 557 124 558 c 0,32,33
 171 559 171 559 171 579 c 0,34,35
 171 595 171 595 147.5 595 c 128,-1,36
 124 595 124 595 96.5 583.5 c 128,-1,37
 69 572 69 572 66 572 c 0,38,39
 53 572 53 572 43.5 611.5 c 128,-1,40
 34 651 34 651 34 664 c 128,-1,41
 34 677 34 677 47 686 c 0,42,43
 81 711 81 711 166.5 711 c 128,-1,44
 252 711 252 711 293 681.5 c 128,-1,45
 334 652 334 652 334 611 c 0,46,47
 334 586 334 586 324 566 c 1,48,49
 310 542 310 542 292 531 c 1,50,51
 310 524 310 524 324.5 497.5 c 128,-1,52
 339 471 339 471 339 443 c 0,53,54
 339 385 339 385 289.5 357 c 128,-1,55
 240 329 240 329 164 329 c 0,56,57
 93 329 93 329 47 350 c 0,58,59
 30 357 30 357 30 363 c 0,16,17
656 0 m 0,60,61
 612 0 612 0 612 13 c 2,62,-1
 612 73 l 1,63,-1
 474 73 l 2,64,65
 456 73 456 73 456 161 c 0,66,67
 456 171 456 171 501 246.5 c 128,-1,68
 546 322 546 322 564 347 c 0,69,70
 571 356 571 356 616 364 c 128,-1,71
 661 372 661 372 701 372 c 0,72,73
 769 372 769 372 769 347 c 2,74,-1
 769 13 l 2,75,76
 769 0 769 0 656 0 c 0,60,61
621 156 m 1,77,-1
 621 271 l 1,78,-1
 584 156 l 1,79,-1
 621 156 l 1,77,-1
EndSplineSet
EndChar

StartChar: questiondown
Encoding: 191 191 128
Width: 599
GlyphClass: 2
Flags: W
LayerCount: 2
Fore
SplineSet
510 115 m 0,0,1
 538 115 538 115 558.5 48.5 c 128,-1,2
 579 -18 579 -18 579 -79 c 0,3,4
 579 -93 579 -93 548 -110.5 c 128,-1,5
 517 -128 517 -128 454 -141.5 c 128,-1,6
 391 -155 391 -155 317 -155 c 0,7,8
 30 -155 30 -155 30 46 c 0,9,10
 30 103 30 103 53.5 146 c 128,-1,11
 77 189 77 189 110 210 c 0,12,13
 178 255 178 255 232 260 c 1,14,-1
 256 263 l 1,15,16
 256 275 256 275 251 299 c 128,-1,17
 246 323 246 323 246 339.5 c 128,-1,18
 246 356 246 356 300.5 364.5 c 128,-1,19
 355 373 355 373 395 373 c 0,20,21
 456 373 456 373 470.5 343 c 128,-1,22
 485 313 485 313 485 216 c 0,23,24
 485 194 485 194 399 172 c 0,25,26
 367 164 367 164 340 145 c 128,-1,27
 313 126 313 126 313 99 c 0,28,29
 313 69 313 69 358.5 69 c 128,-1,30
 404 69 404 69 453.5 92 c 128,-1,31
 503 115 503 115 510 115 c 0,0,1
353 410 m 0,32,33
 285 410 285 410 249 427.5 c 128,-1,34
 213 445 213 445 213 500 c 0,35,36
 213 590 213 590 353 590 c 128,-1,37
 493 590 493 590 493 500 c 128,-1,38
 493 410 493 410 353 410 c 0,32,33
EndSplineSet
EndChar

StartChar: Agrave
Encoding: 192 192 129
Width: 748
GlyphClass: 2
Flags: W
LayerCount: 2
Fore
SplineSet
290.5 11 m 128,-1,1
 262 0 262 0 188 0 c 128,-1,2
 114 0 114 0 64.5 13.5 c 128,-1,3
 15 27 15 27 15 48 c 0,4,5
 15 72 15 72 104 354.5 c 128,-1,6
 193 637 193 637 206 680 c 1,7,8
 211 693 211 693 286.5 701.5 c 128,-1,9
 362 710 362 710 448.5 710 c 128,-1,10
 535 710 535 710 544 680 c 0,11,12
 733 52 733 52 733 42 c 128,-1,13
 733 32 733 32 721 22 c 0,14,15
 693 0 693 0 610 0 c 0,16,17
 433 0 433 0 429 42 c 2,18,-1
 422 107 l 1,19,-1
 326 107 l 1,20,-1
 321 51 l 2,21,0
 319 22 319 22 290.5 11 c 128,-1,1
401 297 m 1,22,-1
 386 477 l 1,23,-1
 364 477 l 1,24,-1
 347 297 l 1,25,-1
 401 297 l 1,22,-1
244 910 m 0,26,27
 305 910 305 910 379.5 880.5 c 128,-1,28
 454 851 454 851 454 819.5 c 128,-1,29
 454 788 454 788 438.5 764 c 128,-1,30
 423 740 423 740 404 740 c 0,31,32
 347 740 347 740 260.5 751.5 c 128,-1,33
 174 763 174 763 174 778 c 0,34,35
 174 834 174 834 197.5 872 c 128,-1,36
 221 910 221 910 244 910 c 0,26,27
EndSplineSet
EndChar

StartChar: Aacute
Encoding: 193 193 130
Width: 748
GlyphClass: 2
Flags: W
LayerCount: 2
Fore
SplineSet
290.5 11 m 128,-1,1
 262 0 262 0 188 0 c 128,-1,2
 114 0 114 0 64.5 13.5 c 128,-1,3
 15 27 15 27 15 48 c 0,4,5
 15 72 15 72 104 354.5 c 128,-1,6
 193 637 193 637 206 680 c 1,7,8
 211 693 211 693 286.5 701.5 c 128,-1,9
 362 710 362 710 448.5 710 c 128,-1,10
 535 710 535 710 544 680 c 0,11,12
 733 52 733 52 733 42 c 128,-1,13
 733 32 733 32 721 22 c 0,14,15
 693 0 693 0 610 0 c 0,16,17
 433 0 433 0 429 42 c 2,18,-1
 422 107 l 1,19,-1
 326 107 l 1,20,-1
 321 51 l 2,21,0
 319 22 319 22 290.5 11 c 128,-1,1
401 297 m 1,22,-1
 386 477 l 1,23,-1
 364 477 l 1,24,-1
 347 297 l 1,25,-1
 401 297 l 1,22,-1
484 910 m 0,26,27
 507 910 507 910 530.5 872 c 128,-1,28
 554 834 554 834 554 778 c 0,29,30
 554 763 554 763 467.5 751.5 c 128,-1,31
 381 740 381 740 324 740 c 0,32,33
 305 740 305 740 289.5 764 c 128,-1,34
 274 788 274 788 274 819.5 c 128,-1,35
 274 851 274 851 348.5 880.5 c 128,-1,36
 423 910 423 910 484 910 c 0,26,27
EndSplineSet
EndChar

StartChar: Acircumflex
Encoding: 194 194 131
Width: 748
GlyphClass: 2
Flags: W
LayerCount: 2
Fore
SplineSet
290.5 11 m 128,-1,1
 262 0 262 0 188 0 c 128,-1,2
 114 0 114 0 64.5 13.5 c 128,-1,3
 15 27 15 27 15 48 c 0,4,5
 15 72 15 72 104 354.5 c 128,-1,6
 193 637 193 637 206 680 c 1,7,8
 211 693 211 693 286.5 701.5 c 128,-1,9
 362 710 362 710 448.5 710 c 128,-1,10
 535 710 535 710 544 680 c 0,11,12
 733 52 733 52 733 42 c 128,-1,13
 733 32 733 32 721 22 c 0,14,15
 693 0 693 0 610 0 c 0,16,17
 433 0 433 0 429 42 c 2,18,-1
 422 107 l 1,19,-1
 326 107 l 1,20,-1
 321 51 l 2,21,0
 319 22 319 22 290.5 11 c 128,-1,1
401 297 m 1,22,-1
 386 477 l 1,23,-1
 364 477 l 1,24,-1
 347 297 l 1,25,-1
 401 297 l 1,22,-1
267.5 865.5 m 128,-1,27
 341 900 341 900 376.5 900 c 128,-1,28
 412 900 412 900 483 866 c 128,-1,29
 554 832 554 832 554 820 c 0,30,31
 554 785 554 785 543 757.5 c 128,-1,32
 532 730 532 730 514 730 c 0,33,34
 500 730 500 730 374 769 c 1,35,36
 247 730 247 730 234 730 c 0,37,38
 216 730 216 730 205 757.5 c 128,-1,39
 194 785 194 785 194 820 c 0,40,26
 194 831 194 831 267.5 865.5 c 128,-1,27
EndSplineSet
EndChar

StartChar: Atilde
Encoding: 195 195 132
Width: 748
GlyphClass: 2
Flags: W
LayerCount: 2
Fore
SplineSet
290.5 11 m 128,-1,1
 262 0 262 0 188 0 c 128,-1,2
 114 0 114 0 64.5 13.5 c 128,-1,3
 15 27 15 27 15 48 c 0,4,5
 15 72 15 72 104 354.5 c 128,-1,6
 193 637 193 637 206 680 c 1,7,8
 211 693 211 693 286.5 701.5 c 128,-1,9
 362 710 362 710 448.5 710 c 128,-1,10
 535 710 535 710 544 680 c 0,11,12
 733 52 733 52 733 42 c 128,-1,13
 733 32 733 32 721 22 c 0,14,15
 693 0 693 0 610 0 c 0,16,17
 433 0 433 0 429 42 c 2,18,-1
 422 107 l 1,19,-1
 326 107 l 1,20,-1
 321 51 l 2,21,0
 319 22 319 22 290.5 11 c 128,-1,1
401 297 m 1,22,-1
 386 477 l 1,23,-1
 364 477 l 1,24,-1
 347 297 l 1,25,-1
 401 297 l 1,22,-1
571.5 772 m 128,-1,27
 520 740 520 740 481.5 740 c 128,-1,28
 443 740 443 740 389.5 757.5 c 128,-1,29
 336 775 336 775 320.5 775 c 128,-1,30
 305 775 305 775 261 757.5 c 128,-1,31
 217 740 217 740 199 740 c 128,-1,32
 181 740 181 740 161.5 775.5 c 128,-1,33
 142 811 142 811 142 830 c 0,34,35
 142 847 142 847 196.5 878.5 c 128,-1,36
 251 910 251 910 287 910 c 128,-1,37
 323 910 323 910 375.5 893 c 128,-1,38
 428 876 428 876 451 876 c 0,39,40
 458 876 458 876 500.5 893 c 128,-1,41
 543 910 543 910 562.5 910 c 128,-1,42
 582 910 582 910 602.5 873 c 128,-1,43
 623 836 623 836 623 819 c 0,44,26
 623 804 623 804 571.5 772 c 128,-1,27
EndSplineSet
EndChar

StartChar: Adieresis
Encoding: 196 196 133
Width: 748
GlyphClass: 2
Flags: W
LayerCount: 2
Fore
SplineSet
290.5 11 m 128,-1,1
 262 0 262 0 188 0 c 128,-1,2
 114 0 114 0 64.5 13.5 c 128,-1,3
 15 27 15 27 15 48 c 0,4,5
 15 72 15 72 104 354.5 c 128,-1,6
 193 637 193 637 206 680 c 1,7,8
 211 693 211 693 286.5 701.5 c 128,-1,9
 362 710 362 710 448.5 710 c 128,-1,10
 535 710 535 710 544 680 c 0,11,12
 733 52 733 52 733 42 c 128,-1,13
 733 32 733 32 721 22 c 0,14,15
 693 0 693 0 610 0 c 0,16,17
 433 0 433 0 429 42 c 2,18,-1
 422 107 l 1,19,-1
 326 107 l 1,20,-1
 321 51 l 2,21,0
 319 22 319 22 290.5 11 c 128,-1,1
401 297 m 1,22,-1
 386 477 l 1,23,-1
 364 477 l 1,24,-1
 347 297 l 1,25,-1
 401 297 l 1,22,-1
240 730 m 128,-1,27
 188 730 188 730 161 749.5 c 128,-1,28
 134 769 134 769 134 821.5 c 128,-1,29
 134 874 134 874 161.5 892 c 128,-1,30
 189 910 189 910 240.5 910 c 128,-1,31
 292 910 292 910 319.5 892 c 128,-1,32
 347 874 347 874 347 821.5 c 128,-1,33
 347 769 347 769 319.5 749.5 c 128,-1,26
 292 730 292 730 240 730 c 128,-1,27
517 730 m 128,-1,35
 465 730 465 730 438 749.5 c 128,-1,36
 411 769 411 769 411 821.5 c 128,-1,37
 411 874 411 874 438.5 892 c 128,-1,38
 466 910 466 910 517.5 910 c 128,-1,39
 569 910 569 910 596.5 892 c 128,-1,40
 624 874 624 874 624 821.5 c 128,-1,41
 624 769 624 769 596.5 749.5 c 128,-1,34
 569 730 569 730 517 730 c 128,-1,35
EndSplineSet
EndChar

StartChar: Aring
Encoding: 197 197 134
Width: 748
GlyphClass: 2
Flags: W
LayerCount: 2
Fore
SplineSet
290.5 11 m 128,-1,1
 262 0 262 0 188 0 c 128,-1,2
 114 0 114 0 64.5 13.5 c 128,-1,3
 15 27 15 27 15 48 c 0,4,5
 15 72 15 72 104 354.5 c 128,-1,6
 193 637 193 637 206 680 c 1,7,8
 211 693 211 693 286.5 701.5 c 128,-1,9
 362 710 362 710 448.5 710 c 128,-1,10
 535 710 535 710 544 680 c 0,11,12
 733 52 733 52 733 42 c 128,-1,13
 733 32 733 32 721 22 c 0,14,15
 693 0 693 0 610 0 c 0,16,17
 433 0 433 0 429 42 c 2,18,-1
 422 107 l 1,19,-1
 326 107 l 1,20,-1
 321 51 l 2,21,0
 319 22 319 22 290.5 11 c 128,-1,1
401 297 m 1,22,-1
 386 477 l 1,23,-1
 364 477 l 1,24,-1
 347 297 l 1,25,-1
 401 297 l 1,22,-1
461 748.5 m 128,-1,27
 433 730 433 730 374 730 c 128,-1,28
 315 730 315 730 287 748.5 c 128,-1,29
 259 767 259 767 259 817.5 c 128,-1,30
 259 868 259 868 287 884 c 128,-1,31
 315 900 315 900 374 900 c 128,-1,32
 433 900 433 900 461 884 c 128,-1,33
 489 868 489 868 489 817.5 c 128,-1,26
 489 767 489 767 461 748.5 c 128,-1,27
352.5 801 m 128,-1,35
 358 797 358 797 374 797 c 128,-1,36
 390 797 390 797 395.5 801 c 128,-1,37
 401 805 401 805 401 815.5 c 128,-1,38
 401 826 401 826 395 829.5 c 128,-1,39
 389 833 389 833 373.5 833 c 128,-1,40
 358 833 358 833 352.5 829.5 c 128,-1,41
 347 826 347 826 347 815.5 c 128,-1,34
 347 805 347 805 352.5 801 c 128,-1,35
EndSplineSet
EndChar

StartChar: AE
Encoding: 198 198 135
Width: 1004
GlyphClass: 2
Flags: W
LayerCount: 2
Fore
SplineSet
941 0 m 2,0,-1
 517 0 l 2,1,2
 468 0 468 0 451 7 c 128,-1,3
 434 14 434 14 434 29 c 2,4,-1
 434 107 l 1,5,-1
 320 107 l 1,6,-1
 303 51 l 2,7,8
 294 22 294 22 263 11 c 128,-1,9
 232 0 232 0 173.5 0 c 128,-1,10
 115 0 115 0 78 8 c 0,11,12
 15 21 15 21 15 48 c 0,13,14
 15 67 15 67 128 318.5 c 128,-1,15
 241 570 241 570 297 672 c 0,16,17
 304 685 304 685 368.5 693.5 c 128,-1,18
 433 702 433 702 528 702 c 2,19,-1
 944 702 l 2,20,21
 965 702 965 702 965 632.5 c 128,-1,22
 965 563 965 563 956 528 c 128,-1,23
 947 493 947 493 932 493 c 0,24,25
 893 493 893 493 713 506 c 1,26,-1
 713 439 l 1,27,28
 861 445 861 445 906 445 c 0,29,30
 933 445 933 445 933 382 c 128,-1,31
 933 319 933 319 922.5 286.5 c 128,-1,32
 912 254 912 254 894 254 c 2,33,-1
 713 258 l 1,34,-1
 713 194 l 1,35,36
 887 207 887 207 953 207 c 0,37,38
 974 207 974 207 974 138 c 0,39,40
 974 0 974 0 941 0 c 2,0,-1
434 297 m 1,41,-1
 434 466 l 1,42,-1
 375 297 l 1,43,-1
 434 297 l 1,41,-1
EndSplineSet
EndChar

StartChar: Ccedilla
Encoding: 199 199 136
Width: 661
GlyphClass: 2
Flags: W
LayerCount: 2
Fore
SplineSet
464.5 -5.5 m 128,-1,1
 506 -2 506 -2 546 7.5 c 128,-1,2
 586 17 586 17 607.5 37.5 c 128,-1,3
 629 58 629 58 629 93 c 128,-1,4
 629 128 629 128 611.5 185 c 128,-1,5
 594 242 594 242 563 242 c 0,6,7
 552 242 552 242 486.5 221.5 c 128,-1,8
 421 201 421 201 396 201 c 0,9,10
 361 201 361 201 339.5 241 c 128,-1,11
 318 281 318 281 318 353 c 128,-1,12
 318 425 318 425 342.5 464 c 128,-1,13
 367 503 367 503 402 503 c 0,14,15
 425 503 425 503 489 487 c 128,-1,16
 553 471 553 471 563 471 c 0,17,18
 596 471 596 471 613.5 526 c 128,-1,19
 631 581 631 581 631 617 c 128,-1,20
 631 653 631 653 612 672 c 128,-1,21
 593 691 593 691 569 700 c 0,22,23
 516 720 516 720 394 720 c 0,24,25
 309 720 309 720 226 682 c 1,26,27
 173 659 173 659 132.5 621 c 128,-1,28
 92 583 92 583 63.5 513 c 128,-1,29
 35 443 35 443 35 352 c 0,30,31
 35 216 35 216 86 130 c 0,32,33
 108 93 108 93 140.5 66 c 128,-1,34
 173 39 173 39 202 25 c 128,-1,35
 231 11 231 11 266 3 c 128,-1,36
 301 -5 301 -5 322.5 -7 c 128,-1,37
 344 -9 344 -9 383.5 -9 c 128,-1,0
 423 -9 423 -9 464.5 -5.5 c 128,-1,1
356 -84 m 1,38,-1
 327 -85 l 2,39,40
 311 -85 311 -85 311 -54 c 2,41,-1
 311 -7 l 2,42,43
 311 1 311 1 335 8 c 128,-1,44
 359 15 359 15 385.5 15 c 128,-1,45
 412 15 412 15 412 0 c 2,46,-1
 412 -25 l 1,47,48
 499 -28 499 -28 499 -94 c 0,49,50
 499 -125 499 -125 469 -144.5 c 128,-1,51
 439 -164 439 -164 405.5 -169.5 c 128,-1,52
 372 -175 372 -175 334 -175 c 0,53,54
 326 -175 326 -175 321 -159.5 c 128,-1,55
 316 -144 316 -144 316 -127 c 128,-1,56
 316 -110 316 -110 324 -110 c 0,57,58
 398 -110 398 -110 398 -94 c 0,59,60
 398 -84 398 -84 356 -84 c 1,38,-1
EndSplineSet
EndChar

StartChar: Egrave
Encoding: 200 200 137
Width: 615
GlyphClass: 2
Flags: W
LayerCount: 2
Fore
SplineSet
552 0 m 2,0,-1
 128 0 l 2,1,2
 79 0 79 0 62 7 c 128,-1,3
 45 14 45 14 45 29 c 2,4,-1
 45 662 l 2,5,6
 45 688 45 688 68.5 699 c 128,-1,7
 92 710 92 710 153 710 c 2,8,-1
 555 710 l 2,9,10
 576 710 576 710 576 640.5 c 128,-1,11
 576 571 576 571 567 534.5 c 128,-1,12
 558 498 558 498 543 498 c 0,13,14
 478 498 478 498 324 511 c 1,15,-1
 324 444 l 1,16,17
 472 450 472 450 517 450 c 0,18,19
 544 450 544 450 544 387 c 128,-1,20
 544 324 544 324 533.5 291.5 c 128,-1,21
 523 259 523 259 505 259 c 2,22,-1
 324 263 l 1,23,-1
 324 199 l 1,24,25
 498 212 498 212 564 212 c 0,26,27
 585 212 585 212 585 142 c 128,-1,28
 585 72 585 72 576 36 c 128,-1,29
 567 0 567 0 552 0 c 2,0,-1
207 910 m 0,30,31
 268 910 268 910 342.5 880.5 c 128,-1,32
 417 851 417 851 417 819.5 c 128,-1,33
 417 788 417 788 401.5 764 c 128,-1,34
 386 740 386 740 367 740 c 0,35,36
 310 740 310 740 223.5 751.5 c 128,-1,37
 137 763 137 763 137 778 c 0,38,39
 137 834 137 834 160.5 872 c 128,-1,40
 184 910 184 910 207 910 c 0,30,31
EndSplineSet
EndChar

StartChar: Eacute
Encoding: 201 201 138
Width: 615
GlyphClass: 2
Flags: W
LayerCount: 2
Fore
SplineSet
552 0 m 2,0,-1
 128 0 l 2,1,2
 79 0 79 0 62 7 c 128,-1,3
 45 14 45 14 45 29 c 2,4,-1
 45 662 l 2,5,6
 45 688 45 688 68.5 699 c 128,-1,7
 92 710 92 710 153 710 c 2,8,-1
 555 710 l 2,9,10
 576 710 576 710 576 640.5 c 128,-1,11
 576 571 576 571 567 534.5 c 128,-1,12
 558 498 558 498 543 498 c 0,13,14
 478 498 478 498 324 511 c 1,15,-1
 324 444 l 1,16,17
 472 450 472 450 517 450 c 0,18,19
 544 450 544 450 544 387 c 128,-1,20
 544 324 544 324 533.5 291.5 c 128,-1,21
 523 259 523 259 505 259 c 2,22,-1
 324 263 l 1,23,-1
 324 199 l 1,24,25
 498 212 498 212 564 212 c 0,26,27
 585 212 585 212 585 142 c 128,-1,28
 585 72 585 72 576 36 c 128,-1,29
 567 0 567 0 552 0 c 2,0,-1
417 910 m 0,30,31
 440 910 440 910 463.5 872 c 128,-1,32
 487 834 487 834 487 778 c 0,33,34
 487 763 487 763 400.5 751.5 c 128,-1,35
 314 740 314 740 257 740 c 0,36,37
 238 740 238 740 222.5 764 c 128,-1,38
 207 788 207 788 207 819.5 c 128,-1,39
 207 851 207 851 281.5 880.5 c 128,-1,40
 356 910 356 910 417 910 c 0,30,31
EndSplineSet
EndChar

StartChar: Ecircumflex
Encoding: 202 202 139
Width: 615
GlyphClass: 2
Flags: W
LayerCount: 2
Fore
SplineSet
552 0 m 2,0,-1
 128 0 l 2,1,2
 79 0 79 0 62 7 c 128,-1,3
 45 14 45 14 45 29 c 2,4,-1
 45 662 l 2,5,6
 45 688 45 688 68.5 699 c 128,-1,7
 92 710 92 710 153 710 c 2,8,-1
 555 710 l 2,9,10
 576 710 576 710 576 640.5 c 128,-1,11
 576 571 576 571 567 534.5 c 128,-1,12
 558 498 558 498 543 498 c 0,13,14
 478 498 478 498 324 511 c 1,15,-1
 324 444 l 1,16,17
 472 450 472 450 517 450 c 0,18,19
 544 450 544 450 544 387 c 128,-1,20
 544 324 544 324 533.5 291.5 c 128,-1,21
 523 259 523 259 505 259 c 2,22,-1
 324 263 l 1,23,-1
 324 199 l 1,24,25
 498 212 498 212 564 212 c 0,26,27
 585 212 585 212 585 142 c 128,-1,28
 585 72 585 72 576 36 c 128,-1,29
 567 0 567 0 552 0 c 2,0,-1
200.5 865.5 m 128,-1,31
 274 900 274 900 309.5 900 c 128,-1,32
 345 900 345 900 416 866 c 128,-1,33
 487 832 487 832 487 820 c 0,34,35
 487 785 487 785 476 757.5 c 128,-1,36
 465 730 465 730 447 730 c 0,37,38
 433 730 433 730 307 769 c 1,39,40
 180 730 180 730 167 730 c 0,41,42
 149 730 149 730 138 757.5 c 128,-1,43
 127 785 127 785 127 820 c 0,44,30
 127 831 127 831 200.5 865.5 c 128,-1,31
EndSplineSet
EndChar

StartChar: Edieresis
Encoding: 203 203 140
Width: 615
GlyphClass: 2
Flags: W
LayerCount: 2
Fore
SplineSet
552 0 m 2,0,-1
 128 0 l 2,1,2
 79 0 79 0 62 7 c 128,-1,3
 45 14 45 14 45 29 c 2,4,-1
 45 662 l 2,5,6
 45 688 45 688 68.5 699 c 128,-1,7
 92 710 92 710 153 710 c 2,8,-1
 555 710 l 2,9,10
 576 710 576 710 576 640.5 c 128,-1,11
 576 571 576 571 567 534.5 c 128,-1,12
 558 498 558 498 543 498 c 0,13,14
 478 498 478 498 324 511 c 1,15,-1
 324 444 l 1,16,17
 472 450 472 450 517 450 c 0,18,19
 544 450 544 450 544 387 c 128,-1,20
 544 324 544 324 533.5 291.5 c 128,-1,21
 523 259 523 259 505 259 c 2,22,-1
 324 263 l 1,23,-1
 324 199 l 1,24,25
 498 212 498 212 564 212 c 0,26,27
 585 212 585 212 585 142 c 128,-1,28
 585 72 585 72 576 36 c 128,-1,29
 567 0 567 0 552 0 c 2,0,-1
173 730 m 128,-1,31
 121 730 121 730 94 749.5 c 128,-1,32
 67 769 67 769 67 821.5 c 128,-1,33
 67 874 67 874 94.5 892 c 128,-1,34
 122 910 122 910 173.5 910 c 128,-1,35
 225 910 225 910 252.5 892 c 128,-1,36
 280 874 280 874 280 821.5 c 128,-1,37
 280 769 280 769 252.5 749.5 c 128,-1,30
 225 730 225 730 173 730 c 128,-1,31
450 730 m 128,-1,39
 398 730 398 730 371 749.5 c 128,-1,40
 344 769 344 769 344 821.5 c 128,-1,41
 344 874 344 874 371.5 892 c 128,-1,42
 399 910 399 910 450.5 910 c 128,-1,43
 502 910 502 910 529.5 892 c 128,-1,44
 557 874 557 874 557 821.5 c 128,-1,45
 557 769 557 769 529.5 749.5 c 128,-1,38
 502 730 502 730 450 730 c 128,-1,39
EndSplineSet
EndChar

StartChar: Igrave
Encoding: 204 204 141
Width: 369
GlyphClass: 2
Flags: W
LayerCount: 2
Fore
SplineSet
263 6.5 m 128,-1,1
 202 0 202 0 140.5 0 c 128,-1,2
 79 0 79 0 62 5.5 c 128,-1,3
 45 11 45 11 45 24 c 2,4,-1
 45 646 l 2,5,6
 45 668 45 668 103 689.5 c 128,-1,7
 161 711 161 711 233 711 c 0,8,9
 297 711 297 711 316 684 c 0,10,11
 324 674 324 674 324 664 c 2,12,-1
 324 24 l 2,13,0
 324 13 324 13 263 6.5 c 128,-1,1
85 910 m 0,14,15
 146 910 146 910 220.5 880.5 c 128,-1,16
 295 851 295 851 295 819.5 c 128,-1,17
 295 788 295 788 279.5 764 c 128,-1,18
 264 740 264 740 245 740 c 0,19,20
 188 740 188 740 101.5 751.5 c 128,-1,21
 15 763 15 763 15 778 c 0,22,23
 15 834 15 834 38.5 872 c 128,-1,24
 62 910 62 910 85 910 c 0,14,15
EndSplineSet
EndChar

StartChar: Iacute
Encoding: 205 205 142
Width: 369
GlyphClass: 2
Flags: W
LayerCount: 2
Fore
SplineSet
263 6.5 m 128,-1,1
 202 0 202 0 140.5 0 c 128,-1,2
 79 0 79 0 62 5.5 c 128,-1,3
 45 11 45 11 45 24 c 2,4,-1
 45 646 l 2,5,6
 45 668 45 668 103 689.5 c 128,-1,7
 161 711 161 711 233 711 c 0,8,9
 297 711 297 711 316 684 c 0,10,11
 324 674 324 674 324 664 c 2,12,-1
 324 24 l 2,13,0
 324 13 324 13 263 6.5 c 128,-1,1
285 910 m 0,14,15
 308 910 308 910 331.5 872 c 128,-1,16
 355 834 355 834 355 778 c 0,17,18
 355 763 355 763 268.5 751.5 c 128,-1,19
 182 740 182 740 125 740 c 0,20,21
 106 740 106 740 90.5 764 c 128,-1,22
 75 788 75 788 75 819.5 c 128,-1,23
 75 851 75 851 149.5 880.5 c 128,-1,24
 224 910 224 910 285 910 c 0,14,15
EndSplineSet
EndChar

StartChar: Icircumflex
Encoding: 206 206 143
Width: 369
GlyphClass: 2
Flags: W
LayerCount: 2
Fore
SplineSet
263 6.5 m 128,-1,1
 202 0 202 0 140.5 0 c 128,-1,2
 79 0 79 0 62 5.5 c 128,-1,3
 45 11 45 11 45 24 c 2,4,-1
 45 646 l 2,5,6
 45 668 45 668 103 689.5 c 128,-1,7
 161 711 161 711 233 711 c 0,8,9
 297 711 297 711 316 684 c 0,10,11
 324 674 324 674 324 664 c 2,12,-1
 324 24 l 2,13,0
 324 13 324 13 263 6.5 c 128,-1,1
82.5 865.5 m 128,-1,15
 156 900 156 900 191.5 900 c 128,-1,16
 227 900 227 900 298 866 c 128,-1,17
 369 832 369 832 369 820 c 0,18,19
 369 785 369 785 358 757.5 c 128,-1,20
 347 730 347 730 329 730 c 0,21,22
 315 730 315 730 189 769 c 1,23,24
 62 730 62 730 49 730 c 0,25,26
 31 730 31 730 20 757.5 c 128,-1,27
 9 785 9 785 9 820 c 0,28,14
 9 831 9 831 82.5 865.5 c 128,-1,15
EndSplineSet
EndChar

StartChar: Idieresis
Encoding: 207 207 144
Width: 369
GlyphClass: 2
Flags: W
LayerCount: 2
Fore
SplineSet
263 6.5 m 128,-1,1
 202 0 202 0 140.5 0 c 128,-1,2
 79 0 79 0 62 5.5 c 128,-1,3
 45 11 45 11 45 24 c 2,4,-1
 45 646 l 2,5,6
 45 668 45 668 103 689.5 c 128,-1,7
 161 711 161 711 233 711 c 0,8,9
 297 711 297 711 316 684 c 0,10,11
 324 674 324 674 324 664 c 2,12,-1
 324 24 l 2,13,0
 324 13 324 13 263 6.5 c 128,-1,1
51 730 m 128,-1,15
 -1 730 -1 730 -28 749.5 c 128,-1,16
 -55 769 -55 769 -55 821.5 c 128,-1,17
 -55 874 -55 874 -27.5 892 c 128,-1,18
 0 910 0 910 51.5 910 c 128,-1,19
 103 910 103 910 130.5 892 c 128,-1,20
 158 874 158 874 158 821.5 c 128,-1,21
 158 769 158 769 130.5 749.5 c 128,-1,14
 103 730 103 730 51 730 c 128,-1,15
328 730 m 128,-1,23
 276 730 276 730 249 749.5 c 128,-1,24
 222 769 222 769 222 821.5 c 128,-1,25
 222 874 222 874 249.5 892 c 128,-1,26
 277 910 277 910 328.5 910 c 128,-1,27
 380 910 380 910 407.5 892 c 128,-1,28
 435 874 435 874 435 821.5 c 128,-1,29
 435 769 435 769 407.5 749.5 c 128,-1,22
 380 730 380 730 328 730 c 128,-1,23
EndSplineSet
EndChar

StartChar: Eth
Encoding: 208 208 145
Width: 776
GlyphClass: 2
Flags: W
LayerCount: 2
Fore
SplineSet
80 273 m 1,0,-1
 37 273 l 2,1,2
 26 273 26 273 18 291.5 c 128,-1,3
 10 310 10 310 10 344.5 c 128,-1,4
 10 379 10 379 32 414.5 c 128,-1,5
 54 450 54 450 75 450 c 2,6,-1
 80 450 l 1,7,-1
 80 661 l 2,8,9
 80 687 80 687 102 698.5 c 128,-1,10
 124 710 124 710 178 710 c 2,11,-1
 403 710 l 2,12,13
 595 710 595 710 668 634.5 c 128,-1,14
 741 559 741 559 741 360 c 128,-1,15
 741 161 741 161 665 80.5 c 128,-1,16
 589 0 589 0 399 0 c 2,17,-1
 163 0 l 2,18,19
 114 0 114 0 97 7 c 128,-1,20
 80 14 80 14 80 30 c 2,21,-1
 80 273 l 1,0,-1
391 561 m 0,22,23
 367 561 367 561 359 557 c 1,24,-1
 359 450 l 1,25,-1
 399 450 l 2,26,27
 425 450 425 450 425 385 c 0,28,29
 425 352 425 352 404 312.5 c 128,-1,30
 383 273 383 273 364 273 c 2,31,-1
 359 273 l 1,32,-1
 359 152 l 1,33,34
 374 149 374 149 397 149 c 0,35,36
 427 149 427 149 442.5 197 c 128,-1,37
 458 245 458 245 458 363 c 128,-1,38
 458 481 458 481 442 521 c 128,-1,39
 426 561 426 561 391 561 c 0,22,23
EndSplineSet
EndChar

StartChar: Ntilde
Encoding: 209 209 146
Width: 734
GlyphClass: 2
Flags: W
LayerCount: 2
Fore
SplineSet
257.5 8 m 128,-1,1
 196 0 196 0 135 0 c 128,-1,2
 74 0 74 0 57 7 c 128,-1,3
 40 14 40 14 40 29 c 2,4,-1
 40 643 l 2,5,6
 40 668 40 668 97.5 689 c 128,-1,7
 155 710 155 710 228 710 c 0,8,9
 254 710 254 710 267 708 c 0,10,11
 301 703 301 703 315 665 c 2,12,-1
 411 407 l 1,13,-1
 415 407 l 1,14,-1
 415 643 l 2,15,16
 415 668 415 668 472 689 c 128,-1,17
 529 710 529 710 602 710 c 0,18,19
 665 710 665 710 682 686 c 0,20,21
 694 669 694 669 694 655 c 2,22,-1
 694 29 l 2,23,24
 694 16 694 16 632.5 8 c 128,-1,25
 571 0 571 0 497.5 0 c 128,-1,26
 424 0 424 0 417 19 c 2,27,-1
 324 265 l 1,28,-1
 319 265 l 1,29,-1
 319 29 l 2,30,0
 319 16 319 16 257.5 8 c 128,-1,1
550.5 762 m 128,-1,32
 499 730 499 730 460.5 730 c 128,-1,33
 422 730 422 730 368.5 747.5 c 128,-1,34
 315 765 315 765 299.5 765 c 128,-1,35
 284 765 284 765 240 747.5 c 128,-1,36
 196 730 196 730 178 730 c 128,-1,37
 160 730 160 730 140.5 765.5 c 128,-1,38
 121 801 121 801 121 820 c 0,39,40
 121 837 121 837 175.5 868.5 c 128,-1,41
 230 900 230 900 266 900 c 128,-1,42
 302 900 302 900 354.5 883 c 128,-1,43
 407 866 407 866 430 866 c 0,44,45
 437 866 437 866 479.5 883 c 128,-1,46
 522 900 522 900 541.5 900 c 128,-1,47
 561 900 561 900 581.5 863 c 128,-1,48
 602 826 602 826 602 809 c 0,49,31
 602 794 602 794 550.5 762 c 128,-1,32
EndSplineSet
EndChar

StartChar: Ograve
Encoding: 210 210 147
Width: 776
GlyphClass: 2
Flags: W
LayerCount: 2
Fore
SplineSet
388 -9 m 0,0,1
 305 -9 305 -9 245.5 6.5 c 128,-1,2
 186 22 186 22 136 62 c 0,3,4
 35 141 35 141 35 365 c 0,5,6
 35 459 35 459 62.5 529 c 128,-1,7
 90 599 90 599 139 640 c 0,8,9
 235 720 235 720 388 720 c 0,10,11
 467 720 467 720 525.5 706 c 128,-1,12
 584 692 584 692 636 655 c 0,13,14
 741 579 741 579 741 365 c 0,15,16
 741 173 741 173 646 82 c 128,-1,17
 551 -9 551 -9 388 -9 c 0,0,1
388 148 m 128,-1,19
 409 148 409 148 421 162.5 c 128,-1,20
 433 177 433 177 441 224.5 c 128,-1,21
 449 272 449 272 449 357 c 128,-1,22
 449 442 449 442 441 488 c 128,-1,23
 433 534 433 534 421 548 c 128,-1,24
 409 562 409 562 388 562 c 128,-1,25
 367 562 367 562 355 548 c 128,-1,26
 343 534 343 534 335 488 c 128,-1,27
 327 442 327 442 327 357 c 128,-1,28
 327 272 327 272 335 224.5 c 128,-1,29
 343 177 343 177 355 162.5 c 128,-1,18
 367 148 367 148 388 148 c 128,-1,19
268 910 m 0,30,31
 329 910 329 910 403.5 880.5 c 128,-1,32
 478 851 478 851 478 819.5 c 128,-1,33
 478 788 478 788 462.5 764 c 128,-1,34
 447 740 447 740 428 740 c 0,35,36
 371 740 371 740 284.5 751.5 c 128,-1,37
 198 763 198 763 198 778 c 0,38,39
 198 834 198 834 221.5 872 c 128,-1,40
 245 910 245 910 268 910 c 0,30,31
EndSplineSet
EndChar

StartChar: Oacute
Encoding: 211 211 148
Width: 776
GlyphClass: 2
Flags: W
LayerCount: 2
Fore
SplineSet
388 -9 m 0,0,1
 305 -9 305 -9 245.5 6.5 c 128,-1,2
 186 22 186 22 136 62 c 0,3,4
 35 141 35 141 35 365 c 0,5,6
 35 459 35 459 62.5 529 c 128,-1,7
 90 599 90 599 139 640 c 0,8,9
 235 720 235 720 388 720 c 0,10,11
 467 720 467 720 525.5 706 c 128,-1,12
 584 692 584 692 636 655 c 0,13,14
 741 579 741 579 741 365 c 0,15,16
 741 173 741 173 646 82 c 128,-1,17
 551 -9 551 -9 388 -9 c 0,0,1
388 148 m 128,-1,19
 409 148 409 148 421 162.5 c 128,-1,20
 433 177 433 177 441 224.5 c 128,-1,21
 449 272 449 272 449 357 c 128,-1,22
 449 442 449 442 441 488 c 128,-1,23
 433 534 433 534 421 548 c 128,-1,24
 409 562 409 562 388 562 c 128,-1,25
 367 562 367 562 355 548 c 128,-1,26
 343 534 343 534 335 488 c 128,-1,27
 327 442 327 442 327 357 c 128,-1,28
 327 272 327 272 335 224.5 c 128,-1,29
 343 177 343 177 355 162.5 c 128,-1,18
 367 148 367 148 388 148 c 128,-1,19
498 920 m 0,30,31
 521 920 521 920 544.5 882 c 128,-1,32
 568 844 568 844 568 788 c 0,33,34
 568 773 568 773 481.5 761.5 c 128,-1,35
 395 750 395 750 338 750 c 0,36,37
 319 750 319 750 303.5 774 c 128,-1,38
 288 798 288 798 288 829.5 c 128,-1,39
 288 861 288 861 362.5 890.5 c 128,-1,40
 437 920 437 920 498 920 c 0,30,31
EndSplineSet
EndChar

StartChar: Ocircumflex
Encoding: 212 212 149
Width: 776
GlyphClass: 2
Flags: W
LayerCount: 2
Fore
SplineSet
388 -9 m 0,0,1
 305 -9 305 -9 245.5 6.5 c 128,-1,2
 186 22 186 22 136 62 c 0,3,4
 35 141 35 141 35 365 c 0,5,6
 35 459 35 459 62.5 529 c 128,-1,7
 90 599 90 599 139 640 c 0,8,9
 235 720 235 720 388 720 c 0,10,11
 467 720 467 720 525.5 706 c 128,-1,12
 584 692 584 692 636 655 c 0,13,14
 741 579 741 579 741 365 c 0,15,16
 741 173 741 173 646 82 c 128,-1,17
 551 -9 551 -9 388 -9 c 0,0,1
388 148 m 128,-1,19
 409 148 409 148 421 162.5 c 128,-1,20
 433 177 433 177 441 224.5 c 128,-1,21
 449 272 449 272 449 357 c 128,-1,22
 449 442 449 442 441 488 c 128,-1,23
 433 534 433 534 421 548 c 128,-1,24
 409 562 409 562 388 562 c 128,-1,25
 367 562 367 562 355 548 c 128,-1,26
 343 534 343 534 335 488 c 128,-1,27
 327 442 327 442 327 357 c 128,-1,28
 327 272 327 272 335 224.5 c 128,-1,29
 343 177 343 177 355 162.5 c 128,-1,18
 367 148 367 148 388 148 c 128,-1,19
281.5 875.5 m 128,-1,31
 355 910 355 910 390.5 910 c 128,-1,32
 426 910 426 910 497 876 c 128,-1,33
 568 842 568 842 568 830 c 0,34,35
 568 795 568 795 557 767.5 c 128,-1,36
 546 740 546 740 528 740 c 0,37,38
 514 740 514 740 388 779 c 1,39,40
 261 740 261 740 248 740 c 0,41,42
 230 740 230 740 219 767.5 c 128,-1,43
 208 795 208 795 208 830 c 0,44,30
 208 841 208 841 281.5 875.5 c 128,-1,31
EndSplineSet
EndChar

StartChar: Otilde
Encoding: 213 213 150
Width: 776
GlyphClass: 2
Flags: W
LayerCount: 2
Fore
SplineSet
388 -9 m 0,0,1
 305 -9 305 -9 245.5 6.5 c 128,-1,2
 186 22 186 22 136 62 c 0,3,4
 35 141 35 141 35 365 c 0,5,6
 35 459 35 459 62.5 529 c 128,-1,7
 90 599 90 599 139 640 c 0,8,9
 235 720 235 720 388 720 c 0,10,11
 467 720 467 720 525.5 706 c 128,-1,12
 584 692 584 692 636 655 c 0,13,14
 741 579 741 579 741 365 c 0,15,16
 741 173 741 173 646 82 c 128,-1,17
 551 -9 551 -9 388 -9 c 0,0,1
388 148 m 128,-1,19
 409 148 409 148 421 162.5 c 128,-1,20
 433 177 433 177 441 224.5 c 128,-1,21
 449 272 449 272 449 357 c 128,-1,22
 449 442 449 442 441 488 c 128,-1,23
 433 534 433 534 421 548 c 128,-1,24
 409 562 409 562 388 562 c 128,-1,25
 367 562 367 562 355 548 c 128,-1,26
 343 534 343 534 335 488 c 128,-1,27
 327 442 327 442 327 357 c 128,-1,28
 327 272 327 272 335 224.5 c 128,-1,29
 343 177 343 177 355 162.5 c 128,-1,18
 367 148 367 148 388 148 c 128,-1,19
581.5 772 m 128,-1,31
 530 740 530 740 491.5 740 c 128,-1,32
 453 740 453 740 399.5 757.5 c 128,-1,33
 346 775 346 775 330.5 775 c 128,-1,34
 315 775 315 775 271 757.5 c 128,-1,35
 227 740 227 740 209 740 c 128,-1,36
 191 740 191 740 171.5 775.5 c 128,-1,37
 152 811 152 811 152 830 c 0,38,39
 152 847 152 847 206.5 878.5 c 128,-1,40
 261 910 261 910 297 910 c 128,-1,41
 333 910 333 910 385.5 893 c 128,-1,42
 438 876 438 876 461 876 c 0,43,44
 468 876 468 876 510.5 893 c 128,-1,45
 553 910 553 910 572.5 910 c 128,-1,46
 592 910 592 910 612.5 873 c 128,-1,47
 633 836 633 836 633 819 c 0,48,30
 633 804 633 804 581.5 772 c 128,-1,31
EndSplineSet
EndChar

StartChar: Odieresis
Encoding: 214 214 151
Width: 776
GlyphClass: 2
Flags: W
LayerCount: 2
Fore
SplineSet
388 -9 m 0,0,1
 305 -9 305 -9 245.5 6.5 c 128,-1,2
 186 22 186 22 136 62 c 0,3,4
 35 141 35 141 35 365 c 0,5,6
 35 459 35 459 62.5 529 c 128,-1,7
 90 599 90 599 139 640 c 0,8,9
 235 720 235 720 388 720 c 0,10,11
 467 720 467 720 525.5 706 c 128,-1,12
 584 692 584 692 636 655 c 0,13,14
 741 579 741 579 741 365 c 0,15,16
 741 173 741 173 646 82 c 128,-1,17
 551 -9 551 -9 388 -9 c 0,0,1
388 148 m 128,-1,19
 409 148 409 148 421 162.5 c 128,-1,20
 433 177 433 177 441 224.5 c 128,-1,21
 449 272 449 272 449 357 c 128,-1,22
 449 442 449 442 441 488 c 128,-1,23
 433 534 433 534 421 548 c 128,-1,24
 409 562 409 562 388 562 c 128,-1,25
 367 562 367 562 355 548 c 128,-1,26
 343 534 343 534 335 488 c 128,-1,27
 327 442 327 442 327 357 c 128,-1,28
 327 272 327 272 335 224.5 c 128,-1,29
 343 177 343 177 355 162.5 c 128,-1,18
 367 148 367 148 388 148 c 128,-1,19
249 730 m 128,-1,31
 197 730 197 730 170 749.5 c 128,-1,32
 143 769 143 769 143 821.5 c 128,-1,33
 143 874 143 874 170.5 892 c 128,-1,34
 198 910 198 910 249.5 910 c 128,-1,35
 301 910 301 910 328.5 892 c 128,-1,36
 356 874 356 874 356 821.5 c 128,-1,37
 356 769 356 769 328.5 749.5 c 128,-1,30
 301 730 301 730 249 730 c 128,-1,31
526 730 m 128,-1,39
 474 730 474 730 447 749.5 c 128,-1,40
 420 769 420 769 420 821.5 c 128,-1,41
 420 874 420 874 447.5 892 c 128,-1,42
 475 910 475 910 526.5 910 c 128,-1,43
 578 910 578 910 605.5 892 c 128,-1,44
 633 874 633 874 633 821.5 c 128,-1,45
 633 769 633 769 605.5 749.5 c 128,-1,38
 578 730 578 730 526 730 c 128,-1,39
EndSplineSet
EndChar

StartChar: multiply
Encoding: 215 215 152
Width: 553
GlyphClass: 2
Flags: W
LayerCount: 2
Fore
SplineSet
181 64 m 0,0,1
 151 64 151 64 101.5 104.5 c 128,-1,2
 52 145 52 145 52 170 c 0,3,4
 52 176 52 176 83 208 c 128,-1,5
 114 240 114 240 152 278 c 1,6,7
 122 308 122 308 93 336 c 128,-1,8
 64 364 64 364 60 369 c 128,-1,9
 56 374 56 374 56 382 c 0,10,11
 56 416 56 416 101 447 c 128,-1,12
 146 478 146 478 183 478 c 0,13,14
 194 478 194 478 211 465.5 c 128,-1,15
 228 453 228 453 277 403 c 1,16,17
 353 479 353 479 359 483.5 c 128,-1,18
 365 488 365 488 367.5 488.5 c 128,-1,19
 370 489 370 489 372 489 c 2,20,-1
 376 489 l 2,21,22
 408 489 408 489 453 448 c 128,-1,23
 498 407 498 407 498 381 c 0,24,25
 498 370 498 370 482 356 c 1,26,27
 450 325 450 325 403 278 c 1,28,29
 443 238 443 238 451.5 230 c 128,-1,30
 460 222 460 222 468 214 c 128,-1,31
 476 206 476 206 480.5 201 c 128,-1,32
 485 196 485 196 489.5 192 c 128,-1,33
 494 188 494 188 496 185 c 128,-1,34
 498 182 498 182 500 180 c 128,-1,35
 502 178 502 178 502.5 176 c 128,-1,36
 503 174 503 174 503 172 c 2,37,-1
 503 168 l 2,38,39
 503 141 503 141 453 104.5 c 128,-1,40
 403 68 403 68 378 68 c 0,41,42
 366 68 366 68 354.5 77.5 c 128,-1,43
 343 87 343 87 277 153 c 1,44,45
 262 138 262 138 249 124 c 128,-1,46
 236 110 236 110 228 102 c 128,-1,47
 220 94 220 94 213 86.5 c 128,-1,48
 206 79 206 79 202 76 c 0,49,50
 193 66 193 66 190.5 65.5 c 128,-1,51
 188 65 188 65 186 64.5 c 128,-1,52
 184 64 184 64 181 64 c 0,0,1
EndSplineSet
EndChar

StartChar: Oslash
Encoding: 216 216 153
Width: 776
GlyphClass: 2
Flags: W
LayerCount: 2
Fore
SplineSet
389 -9 m 1,0,1
 389 -34 389 -34 322 -47 c 0,2,3
 285 -54 285 -54 230 -54 c 0,4,5
 208 -54 208 -54 198.5 -40.5 c 128,-1,6
 189 -27 189 -27 189 -12.5 c 128,-1,7
 189 2 189 2 194 24 c 1,8,9
 35 95 35 95 35 365 c 0,10,11
 35 607 35 607 178 680 c 0,12,13
 225 703 225 703 273 711.5 c 128,-1,14
 321 720 321 720 384 720 c 1,15,16
 396 774 396 774 538 774 c 0,17,18
 590 774 590 774 590 739 c 0,19,20
 590 722 590 722 566 693 c 1,21,22
 741 627 741 627 741 365 c 0,23,24
 741 110 741 110 600 34 c 1,25,26
 518 -9 518 -9 389 -9 c 1,0,1
388 148 m 128,-1,28
 409 148 409 148 421 162.5 c 128,-1,29
 433 177 433 177 441 224.5 c 128,-1,30
 449 272 449 272 449 357 c 128,-1,31
 449 442 449 442 441 488 c 128,-1,32
 433 534 433 534 421 548 c 128,-1,33
 409 562 409 562 388 562 c 128,-1,34
 367 562 367 562 355 548 c 128,-1,35
 343 534 343 534 335 488 c 128,-1,36
 327 442 327 442 327 357 c 128,-1,37
 327 272 327 272 335 224.5 c 128,-1,38
 343 177 343 177 355 162.5 c 128,-1,27
 367 148 367 148 388 148 c 128,-1,28
EndSplineSet
EndChar

StartChar: Ugrave
Encoding: 217 217 154
Width: 736
GlyphClass: 2
Flags: W
LayerCount: 2
Fore
SplineSet
608.5 63.5 m 128,-1,1
 526 -8 526 -8 369.5 -8 c 128,-1,2
 213 -8 213 -8 129 63.5 c 128,-1,3
 45 135 45 135 45 279 c 2,4,-1
 45 646 l 2,5,6
 45 671 45 671 101.5 691 c 128,-1,7
 158 711 158 711 233 711 c 0,8,9
 293 711 293 711 311 688 c 0,10,11
 324 670 324 670 324 657 c 2,12,-1
 324 359 l 2,13,14
 324 246 324 246 332.5 209.5 c 128,-1,15
 341 173 341 173 369 173 c 128,-1,16
 397 173 397 173 404.5 208.5 c 128,-1,17
 412 244 412 244 412 360 c 2,18,-1
 412 646 l 2,19,20
 412 671 412 671 468.5 691 c 128,-1,21
 525 711 525 711 599 711 c 0,22,23
 662 711 662 711 678 688 c 0,24,25
 691 670 691 670 691 657 c 2,26,-1
 691 279 l 2,27,0
 691 135 691 135 608.5 63.5 c 128,-1,1
258 910 m 0,28,29
 319 910 319 910 393.5 880.5 c 128,-1,30
 468 851 468 851 468 819.5 c 128,-1,31
 468 788 468 788 452.5 764 c 128,-1,32
 437 740 437 740 418 740 c 0,33,34
 361 740 361 740 274.5 751.5 c 128,-1,35
 188 763 188 763 188 778 c 0,36,37
 188 834 188 834 211.5 872 c 128,-1,38
 235 910 235 910 258 910 c 0,28,29
EndSplineSet
EndChar

StartChar: Uacute
Encoding: 218 218 155
Width: 736
GlyphClass: 2
Flags: W
LayerCount: 2
Fore
SplineSet
608.5 63.5 m 128,-1,1
 526 -8 526 -8 369.5 -8 c 128,-1,2
 213 -8 213 -8 129 63.5 c 128,-1,3
 45 135 45 135 45 279 c 2,4,-1
 45 646 l 2,5,6
 45 671 45 671 101.5 691 c 128,-1,7
 158 711 158 711 233 711 c 0,8,9
 293 711 293 711 311 688 c 0,10,11
 324 670 324 670 324 657 c 2,12,-1
 324 359 l 2,13,14
 324 246 324 246 332.5 209.5 c 128,-1,15
 341 173 341 173 369 173 c 128,-1,16
 397 173 397 173 404.5 208.5 c 128,-1,17
 412 244 412 244 412 360 c 2,18,-1
 412 646 l 2,19,20
 412 671 412 671 468.5 691 c 128,-1,21
 525 711 525 711 599 711 c 0,22,23
 662 711 662 711 678 688 c 0,24,25
 691 670 691 670 691 657 c 2,26,-1
 691 279 l 2,27,0
 691 135 691 135 608.5 63.5 c 128,-1,1
488 910 m 0,28,29
 511 910 511 910 534.5 872 c 128,-1,30
 558 834 558 834 558 778 c 0,31,32
 558 763 558 763 471.5 751.5 c 128,-1,33
 385 740 385 740 328 740 c 0,34,35
 309 740 309 740 293.5 764 c 128,-1,36
 278 788 278 788 278 819.5 c 128,-1,37
 278 851 278 851 352.5 880.5 c 128,-1,38
 427 910 427 910 488 910 c 0,28,29
EndSplineSet
EndChar

StartChar: Ucircumflex
Encoding: 219 219 156
Width: 736
GlyphClass: 2
Flags: W
LayerCount: 2
Fore
SplineSet
608.5 63.5 m 128,-1,1
 526 -8 526 -8 369.5 -8 c 128,-1,2
 213 -8 213 -8 129 63.5 c 128,-1,3
 45 135 45 135 45 279 c 2,4,-1
 45 646 l 2,5,6
 45 671 45 671 101.5 691 c 128,-1,7
 158 711 158 711 233 711 c 0,8,9
 293 711 293 711 311 688 c 0,10,11
 324 670 324 670 324 657 c 2,12,-1
 324 359 l 2,13,14
 324 246 324 246 332.5 209.5 c 128,-1,15
 341 173 341 173 369 173 c 128,-1,16
 397 173 397 173 404.5 208.5 c 128,-1,17
 412 244 412 244 412 360 c 2,18,-1
 412 646 l 2,19,20
 412 671 412 671 468.5 691 c 128,-1,21
 525 711 525 711 599 711 c 0,22,23
 662 711 662 711 678 688 c 0,24,25
 691 670 691 670 691 657 c 2,26,-1
 691 279 l 2,27,0
 691 135 691 135 608.5 63.5 c 128,-1,1
261.5 865.5 m 128,-1,29
 335 900 335 900 370.5 900 c 128,-1,30
 406 900 406 900 477 866 c 128,-1,31
 548 832 548 832 548 820 c 0,32,33
 548 785 548 785 537 757.5 c 128,-1,34
 526 730 526 730 508 730 c 0,35,36
 494 730 494 730 368 769 c 1,37,38
 241 730 241 730 228 730 c 0,39,40
 210 730 210 730 199 757.5 c 128,-1,41
 188 785 188 785 188 820 c 0,42,28
 188 831 188 831 261.5 865.5 c 128,-1,29
EndSplineSet
EndChar

StartChar: Udieresis
Encoding: 220 220 157
Width: 736
GlyphClass: 2
Flags: W
LayerCount: 2
Fore
SplineSet
608.5 63.5 m 128,-1,1
 526 -8 526 -8 369.5 -8 c 128,-1,2
 213 -8 213 -8 129 63.5 c 128,-1,3
 45 135 45 135 45 279 c 2,4,-1
 45 646 l 2,5,6
 45 671 45 671 101.5 691 c 128,-1,7
 158 711 158 711 233 711 c 0,8,9
 293 711 293 711 311 688 c 0,10,11
 324 670 324 670 324 657 c 2,12,-1
 324 359 l 2,13,14
 324 246 324 246 332.5 209.5 c 128,-1,15
 341 173 341 173 369 173 c 128,-1,16
 397 173 397 173 404.5 208.5 c 128,-1,17
 412 244 412 244 412 360 c 2,18,-1
 412 646 l 2,19,20
 412 671 412 671 468.5 691 c 128,-1,21
 525 711 525 711 599 711 c 0,22,23
 662 711 662 711 678 688 c 0,24,25
 691 670 691 670 691 657 c 2,26,-1
 691 279 l 2,27,0
 691 135 691 135 608.5 63.5 c 128,-1,1
229 730 m 128,-1,29
 177 730 177 730 150 749.5 c 128,-1,30
 123 769 123 769 123 821.5 c 128,-1,31
 123 874 123 874 150.5 892 c 128,-1,32
 178 910 178 910 229.5 910 c 128,-1,33
 281 910 281 910 308.5 892 c 128,-1,34
 336 874 336 874 336 821.5 c 128,-1,35
 336 769 336 769 308.5 749.5 c 128,-1,28
 281 730 281 730 229 730 c 128,-1,29
506 730 m 128,-1,37
 454 730 454 730 427 749.5 c 128,-1,38
 400 769 400 769 400 821.5 c 128,-1,39
 400 874 400 874 427.5 892 c 128,-1,40
 455 910 455 910 506.5 910 c 128,-1,41
 558 910 558 910 585.5 892 c 128,-1,42
 613 874 613 874 613 821.5 c 128,-1,43
 613 769 613 769 585.5 749.5 c 128,-1,36
 558 730 558 730 506 730 c 128,-1,37
EndSplineSet
EndChar

StartChar: Yacute
Encoding: 221 221 158
Width: 698
GlyphClass: 2
Flags: W
LayerCount: 2
Fore
SplineSet
426 8 m 128,-1,1
 365 0 365 0 304.5 0 c 128,-1,2
 244 0 244 0 226 6.5 c 128,-1,3
 208 13 208 13 208 29 c 2,4,-1
 208 203 l 1,5,6
 10 608 10 608 10 643 c 0,7,8
 10 664 10 664 77 687 c 128,-1,9
 144 710 144 710 218 710 c 0,10,11
 313 710 313 710 319 654 c 2,12,-1
 346 385 l 1,13,-1
 357 385 l 1,14,-1
 376 647 l 2,15,16
 378 675 378 675 447 692.5 c 128,-1,17
 516 710 516 710 578 710 c 128,-1,18
 640 710 640 710 664 692 c 128,-1,19
 688 674 688 674 688 654 c 0,20,21
 688 635 688 635 487 203 c 1,22,-1
 487 29 l 2,23,0
 487 16 487 16 426 8 c 128,-1,1
469 910 m 0,24,25
 492 910 492 910 515.5 872 c 128,-1,26
 539 834 539 834 539 778 c 0,27,28
 539 763 539 763 452.5 751.5 c 128,-1,29
 366 740 366 740 309 740 c 0,30,31
 290 740 290 740 274.5 764 c 128,-1,32
 259 788 259 788 259 819.5 c 128,-1,33
 259 851 259 851 333.5 880.5 c 128,-1,34
 408 910 408 910 469 910 c 0,24,25
EndSplineSet
EndChar

StartChar: Thorn
Encoding: 222 222 159
Width: 718
GlyphClass: 2
Flags: W
LayerCount: 2
Fore
SplineSet
324 696 m 2,0,-1
 324 630 l 1,1,2
 489 630 489 630 538 615 c 0,3,4
 609 593 609 593 632 566 c 0,5,6
 672 518 672 518 682 458 c 0,7,8
 688 422 688 422 688 377 c 128,-1,9
 688 332 688 332 682 295.5 c 128,-1,10
 676 259 676 259 667.5 232 c 128,-1,11
 659 205 659 205 642 184.5 c 128,-1,12
 625 164 625 164 609.5 150 c 128,-1,13
 594 136 594 136 568 126.5 c 128,-1,14
 542 117 542 117 521.5 111.5 c 128,-1,15
 501 106 501 106 468 104 c 0,16,17
 421 100 421 100 348 100 c 1,18,-1
 324 101 l 1,19,-1
 324 24 l 2,20,21
 324 14 324 14 273 7 c 128,-1,22
 222 0 222 0 163 0 c 128,-1,23
 104 0 104 0 81 3 c 128,-1,24
 58 6 58 6 51.5 11 c 128,-1,25
 45 16 45 16 45 24 c 2,26,-1
 45 678 l 2,27,28
 45 699 45 699 104 716 c 128,-1,29
 163 733 163 733 231 733 c 0,30,31
 324 733 324 733 324 696 c 2,0,-1
325 257 m 1,32,-1
 349 257 l 2,33,34
 369 257 369 257 379 261.5 c 128,-1,35
 389 266 389 266 398 292 c 128,-1,36
 407 318 407 318 407 361.5 c 128,-1,37
 407 405 407 405 402.5 428 c 128,-1,38
 398 451 398 451 388 460 c 0,39,40
 375 472 375 472 356 472 c 2,41,-1
 325 472 l 1,42,-1
 325 257 l 1,32,-1
EndSplineSet
EndChar

StartChar: germandbls
Encoding: 223 223 160
Width: 919
GlyphClass: 2
Flags: W
LayerCount: 2
Fore
SplineSet
185 0 m 0,0,1
 131 0 131 0 110 5 c 128,-1,2
 89 10 89 10 89 28 c 2,3,-1
 89 282 l 1,4,-1
 38 282 l 2,5,6
 27 282 27 282 18.5 309 c 128,-1,7
 10 336 10 336 10 373.5 c 128,-1,8
 10 411 10 411 24 441.5 c 128,-1,9
 38 472 38 472 56 472 c 2,10,-1
 86 472 l 1,11,12
 86 598 86 598 155.5 665.5 c 128,-1,13
 225 733 225 733 374 733 c 128,-1,14
 523 733 523 733 587 703 c 128,-1,15
 651 673 651 673 651 593 c 0,16,17
 651 562 651 562 637.5 517.5 c 128,-1,18
 624 473 624 473 624 446 c 128,-1,19
 624 419 624 419 641.5 403 c 128,-1,20
 659 387 659 387 685 378 c 128,-1,21
 711 369 711 369 741.5 354.5 c 128,-1,22
 772 340 772 340 798 322 c 128,-1,23
 824 304 824 304 841.5 269 c 128,-1,24
 859 234 859 234 859 185 c 128,-1,25
 859 136 859 136 839.5 98.5 c 128,-1,26
 820 61 820 61 792 40.5 c 128,-1,27
 764 20 764 20 724 8 c 0,28,29
 661 -11 661 -11 584 -11 c 0,30,31
 403 -11 403 -11 403 63 c 0,32,33
 403 108 403 108 417.5 155 c 128,-1,34
 432 202 432 202 450 202 c 0,35,36
 454 202 454 202 493.5 184.5 c 128,-1,37
 533 167 533 167 559 167 c 0,38,39
 604 167 604 167 604 188 c 0,40,41
 604 213 604 213 556 224 c 1,42,43
 510 233 510 233 467 270 c 0,44,45
 446 287 446 287 432.5 325 c 128,-1,46
 419 363 419 363 419 433 c 128,-1,47
 419 503 419 503 412.5 533.5 c 128,-1,48
 406 564 406 564 389.5 564 c 128,-1,49
 373 564 373 564 366 548.5 c 128,-1,50
 359 533 359 533 359 482 c 2,51,-1
 359 26 l 2,52,53
 359 0 359 0 185 0 c 0,0,1
EndSplineSet
EndChar

StartChar: agrave
Encoding: 224 224 161
Width: 659
GlyphClass: 2
Flags: W
LayerCount: 2
Fore
SplineSet
220 -9 m 0,0,1
 129 -9 129 -9 78 34 c 0,2,3
 56 52 56 52 40.5 87 c 128,-1,4
 25 122 25 122 25 169 c 128,-1,5
 25 216 25 216 47.5 251 c 128,-1,6
 70 286 70 286 102 305 c 128,-1,7
 134 324 134 324 177 336 c 0,8,9
 242 353 242 353 320 353 c 2,10,-1
 353 353 l 1,11,12
 353 394 353 394 324 411 c 0,13,14
 313 418 313 418 288.5 418 c 128,-1,15
 264 418 264 418 229.5 405 c 128,-1,16
 195 392 195 392 172 378.5 c 128,-1,17
 149 365 149 365 141 365 c 0,18,19
 123 365 123 365 92 412.5 c 128,-1,20
 61 460 61 460 61 499 c 0,21,22
 61 512 61 512 98 533 c 128,-1,23
 135 554 135 554 202.5 571.5 c 128,-1,24
 270 589 270 589 334 589 c 128,-1,25
 398 589 398 589 444.5 578.5 c 128,-1,26
 491 568 491 568 520.5 553 c 128,-1,27
 550 538 550 538 570.5 513 c 128,-1,28
 591 488 591 488 601.5 468 c 128,-1,29
 612 448 612 448 618 416 c 0,30,31
 624 379 624 379 624 325 c 2,32,-1
 624 24 l 2,33,34
 624 13 624 13 570.5 6.5 c 128,-1,35
 517 0 517 0 464.5 0 c 128,-1,36
 412 0 412 0 396.5 3 c 128,-1,37
 381 6 381 6 378 10 c 128,-1,38
 375 14 375 14 373 24 c 2,39,-1
 365 81 l 1,40,-1
 357 81 l 1,41,42
 332 -9 332 -9 220 -9 c 0,0,1
354 157 m 2,43,-1
 354 274 l 1,44,45
 328 274 328 274 312 252 c 128,-1,46
 296 230 296 230 296 202 c 0,47,48
 296 136 296 136 326 136 c 0,49,50
 339 136 339 136 346.5 142.5 c 128,-1,51
 354 149 354 149 354 157 c 2,43,-1
239 780 m 0,52,53
 300 780 300 780 374.5 750.5 c 128,-1,54
 449 721 449 721 449 689.5 c 128,-1,55
 449 658 449 658 433.5 634 c 128,-1,56
 418 610 418 610 399 610 c 0,57,58
 342 610 342 610 255.5 621.5 c 128,-1,59
 169 633 169 633 169 648 c 0,60,61
 169 704 169 704 192.5 742 c 128,-1,62
 216 780 216 780 239 780 c 0,52,53
EndSplineSet
EndChar

StartChar: aacute
Encoding: 225 225 162
Width: 659
GlyphClass: 2
Flags: W
LayerCount: 2
Fore
SplineSet
220 -9 m 0,0,1
 129 -9 129 -9 78 34 c 0,2,3
 56 52 56 52 40.5 87 c 128,-1,4
 25 122 25 122 25 169 c 128,-1,5
 25 216 25 216 47.5 251 c 128,-1,6
 70 286 70 286 102 305 c 128,-1,7
 134 324 134 324 177 336 c 0,8,9
 242 353 242 353 320 353 c 2,10,-1
 353 353 l 1,11,12
 353 394 353 394 324 411 c 0,13,14
 313 418 313 418 288.5 418 c 128,-1,15
 264 418 264 418 229.5 405 c 128,-1,16
 195 392 195 392 172 378.5 c 128,-1,17
 149 365 149 365 141 365 c 0,18,19
 123 365 123 365 92 412.5 c 128,-1,20
 61 460 61 460 61 499 c 0,21,22
 61 512 61 512 98 533 c 128,-1,23
 135 554 135 554 202.5 571.5 c 128,-1,24
 270 589 270 589 334 589 c 128,-1,25
 398 589 398 589 444.5 578.5 c 128,-1,26
 491 568 491 568 520.5 553 c 128,-1,27
 550 538 550 538 570.5 513 c 128,-1,28
 591 488 591 488 601.5 468 c 128,-1,29
 612 448 612 448 618 416 c 0,30,31
 624 379 624 379 624 325 c 2,32,-1
 624 24 l 2,33,34
 624 13 624 13 570.5 6.5 c 128,-1,35
 517 0 517 0 464.5 0 c 128,-1,36
 412 0 412 0 396.5 3 c 128,-1,37
 381 6 381 6 378 10 c 128,-1,38
 375 14 375 14 373 24 c 2,39,-1
 365 81 l 1,40,-1
 357 81 l 1,41,42
 332 -9 332 -9 220 -9 c 0,0,1
354 157 m 2,43,-1
 354 274 l 1,44,45
 328 274 328 274 312 252 c 128,-1,46
 296 230 296 230 296 202 c 0,47,48
 296 136 296 136 326 136 c 0,49,50
 339 136 339 136 346.5 142.5 c 128,-1,51
 354 149 354 149 354 157 c 2,43,-1
439 780 m 0,52,53
 462 780 462 780 485.5 742 c 128,-1,54
 509 704 509 704 509 648 c 0,55,56
 509 633 509 633 422.5 621.5 c 128,-1,57
 336 610 336 610 279 610 c 0,58,59
 260 610 260 610 244.5 634 c 128,-1,60
 229 658 229 658 229 689.5 c 128,-1,61
 229 721 229 721 303.5 750.5 c 128,-1,62
 378 780 378 780 439 780 c 0,52,53
EndSplineSet
EndChar

StartChar: acircumflex
Encoding: 226 226 163
Width: 659
GlyphClass: 2
Flags: W
LayerCount: 2
Fore
SplineSet
220 -9 m 0,0,1
 129 -9 129 -9 78 34 c 0,2,3
 56 52 56 52 40.5 87 c 128,-1,4
 25 122 25 122 25 169 c 128,-1,5
 25 216 25 216 47.5 251 c 128,-1,6
 70 286 70 286 102 305 c 128,-1,7
 134 324 134 324 177 336 c 0,8,9
 242 353 242 353 320 353 c 2,10,-1
 353 353 l 1,11,12
 353 394 353 394 324 411 c 0,13,14
 313 418 313 418 288.5 418 c 128,-1,15
 264 418 264 418 229.5 405 c 128,-1,16
 195 392 195 392 172 378.5 c 128,-1,17
 149 365 149 365 141 365 c 0,18,19
 123 365 123 365 92 412.5 c 128,-1,20
 61 460 61 460 61 499 c 0,21,22
 61 512 61 512 98 533 c 128,-1,23
 135 554 135 554 202.5 571.5 c 128,-1,24
 270 589 270 589 334 589 c 128,-1,25
 398 589 398 589 444.5 578.5 c 128,-1,26
 491 568 491 568 520.5 553 c 128,-1,27
 550 538 550 538 570.5 513 c 128,-1,28
 591 488 591 488 601.5 468 c 128,-1,29
 612 448 612 448 618 416 c 0,30,31
 624 379 624 379 624 325 c 2,32,-1
 624 24 l 2,33,34
 624 13 624 13 570.5 6.5 c 128,-1,35
 517 0 517 0 464.5 0 c 128,-1,36
 412 0 412 0 396.5 3 c 128,-1,37
 381 6 381 6 378 10 c 128,-1,38
 375 14 375 14 373 24 c 2,39,-1
 365 81 l 1,40,-1
 357 81 l 1,41,42
 332 -9 332 -9 220 -9 c 0,0,1
354 157 m 2,43,-1
 354 274 l 1,44,45
 328 274 328 274 312 252 c 128,-1,46
 296 230 296 230 296 202 c 0,47,48
 296 136 296 136 326 136 c 0,49,50
 339 136 339 136 346.5 142.5 c 128,-1,51
 354 149 354 149 354 157 c 2,43,-1
252.5 745.5 m 128,-1,53
 326 780 326 780 361.5 780 c 128,-1,54
 397 780 397 780 468 746 c 128,-1,55
 539 712 539 712 539 700 c 0,56,57
 539 665 539 665 528 637.5 c 128,-1,58
 517 610 517 610 499 610 c 0,59,60
 485 610 485 610 359 649 c 1,61,62
 232 610 232 610 219 610 c 0,63,64
 201 610 201 610 190 637.5 c 128,-1,65
 179 665 179 665 179 700 c 0,66,52
 179 711 179 711 252.5 745.5 c 128,-1,53
EndSplineSet
EndChar

StartChar: atilde
Encoding: 227 227 164
Width: 659
GlyphClass: 2
Flags: W
LayerCount: 2
Fore
SplineSet
220 -9 m 0,0,1
 129 -9 129 -9 78 34 c 0,2,3
 56 52 56 52 40.5 87 c 128,-1,4
 25 122 25 122 25 169 c 128,-1,5
 25 216 25 216 47.5 251 c 128,-1,6
 70 286 70 286 102 305 c 128,-1,7
 134 324 134 324 177 336 c 0,8,9
 242 353 242 353 320 353 c 2,10,-1
 353 353 l 1,11,12
 353 394 353 394 324 411 c 0,13,14
 313 418 313 418 288.5 418 c 128,-1,15
 264 418 264 418 229.5 405 c 128,-1,16
 195 392 195 392 172 378.5 c 128,-1,17
 149 365 149 365 141 365 c 0,18,19
 123 365 123 365 92 412.5 c 128,-1,20
 61 460 61 460 61 499 c 0,21,22
 61 512 61 512 98 533 c 128,-1,23
 135 554 135 554 202.5 571.5 c 128,-1,24
 270 589 270 589 334 589 c 128,-1,25
 398 589 398 589 444.5 578.5 c 128,-1,26
 491 568 491 568 520.5 553 c 128,-1,27
 550 538 550 538 570.5 513 c 128,-1,28
 591 488 591 488 601.5 468 c 128,-1,29
 612 448 612 448 618 416 c 0,30,31
 624 379 624 379 624 325 c 2,32,-1
 624 24 l 2,33,34
 624 13 624 13 570.5 6.5 c 128,-1,35
 517 0 517 0 464.5 0 c 128,-1,36
 412 0 412 0 396.5 3 c 128,-1,37
 381 6 381 6 378 10 c 128,-1,38
 375 14 375 14 373 24 c 2,39,-1
 365 81 l 1,40,-1
 357 81 l 1,41,42
 332 -9 332 -9 220 -9 c 0,0,1
354 157 m 2,43,-1
 354 274 l 1,44,45
 328 274 328 274 312 252 c 128,-1,46
 296 230 296 230 296 202 c 0,47,48
 296 136 296 136 326 136 c 0,49,50
 339 136 339 136 346.5 142.5 c 128,-1,51
 354 149 354 149 354 157 c 2,43,-1
527.5 642 m 128,-1,53
 476 610 476 610 437.5 610 c 128,-1,54
 399 610 399 610 345.5 627.5 c 128,-1,55
 292 645 292 645 276.5 645 c 128,-1,56
 261 645 261 645 217 627.5 c 128,-1,57
 173 610 173 610 155 610 c 128,-1,58
 137 610 137 610 117.5 645.5 c 128,-1,59
 98 681 98 681 98 700 c 0,60,61
 98 717 98 717 152.5 748.5 c 128,-1,62
 207 780 207 780 243 780 c 128,-1,63
 279 780 279 780 331.5 763 c 128,-1,64
 384 746 384 746 407 746 c 0,65,66
 414 746 414 746 456.5 763 c 128,-1,67
 499 780 499 780 518.5 780 c 128,-1,68
 538 780 538 780 558.5 743 c 128,-1,69
 579 706 579 706 579 689 c 0,70,52
 579 674 579 674 527.5 642 c 128,-1,53
EndSplineSet
EndChar

StartChar: adieresis
Encoding: 228 228 165
Width: 659
GlyphClass: 2
Flags: W
LayerCount: 2
Fore
SplineSet
220 -9 m 0,0,1
 129 -9 129 -9 78 34 c 0,2,3
 56 52 56 52 40.5 87 c 128,-1,4
 25 122 25 122 25 169 c 128,-1,5
 25 216 25 216 47.5 251 c 128,-1,6
 70 286 70 286 102 305 c 128,-1,7
 134 324 134 324 177 336 c 0,8,9
 242 353 242 353 320 353 c 2,10,-1
 353 353 l 1,11,12
 353 394 353 394 324 411 c 0,13,14
 313 418 313 418 288.5 418 c 128,-1,15
 264 418 264 418 229.5 405 c 128,-1,16
 195 392 195 392 172 378.5 c 128,-1,17
 149 365 149 365 141 365 c 0,18,19
 123 365 123 365 92 412.5 c 128,-1,20
 61 460 61 460 61 499 c 0,21,22
 61 512 61 512 98 533 c 128,-1,23
 135 554 135 554 202.5 571.5 c 128,-1,24
 270 589 270 589 334 589 c 128,-1,25
 398 589 398 589 444.5 578.5 c 128,-1,26
 491 568 491 568 520.5 553 c 128,-1,27
 550 538 550 538 570.5 513 c 128,-1,28
 591 488 591 488 601.5 468 c 128,-1,29
 612 448 612 448 618 416 c 0,30,31
 624 379 624 379 624 325 c 2,32,-1
 624 24 l 2,33,34
 624 13 624 13 570.5 6.5 c 128,-1,35
 517 0 517 0 464.5 0 c 128,-1,36
 412 0 412 0 396.5 3 c 128,-1,37
 381 6 381 6 378 10 c 128,-1,38
 375 14 375 14 373 24 c 2,39,-1
 365 81 l 1,40,-1
 357 81 l 1,41,42
 332 -9 332 -9 220 -9 c 0,0,1
354 157 m 2,43,-1
 354 274 l 1,44,45
 328 274 328 274 312 252 c 128,-1,46
 296 230 296 230 296 202 c 0,47,48
 296 136 296 136 326 136 c 0,49,50
 339 136 339 136 346.5 142.5 c 128,-1,51
 354 149 354 149 354 157 c 2,43,-1
192 599 m 128,-1,53
 140 599 140 599 113 618.5 c 128,-1,54
 86 638 86 638 86 690.5 c 128,-1,55
 86 743 86 743 113.5 761 c 128,-1,56
 141 779 141 779 192.5 779 c 128,-1,57
 244 779 244 779 271.5 761 c 128,-1,58
 299 743 299 743 299 690.5 c 128,-1,59
 299 638 299 638 271.5 618.5 c 128,-1,52
 244 599 244 599 192 599 c 128,-1,53
469 599 m 128,-1,61
 417 599 417 599 390 618.5 c 128,-1,62
 363 638 363 638 363 690.5 c 128,-1,63
 363 743 363 743 390.5 761 c 128,-1,64
 418 779 418 779 469.5 779 c 128,-1,65
 521 779 521 779 548.5 761 c 128,-1,66
 576 743 576 743 576 690.5 c 128,-1,67
 576 638 576 638 548.5 618.5 c 128,-1,60
 521 599 521 599 469 599 c 128,-1,61
EndSplineSet
EndChar

StartChar: aring
Encoding: 229 229 166
Width: 659
GlyphClass: 2
Flags: W
LayerCount: 2
Fore
SplineSet
220 -9 m 0,0,1
 129 -9 129 -9 78 34 c 0,2,3
 56 52 56 52 40.5 87 c 128,-1,4
 25 122 25 122 25 169 c 128,-1,5
 25 216 25 216 47.5 251 c 128,-1,6
 70 286 70 286 102 305 c 128,-1,7
 134 324 134 324 177 336 c 0,8,9
 242 353 242 353 320 353 c 2,10,-1
 353 353 l 1,11,12
 353 394 353 394 324 411 c 0,13,14
 313 418 313 418 298 418 c 0,15,16
 252 418 252 418 198.5 394 c 128,-1,17
 145 370 145 370 141 370 c 0,18,19
 123 370 123 370 92 425 c 128,-1,20
 61 480 61 480 61 519 c 0,21,22
 61 548 61 548 155 572 c 0,23,24
 225 590 225 590 311.5 590 c 128,-1,25
 398 590 398 590 444.5 579.5 c 128,-1,26
 491 569 491 569 520.5 554 c 128,-1,27
 550 539 550 539 570.5 513.5 c 128,-1,28
 591 488 591 488 601.5 468 c 128,-1,29
 612 448 612 448 618 417 c 0,30,31
 624 380 624 380 624 325 c 2,32,-1
 624 24 l 2,33,34
 624 13 624 13 570.5 6.5 c 128,-1,35
 517 0 517 0 464.5 0 c 128,-1,36
 412 0 412 0 396.5 3 c 128,-1,37
 381 6 381 6 378 10 c 128,-1,38
 375 14 375 14 373 24 c 2,39,-1
 365 81 l 1,40,-1
 357 81 l 1,41,42
 332 -9 332 -9 220 -9 c 0,0,1
354 157 m 2,43,-1
 354 274 l 1,44,45
 328 274 328 274 312 252 c 128,-1,46
 296 230 296 230 296 202 c 0,47,48
 296 136 296 136 326 136 c 0,49,50
 339 136 339 136 346.5 142.5 c 128,-1,51
 354 149 354 149 354 157 c 2,43,-1
429 628.5 m 128,-1,53
 401 610 401 610 342 610 c 128,-1,54
 283 610 283 610 255 628.5 c 128,-1,55
 227 647 227 647 227 697.5 c 128,-1,56
 227 748 227 748 255 764 c 128,-1,57
 283 780 283 780 342 780 c 128,-1,58
 401 780 401 780 429 764 c 128,-1,59
 457 748 457 748 457 697.5 c 128,-1,52
 457 647 457 647 429 628.5 c 128,-1,53
320.5 681 m 128,-1,61
 326 677 326 677 342 677 c 128,-1,62
 358 677 358 677 363.5 681 c 128,-1,63
 369 685 369 685 369 695.5 c 128,-1,64
 369 706 369 706 363 709.5 c 128,-1,65
 357 713 357 713 341.5 713 c 128,-1,66
 326 713 326 713 320.5 709.5 c 128,-1,67
 315 706 315 706 315 695.5 c 128,-1,60
 315 685 315 685 320.5 681 c 128,-1,61
EndSplineSet
EndChar

StartChar: ae
Encoding: 230 230 167
Width: 970
GlyphClass: 2
Flags: W
LayerCount: 2
Fore
SplineSet
627 226 m 1,0,1
 627 161 627 161 689 161 c 0,2,3
 725 161 725 161 783.5 185.5 c 128,-1,4
 842 210 842 210 845 210 c 0,5,6
 863 210 863 210 894 153 c 128,-1,7
 925 96 925 96 925 69 c 0,8,9
 925 30 925 30 846 10.5 c 128,-1,10
 767 -9 767 -9 676 -9 c 0,11,12
 522 -9 522 -9 439 59 c 1,13,14
 394 -9 394 -9 220 -9 c 0,15,16
 129 -9 129 -9 78 34 c 0,17,18
 56 52 56 52 40.5 87 c 128,-1,19
 25 122 25 122 25 169 c 128,-1,20
 25 216 25 216 47.5 251 c 128,-1,21
 70 286 70 286 102 305 c 128,-1,22
 134 324 134 324 177 336 c 0,23,24
 242 353 242 353 320 353 c 2,25,-1
 353 353 l 1,26,27
 353 394 353 394 324 411 c 0,28,29
 313 418 313 418 298 418 c 0,30,31
 252 418 252 418 198.5 394 c 128,-1,32
 145 370 145 370 141 370 c 0,33,34
 123 370 123 370 92 425 c 128,-1,35
 61 480 61 480 61 519 c 0,36,37
 61 535 61 535 102 554 c 0,38,39
 179 589 179 589 340 589 c 0,40,41
 445 589 445 589 506 560 c 1,42,43
 578 589 578 589 692 589 c 0,44,45
 945 589 945 589 945 413 c 0,46,47
 945 226 945 226 660 226 c 2,48,-1
 627 226 l 1,0,1
625 372 m 2,49,-1
 625 306 l 1,50,51
 654 306 654 306 672.5 329 c 128,-1,52
 691 352 691 352 691 385 c 0,53,54
 691 445 691 445 660 445 c 0,55,56
 625 445 625 445 625 372 c 2,49,-1
354 157 m 2,57,-1
 354 274 l 1,58,59
 328 274 328 274 312 252 c 128,-1,60
 296 230 296 230 296 202 c 0,61,62
 296 136 296 136 326 136 c 0,63,64
 339 136 339 136 346.5 142.5 c 128,-1,65
 354 149 354 149 354 157 c 2,57,-1
EndSplineSet
EndChar

StartChar: ccedilla
Encoding: 231 231 168
Width: 545
GlyphClass: 2
Flags: W
LayerCount: 2
Fore
SplineSet
279 -84 m 1,0,-1
 250 -85 l 2,1,2
 234 -85 234 -85 234 -54 c 2,3,-1
 234 -4 l 1,4,5
 25 30 25 30 25 290 c 0,6,7
 25 362 25 362 48 418.5 c 128,-1,8
 71 475 71 475 104 506 c 128,-1,9
 137 537 137 537 180 557 c 0,10,11
 249 589 249 589 318 589 c 0,12,13
 434 589 434 589 479.5 571 c 128,-1,14
 525 553 525 553 525 510 c 128,-1,15
 525 467 525 467 509.5 418.5 c 128,-1,16
 494 370 494 370 469 370 c 0,17,18
 461 370 461 370 420.5 387 c 128,-1,19
 380 404 380 404 350.5 404 c 128,-1,20
 321 404 321 404 305.5 380.5 c 128,-1,21
 290 357 290 357 290 289.5 c 128,-1,22
 290 222 290 222 304 197.5 c 128,-1,23
 318 173 318 173 347.5 173 c 128,-1,24
 377 173 377 173 421 193 c 128,-1,25
 465 213 465 213 470 213 c 0,26,27
 489 213 489 213 506.5 168 c 128,-1,28
 524 123 524 123 524 88 c 0,29,30
 524 37 524 37 475 15 c 128,-1,31
 426 -7 426 -7 335 -9 c 1,32,-1
 335 -25 l 1,33,34
 422 -28 422 -28 422 -94 c 0,35,36
 422 -125 422 -125 392 -144.5 c 128,-1,37
 362 -164 362 -164 328.5 -169.5 c 128,-1,38
 295 -175 295 -175 257 -175 c 0,39,40
 249 -175 249 -175 244 -159.5 c 128,-1,41
 239 -144 239 -144 239 -127 c 128,-1,42
 239 -110 239 -110 247 -110 c 0,43,44
 321 -110 321 -110 321 -94 c 0,45,46
 321 -84 321 -84 279 -84 c 1,0,-1
EndSplineSet
EndChar

StartChar: egrave
Encoding: 232 232 169
Width: 640
GlyphClass: 2
Flags: W
LayerCount: 2
Fore
SplineSet
298 226 m 1,0,1
 298 161 298 161 360 161 c 0,2,3
 396 161 396 161 454 185.5 c 128,-1,4
 512 210 512 210 515 210 c 0,5,6
 534 210 534 210 565 153 c 128,-1,7
 596 96 596 96 596 69 c 0,8,9
 596 30 596 30 516 10 c 128,-1,10
 436 -10 436 -10 359.5 -10 c 128,-1,11
 283 -10 283 -10 231.5 2 c 128,-1,12
 180 14 180 14 147.5 32.5 c 128,-1,13
 115 51 115 51 90.5 78 c 128,-1,14
 66 105 66 105 54 129.5 c 128,-1,15
 42 154 42 154 35 184 c 0,16,17
 25 228 25 228 25 275 c 0,18,19
 25 457 25 457 120 526 c 0,20,21
 167 561 167 561 225 575 c 128,-1,22
 283 589 283 589 362 589 c 0,23,24
 615 589 615 589 615 413 c 0,25,26
 615 226 615 226 331 226 c 2,27,-1
 298 226 l 1,0,1
296 372 m 2,28,-1
 296 306 l 1,29,30
 325 306 325 306 343.5 329 c 128,-1,31
 362 352 362 352 362 385 c 0,32,33
 362 445 362 445 331 445 c 0,34,35
 296 445 296 445 296 372 c 2,28,-1
220 780 m 0,36,37
 281 780 281 780 355.5 750.5 c 128,-1,38
 430 721 430 721 430 689.5 c 128,-1,39
 430 658 430 658 414.5 634 c 128,-1,40
 399 610 399 610 380 610 c 0,41,42
 323 610 323 610 236.5 621.5 c 128,-1,43
 150 633 150 633 150 648 c 0,44,45
 150 704 150 704 173.5 742 c 128,-1,46
 197 780 197 780 220 780 c 0,36,37
EndSplineSet
EndChar

StartChar: eacute
Encoding: 233 233 170
Width: 640
GlyphClass: 2
Flags: W
LayerCount: 2
Fore
SplineSet
298 226 m 1,0,1
 298 161 298 161 360 161 c 0,2,3
 396 161 396 161 454 185.5 c 128,-1,4
 512 210 512 210 515 210 c 0,5,6
 534 210 534 210 565 153 c 128,-1,7
 596 96 596 96 596 69 c 0,8,9
 596 30 596 30 516 10 c 128,-1,10
 436 -10 436 -10 359.5 -10 c 128,-1,11
 283 -10 283 -10 231.5 2 c 128,-1,12
 180 14 180 14 147.5 32.5 c 128,-1,13
 115 51 115 51 90.5 78 c 128,-1,14
 66 105 66 105 54 129.5 c 128,-1,15
 42 154 42 154 35 184 c 0,16,17
 25 228 25 228 25 275 c 0,18,19
 25 457 25 457 120 526 c 0,20,21
 167 561 167 561 225 575 c 128,-1,22
 283 589 283 589 362 589 c 0,23,24
 615 589 615 589 615 413 c 0,25,26
 615 226 615 226 331 226 c 2,27,-1
 298 226 l 1,0,1
296 372 m 2,28,-1
 296 306 l 1,29,30
 325 306 325 306 343.5 329 c 128,-1,31
 362 352 362 352 362 385 c 0,32,33
 362 445 362 445 331 445 c 0,34,35
 296 445 296 445 296 372 c 2,28,-1
439 780 m 0,36,37
 462 780 462 780 485.5 742 c 128,-1,38
 509 704 509 704 509 648 c 0,39,40
 509 633 509 633 422.5 621.5 c 128,-1,41
 336 610 336 610 279 610 c 0,42,43
 260 610 260 610 244.5 634 c 128,-1,44
 229 658 229 658 229 689.5 c 128,-1,45
 229 721 229 721 303.5 750.5 c 128,-1,46
 378 780 378 780 439 780 c 0,36,37
EndSplineSet
EndChar

StartChar: ecircumflex
Encoding: 234 234 171
Width: 640
GlyphClass: 2
Flags: W
LayerCount: 2
Fore
SplineSet
298 226 m 1,0,1
 298 161 298 161 360 161 c 0,2,3
 396 161 396 161 454 185.5 c 128,-1,4
 512 210 512 210 515 210 c 0,5,6
 534 210 534 210 565 153 c 128,-1,7
 596 96 596 96 596 69 c 0,8,9
 596 30 596 30 516 10 c 128,-1,10
 436 -10 436 -10 359.5 -10 c 128,-1,11
 283 -10 283 -10 231.5 2 c 128,-1,12
 180 14 180 14 147.5 32.5 c 128,-1,13
 115 51 115 51 90.5 78 c 128,-1,14
 66 105 66 105 54 129.5 c 128,-1,15
 42 154 42 154 35 184 c 0,16,17
 25 228 25 228 25 275 c 0,18,19
 25 457 25 457 120 526 c 0,20,21
 167 561 167 561 225 575 c 128,-1,22
 283 589 283 589 362 589 c 0,23,24
 615 589 615 589 615 413 c 0,25,26
 615 226 615 226 331 226 c 2,27,-1
 298 226 l 1,0,1
296 372 m 2,28,-1
 296 306 l 1,29,30
 325 306 325 306 343.5 329 c 128,-1,31
 362 352 362 352 362 385 c 0,32,33
 362 445 362 445 331 445 c 0,34,35
 296 445 296 445 296 372 c 2,28,-1
223.5 745.5 m 128,-1,37
 297 780 297 780 332.5 780 c 128,-1,38
 368 780 368 780 439 746 c 128,-1,39
 510 712 510 712 510 700 c 0,40,41
 510 665 510 665 499 637.5 c 128,-1,42
 488 610 488 610 470 610 c 0,43,44
 456 610 456 610 330 649 c 1,45,46
 203 610 203 610 190 610 c 0,47,48
 172 610 172 610 161 637.5 c 128,-1,49
 150 665 150 665 150 700 c 0,50,36
 150 711 150 711 223.5 745.5 c 128,-1,37
EndSplineSet
EndChar

StartChar: edieresis
Encoding: 235 235 172
Width: 640
GlyphClass: 2
Flags: W
LayerCount: 2
Fore
SplineSet
298 226 m 1,0,1
 298 161 298 161 360 161 c 0,2,3
 396 161 396 161 454 185.5 c 128,-1,4
 512 210 512 210 515 210 c 0,5,6
 534 210 534 210 565 153 c 128,-1,7
 596 96 596 96 596 69 c 0,8,9
 596 30 596 30 516 10 c 128,-1,10
 436 -10 436 -10 359.5 -10 c 128,-1,11
 283 -10 283 -10 231.5 2 c 128,-1,12
 180 14 180 14 147.5 32.5 c 128,-1,13
 115 51 115 51 90.5 78 c 128,-1,14
 66 105 66 105 54 129.5 c 128,-1,15
 42 154 42 154 35 184 c 0,16,17
 25 228 25 228 25 275 c 0,18,19
 25 457 25 457 120 526 c 0,20,21
 167 561 167 561 225 575 c 128,-1,22
 283 589 283 589 362 589 c 0,23,24
 615 589 615 589 615 413 c 0,25,26
 615 226 615 226 331 226 c 2,27,-1
 298 226 l 1,0,1
296 372 m 2,28,-1
 296 306 l 1,29,30
 325 306 325 306 343.5 329 c 128,-1,31
 362 352 362 352 362 385 c 0,32,33
 362 445 362 445 331 445 c 0,34,35
 296 445 296 445 296 372 c 2,28,-1
190 600 m 128,-1,37
 138 600 138 600 111 619.5 c 128,-1,38
 84 639 84 639 84 691.5 c 128,-1,39
 84 744 84 744 111.5 762 c 128,-1,40
 139 780 139 780 190.5 780 c 128,-1,41
 242 780 242 780 269.5 762 c 128,-1,42
 297 744 297 744 297 691.5 c 128,-1,43
 297 639 297 639 269.5 619.5 c 128,-1,36
 242 600 242 600 190 600 c 128,-1,37
467 600 m 128,-1,45
 415 600 415 600 388 619.5 c 128,-1,46
 361 639 361 639 361 691.5 c 128,-1,47
 361 744 361 744 388.5 762 c 128,-1,48
 416 780 416 780 467.5 780 c 128,-1,49
 519 780 519 780 546.5 762 c 128,-1,50
 574 744 574 744 574 691.5 c 128,-1,51
 574 639 574 639 546.5 619.5 c 128,-1,44
 519 600 519 600 467 600 c 128,-1,45
EndSplineSet
EndChar

StartChar: igrave
Encoding: 236 236 173
Width: 341
GlyphClass: 2
Flags: W
LayerCount: 2
Fore
SplineSet
306 534 m 2,0,-1
 306 24 l 2,1,2
 306 13 306 13 248.5 6.5 c 128,-1,3
 191 0 191 0 130.5 0 c 128,-1,4
 70 0 70 0 52.5 5.5 c 128,-1,5
 35 11 35 11 35 24 c 2,6,-1
 35 516 l 2,7,8
 35 538 35 538 92 559 c 128,-1,9
 149 580 149 580 215 580 c 0,10,11
 306 580 306 580 306 534 c 2,0,-1
71 780 m 0,12,13
 132 780 132 780 206.5 750.5 c 128,-1,14
 281 721 281 721 281 689.5 c 128,-1,15
 281 658 281 658 265.5 634 c 128,-1,16
 250 610 250 610 231 610 c 0,17,18
 174 610 174 610 87.5 621.5 c 128,-1,19
 1 633 1 633 1 648 c 0,20,21
 1 704 1 704 24.5 742 c 128,-1,22
 48 780 48 780 71 780 c 0,12,13
EndSplineSet
EndChar

StartChar: iacute
Encoding: 237 237 174
Width: 341
GlyphClass: 2
Flags: W
LayerCount: 2
Fore
SplineSet
306 534 m 2,0,-1
 306 24 l 2,1,2
 306 13 306 13 248.5 6.5 c 128,-1,3
 191 0 191 0 130.5 0 c 128,-1,4
 70 0 70 0 52.5 5.5 c 128,-1,5
 35 11 35 11 35 24 c 2,6,-1
 35 516 l 2,7,8
 35 538 35 538 92 559 c 128,-1,9
 149 580 149 580 215 580 c 0,10,11
 306 580 306 580 306 534 c 2,0,-1
271 780 m 0,12,13
 294 780 294 780 317.5 742 c 128,-1,14
 341 704 341 704 341 648 c 0,15,16
 341 633 341 633 254.5 621.5 c 128,-1,17
 168 610 168 610 111 610 c 0,18,19
 92 610 92 610 76.5 634 c 128,-1,20
 61 658 61 658 61 689.5 c 128,-1,21
 61 721 61 721 135.5 750.5 c 128,-1,22
 210 780 210 780 271 780 c 0,12,13
EndSplineSet
EndChar

StartChar: icircumflex
Encoding: 238 238 175
Width: 341
GlyphClass: 2
Flags: W
LayerCount: 2
Fore
SplineSet
306 534 m 2,0,-1
 306 24 l 2,1,2
 306 13 306 13 248.5 6.5 c 128,-1,3
 191 0 191 0 130.5 0 c 128,-1,4
 70 0 70 0 52.5 5.5 c 128,-1,5
 35 11 35 11 35 24 c 2,6,-1
 35 516 l 2,7,8
 35 538 35 538 92 559 c 128,-1,9
 149 580 149 580 215 580 c 0,10,11
 306 580 306 580 306 534 c 2,0,-1
69.5 735.5 m 128,-1,13
 143 770 143 770 178.5 770 c 128,-1,14
 214 770 214 770 285 736 c 128,-1,15
 356 702 356 702 356 690 c 0,16,17
 356 655 356 655 345 627.5 c 128,-1,18
 334 600 334 600 316 600 c 0,19,20
 302 600 302 600 176 639 c 1,21,22
 49 600 49 600 36 600 c 0,23,24
 18 600 18 600 7 627.5 c 128,-1,25
 -4 655 -4 655 -4 690 c 0,26,12
 -4 701 -4 701 69.5 735.5 c 128,-1,13
EndSplineSet
EndChar

StartChar: idieresis
Encoding: 239 239 176
Width: 341
GlyphClass: 2
Flags: W
LayerCount: 2
Fore
SplineSet
306 534 m 2,0,-1
 306 24 l 2,1,2
 306 13 306 13 248.5 6.5 c 128,-1,3
 191 0 191 0 130.5 0 c 128,-1,4
 70 0 70 0 52.5 5.5 c 128,-1,5
 35 11 35 11 35 24 c 2,6,-1
 35 516 l 2,7,8
 35 538 35 538 92 559 c 128,-1,9
 149 580 149 580 215 580 c 0,10,11
 306 580 306 580 306 534 c 2,0,-1
38 600 m 128,-1,13
 -14 600 -14 600 -41 619.5 c 128,-1,14
 -68 639 -68 639 -68 691.5 c 128,-1,15
 -68 744 -68 744 -40.5 762 c 128,-1,16
 -13 780 -13 780 38.5 780 c 128,-1,17
 90 780 90 780 117.5 762 c 128,-1,18
 145 744 145 744 145 691.5 c 128,-1,19
 145 639 145 639 117.5 619.5 c 128,-1,12
 90 600 90 600 38 600 c 128,-1,13
315 600 m 128,-1,21
 263 600 263 600 236 619.5 c 128,-1,22
 209 639 209 639 209 691.5 c 128,-1,23
 209 744 209 744 236.5 762 c 128,-1,24
 264 780 264 780 315.5 780 c 128,-1,25
 367 780 367 780 394.5 762 c 128,-1,26
 422 744 422 744 422 691.5 c 128,-1,27
 422 639 422 639 394.5 619.5 c 128,-1,20
 367 600 367 600 315 600 c 128,-1,21
EndSplineSet
EndChar

StartChar: eth
Encoding: 240 240 177
Width: 705
GlyphClass: 2
Flags: W
LayerCount: 2
Fore
SplineSet
634 590 m 2,0,-1
 629 590 l 1,1,-1
 629 24 l 2,2,3
 629 13 629 13 573.5 6.5 c 128,-1,4
 518 0 518 0 466.5 0 c 128,-1,5
 415 0 415 0 400.5 3.5 c 128,-1,6
 386 7 386 7 382.5 11 c 128,-1,7
 379 15 379 15 378 24 c 2,8,-1
 370 81 l 1,9,-1
 362 81 l 1,10,11
 353 46 353 46 326 22 c 0,12,13
 313 10 313 10 286.5 0.5 c 128,-1,14
 260 -9 260 -9 223 -9 c 128,-1,15
 186 -9 186 -9 154 2 c 128,-1,16
 122 13 122 13 101.5 29 c 128,-1,17
 81 45 81 45 66 72 c 128,-1,18
 51 99 51 99 43 123.5 c 128,-1,19
 35 148 35 148 31 184 c 0,20,21
 25 237 25 237 25 313 c 128,-1,22
 25 389 25 389 38 446 c 128,-1,23
 51 503 51 503 77.5 533.5 c 128,-1,24
 104 564 104 564 137 576.5 c 128,-1,25
 170 589 170 589 211 589 c 128,-1,26
 252 589 252 589 280.5 582 c 128,-1,27
 309 575 309 575 324 566 c 1,28,29
 353 546 353 546 360 529 c 1,30,-1
 362 522 l 1,31,-1
 370 522 l 1,32,-1
 370 590 l 1,33,-1
 332 590 l 2,34,35
 305 590 305 590 305 651 c 0,36,37
 305 686 305 686 327 716.5 c 128,-1,38
 349 747 349 747 370 747 c 2,39,-1
 387 747 l 1,40,41
 449 780 449 780 529.5 780 c 128,-1,42
 610 780 610 780 626 747 c 1,43,-1
 669 747 l 2,44,45
 695 747 695 747 695 692 c 0,46,47
 695 659 695 659 674 624.5 c 128,-1,48
 653 590 653 590 634 590 c 2,0,-1
335 137 m 0,49,50
 351 137 351 137 359 157 c 1,51,-1
 359 424 l 2,52,53
 359 434 359 434 348.5 439.5 c 128,-1,54
 338 445 338 445 330 445 c 0,55,56
 296 445 296 445 296 289 c 0,57,58
 296 206 296 206 305.5 171.5 c 128,-1,59
 315 137 315 137 335 137 c 0,49,50
EndSplineSet
EndChar

StartChar: ntilde
Encoding: 241 241 178
Width: 673
GlyphClass: 2
Flags: W
LayerCount: 2
Fore
SplineSet
638 332 m 2,0,-1
 638 24 l 2,1,2
 638 13 638 13 581 6.5 c 128,-1,3
 524 0 524 0 463.5 0 c 128,-1,4
 403 0 403 0 385.5 5.5 c 128,-1,5
 368 11 368 11 368 24 c 2,6,-1
 368 342 l 2,7,8
 368 387 368 387 364.5 401 c 128,-1,9
 361 415 361 415 358 426 c 0,10,11
 351 445 351 445 333 445 c 0,12,13
 305 445 305 445 305 418 c 2,14,-1
 305 24 l 2,15,16
 305 13 305 13 248.5 6.5 c 128,-1,17
 192 0 192 0 131.5 0 c 128,-1,18
 71 0 71 0 53 5.5 c 128,-1,19
 35 11 35 11 35 24 c 2,20,-1
 35 517 l 2,21,22
 35 538 35 538 92.5 559 c 128,-1,23
 150 580 150 580 214 580 c 128,-1,24
 278 580 278 580 286 543 c 2,25,-1
 295 499 l 1,26,-1
 302 499 l 1,27,28
 331 557 331 557 402 580 c 0,29,30
 431 589 431 589 466 589 c 0,31,32
 567 589 567 589 602.5 528.5 c 128,-1,33
 638 468 638 468 638 332 c 2,0,-1
497.5 642 m 128,-1,35
 446 610 446 610 407.5 610 c 128,-1,36
 369 610 369 610 315.5 627.5 c 128,-1,37
 262 645 262 645 246.5 645 c 128,-1,38
 231 645 231 645 187 627.5 c 128,-1,39
 143 610 143 610 125 610 c 128,-1,40
 107 610 107 610 87.5 645.5 c 128,-1,41
 68 681 68 681 68 700 c 0,42,43
 68 717 68 717 122.5 748.5 c 128,-1,44
 177 780 177 780 213 780 c 128,-1,45
 249 780 249 780 301.5 763 c 128,-1,46
 354 746 354 746 377 746 c 0,47,48
 384 746 384 746 426.5 763 c 128,-1,49
 469 780 469 780 488.5 780 c 128,-1,50
 508 780 508 780 528.5 743 c 128,-1,51
 549 706 549 706 549 689 c 0,52,34
 549 674 549 674 497.5 642 c 128,-1,35
EndSplineSet
EndChar

StartChar: ograve
Encoding: 242 242 179
Width: 685
GlyphClass: 2
Flags: W
LayerCount: 2
Fore
SplineSet
343 -9 m 0,0,1
 268 -9 268 -9 214 4 c 128,-1,2
 160 17 160 17 116 50 c 0,3,4
 25 116 25 116 25 296 c 0,5,6
 25 456 25 456 118 525 c 0,7,8
 205 589 205 589 343 589 c 0,9,10
 402 589 402 589 444 583.5 c 128,-1,11
 486 578 486 578 529.5 560 c 128,-1,12
 573 542 573 542 599.5 511 c 128,-1,13
 626 480 626 480 643 425.5 c 128,-1,14
 660 371 660 371 660 296 c 0,15,16
 660 144 660 144 574 67.5 c 128,-1,17
 488 -9 488 -9 343 -9 c 0,0,1
322.5 143 m 128,-1,19
 330 136 330 136 342.5 136 c 128,-1,20
 355 136 355 136 362.5 143 c 128,-1,21
 370 150 370 150 376.5 186 c 128,-1,22
 383 222 383 222 383 276.5 c 128,-1,23
 383 331 383 331 380.5 360.5 c 128,-1,24
 378 390 378 390 374.5 406 c 128,-1,25
 371 422 371 422 365 431 c 0,26,27
 356 444 356 444 343.5 444 c 128,-1,28
 331 444 331 444 323 436.5 c 128,-1,29
 315 429 315 429 308 392.5 c 128,-1,30
 301 356 301 356 301 289 c 128,-1,31
 301 222 301 222 308 186 c 128,-1,18
 315 150 315 150 322.5 143 c 128,-1,19
232 780 m 0,32,33
 293 780 293 780 367.5 750.5 c 128,-1,34
 442 721 442 721 442 689.5 c 128,-1,35
 442 658 442 658 426.5 634 c 128,-1,36
 411 610 411 610 392 610 c 0,37,38
 335 610 335 610 248.5 621.5 c 128,-1,39
 162 633 162 633 162 648 c 0,40,41
 162 704 162 704 185.5 742 c 128,-1,42
 209 780 209 780 232 780 c 0,32,33
EndSplineSet
EndChar

StartChar: oacute
Encoding: 243 243 180
Width: 685
GlyphClass: 2
Flags: W
LayerCount: 2
Fore
SplineSet
343 -9 m 0,0,1
 268 -9 268 -9 214 4 c 128,-1,2
 160 17 160 17 116 50 c 0,3,4
 25 116 25 116 25 296 c 0,5,6
 25 456 25 456 118 525 c 0,7,8
 205 589 205 589 343 589 c 0,9,10
 402 589 402 589 444 583.5 c 128,-1,11
 486 578 486 578 529.5 560 c 128,-1,12
 573 542 573 542 599.5 511 c 128,-1,13
 626 480 626 480 643 425.5 c 128,-1,14
 660 371 660 371 660 296 c 0,15,16
 660 144 660 144 574 67.5 c 128,-1,17
 488 -9 488 -9 343 -9 c 0,0,1
322.5 143 m 128,-1,19
 330 136 330 136 342.5 136 c 128,-1,20
 355 136 355 136 362.5 143 c 128,-1,21
 370 150 370 150 376.5 186 c 128,-1,22
 383 222 383 222 383 276.5 c 128,-1,23
 383 331 383 331 380.5 360.5 c 128,-1,24
 378 390 378 390 374.5 406 c 128,-1,25
 371 422 371 422 365 431 c 0,26,27
 356 444 356 444 343.5 444 c 128,-1,28
 331 444 331 444 323 436.5 c 128,-1,29
 315 429 315 429 308 392.5 c 128,-1,30
 301 356 301 356 301 289 c 128,-1,31
 301 222 301 222 308 186 c 128,-1,18
 315 150 315 150 322.5 143 c 128,-1,19
462 780 m 0,32,33
 485 780 485 780 508.5 742 c 128,-1,34
 532 704 532 704 532 648 c 0,35,36
 532 633 532 633 445.5 621.5 c 128,-1,37
 359 610 359 610 302 610 c 0,38,39
 283 610 283 610 267.5 634 c 128,-1,40
 252 658 252 658 252 689.5 c 128,-1,41
 252 721 252 721 326.5 750.5 c 128,-1,42
 401 780 401 780 462 780 c 0,32,33
EndSplineSet
EndChar

StartChar: ocircumflex
Encoding: 244 244 181
Width: 685
GlyphClass: 2
Flags: W
LayerCount: 2
Fore
SplineSet
343 -9 m 0,0,1
 268 -9 268 -9 214 4 c 128,-1,2
 160 17 160 17 116 50 c 0,3,4
 25 116 25 116 25 296 c 0,5,6
 25 456 25 456 118 525 c 0,7,8
 205 589 205 589 343 589 c 0,9,10
 402 589 402 589 444 583.5 c 128,-1,11
 486 578 486 578 529.5 560 c 128,-1,12
 573 542 573 542 599.5 511 c 128,-1,13
 626 480 626 480 643 425.5 c 128,-1,14
 660 371 660 371 660 296 c 0,15,16
 660 144 660 144 574 67.5 c 128,-1,17
 488 -9 488 -9 343 -9 c 0,0,1
322.5 143 m 128,-1,19
 330 136 330 136 342.5 136 c 128,-1,20
 355 136 355 136 362.5 143 c 128,-1,21
 370 150 370 150 376.5 186 c 128,-1,22
 383 222 383 222 383 276.5 c 128,-1,23
 383 331 383 331 380.5 360.5 c 128,-1,24
 378 390 378 390 374.5 406 c 128,-1,25
 371 422 371 422 365 431 c 0,26,27
 356 444 356 444 343.5 444 c 128,-1,28
 331 444 331 444 323 436.5 c 128,-1,29
 315 429 315 429 308 392.5 c 128,-1,30
 301 356 301 356 301 289 c 128,-1,31
 301 222 301 222 308 186 c 128,-1,18
 315 150 315 150 322.5 143 c 128,-1,19
235.5 745.5 m 128,-1,33
 309 780 309 780 344.5 780 c 128,-1,34
 380 780 380 780 451 746 c 128,-1,35
 522 712 522 712 522 700 c 0,36,37
 522 665 522 665 511 637.5 c 128,-1,38
 500 610 500 610 482 610 c 0,39,40
 468 610 468 610 342 649 c 1,41,42
 215 610 215 610 202 610 c 0,43,44
 184 610 184 610 173 637.5 c 128,-1,45
 162 665 162 665 162 700 c 0,46,32
 162 711 162 711 235.5 745.5 c 128,-1,33
EndSplineSet
EndChar

StartChar: otilde
Encoding: 245 245 182
Width: 685
GlyphClass: 2
Flags: W
LayerCount: 2
Fore
SplineSet
343 -9 m 0,0,1
 268 -9 268 -9 214 4 c 128,-1,2
 160 17 160 17 116 50 c 0,3,4
 25 116 25 116 25 296 c 0,5,6
 25 456 25 456 118 525 c 0,7,8
 205 589 205 589 343 589 c 0,9,10
 402 589 402 589 444 583.5 c 128,-1,11
 486 578 486 578 529.5 560 c 128,-1,12
 573 542 573 542 599.5 511 c 128,-1,13
 626 480 626 480 643 425.5 c 128,-1,14
 660 371 660 371 660 296 c 0,15,16
 660 144 660 144 574 67.5 c 128,-1,17
 488 -9 488 -9 343 -9 c 0,0,1
322.5 143 m 128,-1,19
 330 136 330 136 342.5 136 c 128,-1,20
 355 136 355 136 362.5 143 c 128,-1,21
 370 150 370 150 376.5 186 c 128,-1,22
 383 222 383 222 383 276.5 c 128,-1,23
 383 331 383 331 380.5 360.5 c 128,-1,24
 378 390 378 390 374.5 406 c 128,-1,25
 371 422 371 422 365 431 c 0,26,27
 356 444 356 444 343.5 444 c 128,-1,28
 331 444 331 444 323 436.5 c 128,-1,29
 315 429 315 429 308 392.5 c 128,-1,30
 301 356 301 356 301 289 c 128,-1,31
 301 222 301 222 308 186 c 128,-1,18
 315 150 315 150 322.5 143 c 128,-1,19
537.5 642 m 128,-1,33
 486 610 486 610 447.5 610 c 128,-1,34
 409 610 409 610 355.5 627.5 c 128,-1,35
 302 645 302 645 286.5 645 c 128,-1,36
 271 645 271 645 227 627.5 c 128,-1,37
 183 610 183 610 165 610 c 128,-1,38
 147 610 147 610 127.5 645.5 c 128,-1,39
 108 681 108 681 108 700 c 0,40,41
 108 717 108 717 162.5 748.5 c 128,-1,42
 217 780 217 780 253 780 c 128,-1,43
 289 780 289 780 341.5 763 c 128,-1,44
 394 746 394 746 417 746 c 0,45,46
 424 746 424 746 466.5 763 c 128,-1,47
 509 780 509 780 528.5 780 c 128,-1,48
 548 780 548 780 568.5 743 c 128,-1,49
 589 706 589 706 589 689 c 0,50,32
 589 674 589 674 537.5 642 c 128,-1,33
EndSplineSet
EndChar

StartChar: odieresis
Encoding: 246 246 183
Width: 685
GlyphClass: 2
Flags: W
LayerCount: 2
Fore
SplineSet
343 -9 m 0,0,1
 268 -9 268 -9 214 4 c 128,-1,2
 160 17 160 17 116 50 c 0,3,4
 25 116 25 116 25 296 c 0,5,6
 25 456 25 456 118 525 c 0,7,8
 205 589 205 589 343 589 c 0,9,10
 402 589 402 589 444 583.5 c 128,-1,11
 486 578 486 578 529.5 560 c 128,-1,12
 573 542 573 542 599.5 511 c 128,-1,13
 626 480 626 480 643 425.5 c 128,-1,14
 660 371 660 371 660 296 c 0,15,16
 660 144 660 144 574 67.5 c 128,-1,17
 488 -9 488 -9 343 -9 c 0,0,1
322.5 143 m 128,-1,19
 330 136 330 136 342.5 136 c 128,-1,20
 355 136 355 136 362.5 143 c 128,-1,21
 370 150 370 150 376.5 186 c 128,-1,22
 383 222 383 222 383 276.5 c 128,-1,23
 383 331 383 331 380.5 360.5 c 128,-1,24
 378 390 378 390 374.5 406 c 128,-1,25
 371 422 371 422 365 431 c 0,26,27
 356 444 356 444 343.5 444 c 128,-1,28
 331 444 331 444 323 436.5 c 128,-1,29
 315 429 315 429 308 392.5 c 128,-1,30
 301 356 301 356 301 289 c 128,-1,31
 301 222 301 222 308 186 c 128,-1,18
 315 150 315 150 322.5 143 c 128,-1,19
203 600 m 128,-1,33
 151 600 151 600 124 619.5 c 128,-1,34
 97 639 97 639 97 691.5 c 128,-1,35
 97 744 97 744 124.5 762 c 128,-1,36
 152 780 152 780 203.5 780 c 128,-1,37
 255 780 255 780 282.5 762 c 128,-1,38
 310 744 310 744 310 691.5 c 128,-1,39
 310 639 310 639 282.5 619.5 c 128,-1,32
 255 600 255 600 203 600 c 128,-1,33
480 600 m 128,-1,41
 428 600 428 600 401 619.5 c 128,-1,42
 374 639 374 639 374 691.5 c 128,-1,43
 374 744 374 744 401.5 762 c 128,-1,44
 429 780 429 780 480.5 780 c 128,-1,45
 532 780 532 780 559.5 762 c 128,-1,46
 587 744 587 744 587 691.5 c 128,-1,47
 587 639 587 639 559.5 619.5 c 128,-1,40
 532 600 532 600 480 600 c 128,-1,41
EndSplineSet
EndChar

StartChar: divide
Encoding: 247 247 184
Width: 533
GlyphClass: 2
Flags: W
LayerCount: 2
Fore
SplineSet
268 -10 m 128,-1,1
 226 -10 226 -10 204 7.5 c 128,-1,2
 182 25 182 25 182 72.5 c 128,-1,3
 182 120 182 120 204.5 136 c 128,-1,4
 227 152 227 152 268 152 c 128,-1,5
 309 152 309 152 331.5 136 c 128,-1,6
 354 120 354 120 354 72.5 c 128,-1,7
 354 25 354 25 332 7.5 c 128,-1,0
 310 -10 310 -10 268 -10 c 128,-1,1
452 190 m 2,8,-1
 47 190 l 2,9,10
 36 190 36 190 28 208.5 c 128,-1,11
 20 227 20 227 20 261.5 c 128,-1,12
 20 296 20 296 42 331.5 c 128,-1,13
 64 367 64 367 85 367 c 2,14,-1
 487 367 l 2,15,16
 513 367 513 367 513 302 c 0,17,18
 513 269 513 269 492 229.5 c 128,-1,19
 471 190 471 190 452 190 c 2,8,-1
268 407 m 128,-1,21
 226 407 226 407 204 424.5 c 128,-1,22
 182 442 182 442 182 489.5 c 128,-1,23
 182 537 182 537 204.5 553 c 128,-1,24
 227 569 227 569 268 569 c 128,-1,25
 309 569 309 569 331.5 553 c 128,-1,26
 354 537 354 537 354 489.5 c 128,-1,27
 354 442 354 442 332 424.5 c 128,-1,20
 310 407 310 407 268 407 c 128,-1,21
EndSplineSet
EndChar

StartChar: oslash
Encoding: 248 248 185
Width: 685
GlyphClass: 2
Flags: W
LayerCount: 2
Fore
SplineSet
193 -87 m 0,0,1
 171 -87 171 -87 161.5 -73.5 c 128,-1,2
 152 -60 152 -60 152 -44 c 128,-1,3
 152 -28 152 -28 164 20 c 1,4,5
 25 80 25 80 25 296 c 0,6,7
 25 499 25 499 145 556 c 0,8,9
 185 575 185 575 225.5 581.5 c 128,-1,10
 266 588 266 588 321 589 c 1,11,-1
 330 624 l 2,12,13
 344 678 344 678 484 678 c 0,14,15
 536 678 536 678 536 643 c 0,16,17
 536 630 536 630 519 565 c 1,18,19
 660 510 660 510 660 296 c 0,20,21
 660 121 660 121 575 54 c 0,22,23
 533 21 533 21 482 7 c 128,-1,24
 431 -7 431 -7 361 -9 c 1,25,-1
 352 -43 l 2,26,27
 340 -87 340 -87 193 -87 c 0,0,1
322.5 143 m 128,-1,29
 330 136 330 136 342.5 136 c 128,-1,30
 355 136 355 136 362.5 143 c 128,-1,31
 370 150 370 150 376.5 186 c 128,-1,32
 383 222 383 222 383 276.5 c 128,-1,33
 383 331 383 331 380.5 360.5 c 128,-1,34
 378 390 378 390 374.5 406 c 128,-1,35
 371 422 371 422 365 431 c 0,36,37
 356 444 356 444 343.5 444 c 128,-1,38
 331 444 331 444 323 436.5 c 128,-1,39
 315 429 315 429 308 392.5 c 128,-1,40
 301 356 301 356 301 289 c 128,-1,41
 301 222 301 222 308 186 c 128,-1,28
 315 150 315 150 322.5 143 c 128,-1,29
EndSplineSet
EndChar

StartChar: ugrave
Encoding: 249 249 186
Width: 678
GlyphClass: 2
Flags: W
LayerCount: 2
Fore
SplineSet
236 -9 m 0,0,1
 124 -9 124 -9 79.5 49 c 128,-1,2
 35 107 35 107 35 251 c 2,3,-1
 35 523 l 2,4,5
 35 543 35 543 94 561.5 c 128,-1,6
 153 580 153 580 218 580 c 0,7,8
 305 580 305 580 305 535 c 2,9,-1
 305 281 l 2,10,11
 305 205 305 205 311 170.5 c 128,-1,12
 317 136 317 136 341 136 c 0,13,14
 373 136 373 136 373 163 c 2,15,-1
 373 523 l 2,16,17
 373 544 373 544 435 562 c 128,-1,18
 497 580 497 580 570 580 c 128,-1,19
 643 580 643 580 643 541 c 2,20,-1
 643 26 l 2,21,22
 643 12 643 12 580 6 c 128,-1,23
 517 0 517 0 456 0 c 128,-1,24
 395 0 395 0 394 16 c 1,25,-1
 384 81 l 1,26,-1
 376 81 l 1,27,28
 367 45 367 45 340 22 c 0,29,30
 326 10 326 10 298.5 0.5 c 128,-1,31
 271 -9 271 -9 236 -9 c 0,0,1
249 780 m 0,32,33
 310 780 310 780 384.5 750.5 c 128,-1,34
 459 721 459 721 459 689.5 c 128,-1,35
 459 658 459 658 443.5 634 c 128,-1,36
 428 610 428 610 409 610 c 0,37,38
 352 610 352 610 265.5 621.5 c 128,-1,39
 179 633 179 633 179 648 c 0,40,41
 179 704 179 704 202.5 742 c 128,-1,42
 226 780 226 780 249 780 c 0,32,33
EndSplineSet
EndChar

StartChar: uacute
Encoding: 250 250 187
Width: 678
GlyphClass: 2
Flags: W
LayerCount: 2
Fore
SplineSet
394 16 m 1,0,-1
 384 81 l 1,1,-1
 376 81 l 1,2,-1
 374 72 l 2,3,4
 370 50 370 50 340 23 c 0,5,6
 326 10 326 10 298.5 0.5 c 128,-1,7
 271 -9 271 -9 236 -9 c 0,8,9
 124 -9 124 -9 79.5 49 c 128,-1,10
 35 107 35 107 35 251 c 2,11,-1
 35 523 l 2,12,13
 35 543 35 543 94 561.5 c 128,-1,14
 153 580 153 580 218 580 c 0,15,16
 305 580 305 580 305 535 c 2,17,-1
 305 281 l 2,18,19
 305 205 305 205 311 170.5 c 128,-1,20
 317 136 317 136 341 136 c 0,21,22
 373 136 373 136 373 163 c 2,23,-1
 373 523 l 2,24,25
 373 544 373 544 435 562 c 128,-1,26
 497 580 497 580 570 580 c 128,-1,27
 643 580 643 580 643 541 c 2,28,-1
 643 26 l 2,29,30
 643 12 643 12 580 6 c 128,-1,31
 517 0 517 0 456 0 c 128,-1,32
 395 0 395 0 394 16 c 1,0,-1
459 780 m 0,33,34
 482 780 482 780 505.5 742 c 128,-1,35
 529 704 529 704 529 648 c 0,36,37
 529 633 529 633 442.5 621.5 c 128,-1,38
 356 610 356 610 299 610 c 0,39,40
 280 610 280 610 264.5 634 c 128,-1,41
 249 658 249 658 249 689.5 c 128,-1,42
 249 721 249 721 323.5 750.5 c 128,-1,43
 398 780 398 780 459 780 c 0,33,34
EndSplineSet
EndChar

StartChar: ucircumflex
Encoding: 251 251 188
Width: 678
GlyphClass: 2
Flags: W
LayerCount: 2
Fore
SplineSet
394 16 m 1,0,-1
 384 81 l 1,1,-1
 376 81 l 1,2,-1
 374 72 l 2,3,4
 370 50 370 50 340 23 c 0,5,6
 326 10 326 10 298.5 0.5 c 128,-1,7
 271 -9 271 -9 236 -9 c 0,8,9
 124 -9 124 -9 79.5 49 c 128,-1,10
 35 107 35 107 35 251 c 2,11,-1
 35 523 l 2,12,13
 35 543 35 543 94 561.5 c 128,-1,14
 153 580 153 580 218 580 c 0,15,16
 305 580 305 580 305 535 c 2,17,-1
 305 281 l 2,18,19
 305 205 305 205 311 170.5 c 128,-1,20
 317 136 317 136 341 136 c 0,21,22
 373 136 373 136 373 163 c 2,23,-1
 373 523 l 2,24,25
 373 544 373 544 435 562 c 128,-1,26
 497 580 497 580 570 580 c 128,-1,27
 643 580 643 580 643 541 c 2,28,-1
 643 26 l 2,29,30
 643 12 643 12 580 6 c 128,-1,31
 517 0 517 0 456 0 c 128,-1,32
 395 0 395 0 394 16 c 1,0,-1
234.5 735.5 m 128,-1,34
 308 770 308 770 343.5 770 c 128,-1,35
 379 770 379 770 450 736 c 128,-1,36
 521 702 521 702 521 690 c 0,37,38
 521 655 521 655 510 627.5 c 128,-1,39
 499 600 499 600 481 600 c 0,40,41
 467 600 467 600 341 639 c 1,42,43
 214 600 214 600 201 600 c 0,44,45
 183 600 183 600 172 627.5 c 128,-1,46
 161 655 161 655 161 690 c 0,47,33
 161 701 161 701 234.5 735.5 c 128,-1,34
EndSplineSet
EndChar

StartChar: udieresis
Encoding: 252 252 189
Width: 678
GlyphClass: 2
Flags: W
LayerCount: 2
Fore
SplineSet
394 16 m 1,0,-1
 384 81 l 1,1,-1
 376 81 l 1,2,-1
 374 72 l 2,3,4
 370 50 370 50 340 23 c 0,5,6
 326 10 326 10 298.5 0.5 c 128,-1,7
 271 -9 271 -9 236 -9 c 0,8,9
 124 -9 124 -9 79.5 49 c 128,-1,10
 35 107 35 107 35 251 c 2,11,-1
 35 523 l 2,12,13
 35 543 35 543 94 561.5 c 128,-1,14
 153 580 153 580 218 580 c 0,15,16
 305 580 305 580 305 535 c 2,17,-1
 305 281 l 2,18,19
 305 205 305 205 311 170.5 c 128,-1,20
 317 136 317 136 341 136 c 0,21,22
 373 136 373 136 373 163 c 2,23,-1
 373 523 l 2,24,25
 373 544 373 544 435 562 c 128,-1,26
 497 580 497 580 570 580 c 128,-1,27
 643 580 643 580 643 541 c 2,28,-1
 643 26 l 2,29,30
 643 12 643 12 580 6 c 128,-1,31
 517 0 517 0 456 0 c 128,-1,32
 395 0 395 0 394 16 c 1,0,-1
200 600 m 128,-1,34
 148 600 148 600 121 619.5 c 128,-1,35
 94 639 94 639 94 691.5 c 128,-1,36
 94 744 94 744 121.5 762 c 128,-1,37
 149 780 149 780 200.5 780 c 128,-1,38
 252 780 252 780 279.5 762 c 128,-1,39
 307 744 307 744 307 691.5 c 128,-1,40
 307 639 307 639 279.5 619.5 c 128,-1,33
 252 600 252 600 200 600 c 128,-1,34
477 600 m 128,-1,42
 425 600 425 600 398 619.5 c 128,-1,43
 371 639 371 639 371 691.5 c 128,-1,44
 371 744 371 744 398.5 762 c 128,-1,45
 426 780 426 780 477.5 780 c 128,-1,46
 529 780 529 780 556.5 762 c 128,-1,47
 584 744 584 744 584 691.5 c 128,-1,48
 584 639 584 639 556.5 619.5 c 128,-1,41
 529 600 529 600 477 600 c 128,-1,42
EndSplineSet
EndChar

StartChar: yacute
Encoding: 253 253 190
Width: 661
GlyphClass: 2
Flags: W
LayerCount: 2
Fore
SplineSet
372 65 m 2,0,-1
 372 124 l 1,1,-1
 364 124 l 1,2,3
 359 119 359 119 349 111 c 128,-1,4
 339 103 339 103 302 90 c 128,-1,5
 265 77 265 77 219.5 77 c 128,-1,6
 174 77 174 77 139.5 91.5 c 128,-1,7
 105 106 105 106 85 130.5 c 128,-1,8
 65 155 65 155 54 196 c 0,9,10
 35 261 35 261 35 380 c 2,11,-1
 35 518 l 2,12,13
 35 539 35 539 94 559.5 c 128,-1,14
 153 580 153 580 218 580 c 0,15,16
 305 580 305 580 305 535 c 2,17,-1
 305 409 l 2,18,19
 305 209 305 209 337 209 c 0,20,21
 356 209 356 209 356 236 c 2,22,-1
 356 518 l 2,23,24
 356 539 356 539 419 559.5 c 128,-1,25
 482 580 482 580 554 580 c 128,-1,26
 626 580 626 580 626 541 c 2,27,-1
 626 68 l 2,28,29
 626 -155 626 -155 324 -155 c 0,30,31
 165 -155 165 -155 108 -124 c 0,32,33
 83 -110 83 -110 83 -95 c 0,34,35
 83 -71 83 -71 103 -14.5 c 128,-1,36
 123 42 123 42 140 42 c 0,37,38
 144 42 144 42 168 36 c 0,39,40
 242 16 242 16 291.5 16 c 128,-1,41
 341 16 341 16 356.5 27 c 128,-1,42
 372 38 372 38 372 65 c 2,0,-1
440 780 m 0,43,44
 463 780 463 780 486.5 742 c 128,-1,45
 510 704 510 704 510 648 c 0,46,47
 510 633 510 633 423.5 621.5 c 128,-1,48
 337 610 337 610 280 610 c 0,49,50
 261 610 261 610 245.5 634 c 128,-1,51
 230 658 230 658 230 689.5 c 128,-1,52
 230 721 230 721 304.5 750.5 c 128,-1,53
 379 780 379 780 440 780 c 0,43,44
EndSplineSet
EndChar

StartChar: thorn
Encoding: 254 254 191
Width: 735
GlyphClass: 2
Flags: W
LayerCount: 2
Fore
SplineSet
31 -102 m 2,0,-1
 31 669 l 2,1,2
 31 691 31 691 90 712 c 128,-1,3
 149 733 149 733 214 733 c 0,4,5
 302 733 302 733 302 687 c 2,6,-1
 302 591 l 1,7,-1
 291 522 l 1,8,-1
 299 522 l 1,9,10
 326 554 326 554 369.5 571.5 c 128,-1,11
 413 589 413 589 456.5 589 c 128,-1,12
 500 589 500 589 531 578.5 c 128,-1,13
 562 568 562 568 580.5 546 c 128,-1,14
 599 524 599 524 610.5 501.5 c 128,-1,15
 622 479 622 479 627 442 c 0,16,17
 634 389 634 389 634 316 c 128,-1,18
 634 243 634 243 624 189.5 c 128,-1,19
 614 136 614 136 591 90 c 128,-1,20
 568 44 568 44 525.5 18 c 128,-1,21
 483 -8 483 -8 424 -8 c 0,22,23
 392 -8 392 -8 367.5 1.5 c 128,-1,24
 343 11 343 11 331 24 c 0,25,26
 306 51 306 51 302 72 c 1,27,-1
 301 82 l 1,28,-1
 293 82 l 1,29,-1
 307 -8 l 1,30,-1
 307 -102 l 2,31,32
 307 -113 307 -113 249.5 -119.5 c 128,-1,33
 192 -126 192 -126 131.5 -126 c 128,-1,34
 71 -126 71 -126 51 -120.5 c 128,-1,35
 31 -115 31 -115 31 -102 c 2,0,-1
354 412 m 128,-1,37
 345 446 345 446 327 446 c 128,-1,38
 309 446 309 446 301 426 c 1,39,-1
 301 182 l 2,40,41
 301 156 301 156 328 156 c 0,42,43
 340 156 340 156 348 166 c 0,44,45
 363 185 363 185 363 281.5 c 128,-1,36
 363 378 363 378 354 412 c 128,-1,37
EndSplineSet
EndChar

